ArchivoNarrowDeva-Regular.ufo
<glyph name="percent" format="1">
  <advance width="644"/>
  <unicode hex="0025"/>
  <outline>
    <contour>
      <point x="153" y="617" type="curve" smooth="yes"/>
      <point x="223" y="617"/>
      <point x="264" y="580"/>
      <point x="264" y="457" type="curve" smooth="yes"/>
      <point x="264" y="334"/>
      <point x="223" y="298"/>
      <point x="153" y="298" type="curve" smooth="yes"/>
      <point x="84" y="298"/>
      <point x="43" y="335"/>
      <point x="43" y="457" type="curve" smooth="yes"/>
      <point x="43" y="580"/>
      <point x="84" y="617"/>
    </contour>
    <contour>
      <point x="113" y="0" type="line"/>
      <point x="483" y="606" type="line"/>
      <point x="542" y="606" type="line"/>
      <point x="171" y="0" type="line"/>
    </contour>
    <contour>
      <point x="153" y="569" type="curve" smooth="yes"/>
      <point x="107" y="569"/>
      <point x="98" y="525"/>
      <point x="98" y="464" type="curve" smooth="yes"/>
      <point x="98" y="451" type="line" smooth="yes"/>
      <point x="98" y="390"/>
      <point x="107" y="346"/>
      <point x="153" y="346" type="curve" smooth="yes"/>
      <point x="197" y="346"/>
      <point x="207" y="390"/>
      <point x="207" y="451" type="curve" smooth="yes"/>
      <point x="207" y="464" type="line" smooth="yes"/>
      <point x="207" y="525"/>
      <point x="197" y="569"/>
    </contour>
    <contour>
      <point x="501" y="309" type="curve" smooth="yes"/>
      <point x="571" y="309"/>
      <point x="613" y="271"/>
      <point x="613" y="149" type="curve" smooth="yes"/>
      <point x="613" y="26"/>
      <point x="571" y="-11"/>
      <point x="501" y="-11" type="curve" smooth="yes"/>
      <point x="433" y="-11"/>
      <point x="391" y="27"/>
      <point x="391" y="149" type="curve" smooth="yes"/>
      <point x="391" y="271"/>
      <point x="433" y="309"/>
    </contour>
    <contour>
      <point x="501" y="260" type="curve" smooth="yes"/>
      <point x="457" y="260"/>
      <point x="446" y="217"/>
      <point x="446" y="156" type="curve" smooth="yes"/>
      <point x="446" y="142" type="line" smooth="yes"/>
      <point x="446" y="81"/>
      <point x="457" y="38"/>
      <point x="501" y="38" type="curve" smooth="yes"/>
      <point x="546" y="38"/>
      <point x="556" y="81"/>
      <point x="556" y="142" type="curve" smooth="yes"/>
      <point x="556" y="156" type="line" smooth="yes"/>
      <point x="556" y="217"/>
      <point x="546" y="260"/>
    </contour>
  </outline>
</glyph>
<glyph name="quotesingle" format="1">
  <advance width="129"/>
  <unicode hex="0027"/>
  <outline>
    <contour>
      <point x="74" y="360" type="line"/>
      <point x="49" y="360" type="line"/>
      <point x="30" y="476" type="line"/>
      <point x="30" y="606" type="line"/>
      <point x="91" y="606" type="line"/>
      <point x="91" y="476" type="line"/>
    </contour>
  </outline>
</glyph>
<glyph name="parenright" format="1">
  <advance width="241"/>
  <unicode hex="0029"/>
  <outline>
    <contour>
      <point x="13" y="650" type="curve"/>
      <point x="55" y="650" type="line"/>
      <point x="150" y="541"/>
      <point x="203" y="400"/>
      <point x="203" y="255" type="curve" smooth="yes"/>
      <point x="203" y="110"/>
      <point x="150" y="-30"/>
      <point x="55" y="-139" type="curve"/>
      <point x="13" y="-139" type="line"/>
      <point x="82" y="-31"/>
      <point x="135" y="118"/>
      <point x="135" y="256" type="curve" smooth="yes"/>
      <point x="135" y="394"/>
      <point x="82" y="542"/>
    </contour>
  </outline>
</glyph>
<glyph name="comma" format="1">
  <advance width="202"/>
  <unicode hex="002C"/>
  <outline>
    <contour>
      <point x="62" y="-102" type="line"/>
      <point x="93" y="0" type="line"/>
      <point x="62" y="0" type="line"/>
      <point x="62" y="87" type="line"/>
      <point x="140" y="87" type="line"/>
      <point x="140" y="7" type="line"/>
      <point x="103" y="-102" type="line"/>
    </contour>
  </outline>
</glyph>
<glyph name="hyphen" format="1">
  <advance width="241"/>
  <unicode hex="002D"/>
  <outline>
    <contour>
      <point x="8" y="279" type="line"/>
      <point x="234" y="279" type="line"/>
      <point x="234" y="197" type="line"/>
      <point x="8" y="197" type="line"/>
    </contour>
  </outline>
</glyph>
<glyph name="three" format="1">
  <advance width="403"/>
  <unicode hex="0033"/>
  <outline>
    <contour>
      <point x="199" y="617" type="curve" smooth="yes"/>
      <point x="292" y="617"/>
      <point x="355" y="559"/>
      <point x="355" y="451" type="curve" smooth="yes"/>
      <point x="355" y="379"/>
      <point x="322" y="340"/>
      <point x="276" y="315" type="curve"/>
      <point x="276" y="311" type="line"/>
      <point x="328" y="292"/>
      <point x="366" y="243"/>
      <point x="366" y="163" type="curve" smooth="yes"/>
      <point x="366" y="55"/>
      <point x="298" y="-11"/>
      <point x="202" y="-11" type="curve" smooth="yes"/>
      <point x="93" y="-11"/>
      <point x="34" y="61"/>
      <point x="34" y="171" type="curve" smooth="yes"/>
      <point x="34" y="177" type="line"/>
      <point x="97" y="177" type="line"/>
      <point x="97" y="169" type="line" smooth="yes"/>
      <point x="97" y="89"/>
      <point x="132" y="47"/>
      <point x="195" y="47" type="curve" smooth="yes"/>
      <point x="258" y="47"/>
      <point x="301" y="82"/>
      <point x="301" y="168" type="curve" smooth="yes"/>
      <point x="301" y="257"/>
      <point x="249" y="280"/>
      <point x="194" y="280" type="curve" smooth="yes"/>
      <point x="137" y="280" type="line"/>
      <point x="137" y="336" type="line"/>
      <point x="195" y="336" type="line" smooth="yes"/>
      <point x="246" y="336"/>
      <point x="292" y="372"/>
      <point x="292" y="446" type="curve" smooth="yes"/>
      <point x="292" y="528"/>
      <point x="247" y="559"/>
      <point x="200" y="559" type="curve" smooth="yes"/>
      <point x="148" y="559"/>
      <point x="108" y="524"/>
      <point x="108" y="443" type="curve" smooth="yes"/>
      <point x="108" y="438" type="line"/>
      <point x="45" y="438" type="line"/>
      <point x="45" y="451" type="line" smooth="yes"/>
      <point x="45" y="552"/>
      <point x="109" y="617"/>
    </contour>
  </outline>
</glyph>
<glyph name="four" format="1">
  <advance width="403"/>
  <unicode hex="0034"/>
  <outline>
    <contour>
      <point x="179" y="617" type="curve"/>
      <point x="242" y="617" type="line"/>
      <point x="210" y="452"/>
      <point x="115" y="260"/>
      <point x="82" y="210" type="curve"/>
      <point x="260" y="210" type="line"/>
      <point x="260" y="418" type="line"/>
      <point x="276" y="460"/>
      <point x="279" y="480"/>
      <point x="290" y="527" type="curve"/>
      <point x="322" y="527" type="line"/>
      <point x="322" y="210" type="line"/>
      <point x="384" y="210" type="line"/>
      <point x="384" y="153" type="line"/>
      <point x="322" y="153" type="line"/>
      <point x="322" y="0" type="line"/>
      <point x="260" y="0" type="line"/>
      <point x="260" y="153" type="line"/>
      <point x="21" y="153" type="line"/>
      <point x="21" y="213" type="line"/>
      <point x="84" y="330"/>
      <point x="144" y="478"/>
    </contour>
  </outline>
</glyph>
<glyph name="five" format="1">
  <advance width="403"/>
  <unicode hex="0035"/>
  <outline>
    <contour>
      <point x="128" y="539" type="line"/>
      <point x="116" y="342" type="line"/>
      <point x="136" y="364"/>
      <point x="175" y="394"/>
      <point x="229" y="394" type="curve" smooth="yes"/>
      <point x="308" y="394"/>
      <point x="371" y="331"/>
      <point x="371" y="198" type="curve" smooth="yes"/>
      <point x="371" y="65"/>
      <point x="307" y="-11"/>
      <point x="205" y="-11" type="curve" smooth="yes"/>
      <point x="104" y="-11"/>
      <point x="37" y="65"/>
      <point x="37" y="188" type="curve"/>
      <point x="102" y="188" type="line"/>
      <point x="102" y="100"/>
      <point x="149" y="46"/>
      <point x="205" y="46" type="curve" smooth="yes"/>
      <point x="262" y="46"/>
      <point x="306" y="95"/>
      <point x="306" y="198" type="curve" smooth="yes"/>
      <point x="306" y="286"/>
      <point x="267" y="335"/>
      <point x="211" y="335" type="curve" smooth="yes"/>
      <point x="170" y="335"/>
      <point x="133" y="305"/>
      <point x="113" y="260" type="curve"/>
      <point x="54" y="271" type="line"/>
      <point x="74" y="606" type="line"/>
      <point x="345" y="606" type="line"/>
      <point x="345" y="539" type="line"/>
    </contour>
  </outline>
</glyph>
<glyph name="six" format="1">
  <advance width="403"/>
  <unicode hex="0036"/>
  <outline>
    <contour>
      <point x="206" y="617" type="curve" smooth="yes"/>
      <point x="307" y="617"/>
      <point x="349" y="532"/>
      <point x="349" y="420" type="curve"/>
      <point x="285" y="420" type="line"/>
      <point x="285" y="509"/>
      <point x="257" y="559"/>
      <point x="203" y="559" type="curve" smooth="yes"/>
      <point x="124.711" y="559"/>
      <point x="101.968" y="471.852"/>
      <point x="101.968" y="330.356" type="curve" smooth="yes"/>
      <point x="101.968" y="327.263"/>
      <point x="101.979" y="324.144"/>
      <point x="102" y="321" type="curve"/>
      <point x="128" y="358"/>
      <point x="166" y="381"/>
      <point x="213" y="381" type="curve" smooth="yes"/>
      <point x="316" y="381"/>
      <point x="365" y="293"/>
      <point x="365" y="186" type="curve" smooth="yes"/>
      <point x="365" y="65"/>
      <point x="299" y="-11"/>
      <point x="210" y="-11" type="curve" smooth="yes"/>
      <point x="102" y="-11"/>
      <point x="37" y="61"/>
      <point x="37" y="286" type="curve" smooth="yes"/>
      <point x="37" y="538"/>
      <point x="99" y="617"/>
    </contour>
    <contour>
      <point x="205" y="324" type="curve" smooth="yes"/>
      <point x="138" y="324"/>
      <point x="108" y="260"/>
      <point x="108" y="186" type="curve" smooth="yes"/>
      <point x="108" y="109"/>
      <point x="138" y="47"/>
      <point x="205" y="47" type="curve" smooth="yes"/>
      <point x="271" y="47"/>
      <point x="300" y="109"/>
      <point x="300" y="186" type="curve" smooth="yes"/>
      <point x="300" y="260"/>
      <point x="271" y="324"/>
    </contour>
  </outline>
</glyph>
<glyph name="seven" format="1">
  <advance width="403"/>
  <unicode hex="0037"/>
  <outline>
    <contour>
      <point x="372" y="606" type="line"/>
      <point x="372" y="567" type="line"/>
      <point x="288" y="440"/>
      <point x="182" y="244"/>
      <point x="182" y="45" type="curve" smooth="yes"/>
      <point x="182" y="0" type="line"/>
      <point x="110" y="0" type="line"/>
      <point x="110" y="213"/>
      <point x="213" y="412"/>
      <point x="288" y="539" type="curve"/>
      <point x="32" y="539" type="line"/>
      <point x="32" y="606" type="line"/>
    </contour>
  </outline>
</glyph>
<glyph name="colon" format="1">
  <advance width="191"/>
  <unicode hex="003A"/>
  <outline>
    <contour>
      <point x="59" y="465" type="line"/>
      <point x="137" y="465" type="line"/>
      <point x="137" y="378" type="line"/>
      <point x="59" y="378" type="line"/>
    </contour>
    <contour>
      <point x="59" y="87" type="line"/>
      <point x="137" y="87" type="line"/>
      <point x="137" y="0" type="line"/>
      <point x="59" y="0" type="line"/>
    </contour>
  </outline>
</glyph>
<glyph name="equal" format="1">
  <advance width="423"/>
  <unicode hex="003D"/>
  <outline>
    <contour>
      <point x="41" y="352" type="line"/>
      <point x="383" y="352" type="line"/>
      <point x="383" y="284" type="line"/>
      <point x="41" y="284" type="line"/>
    </contour>
    <contour>
      <point x="41" y="164" type="line"/>
      <point x="383" y="164" type="line"/>
      <point x="383" y="97" type="line"/>
      <point x="41" y="97" type="line"/>
    </contour>
  </outline>
</glyph>
<glyph name="B" format="1">
  <advance width="473"/>
  <unicode hex="0042"/>
  <outline>
    <contour>
      <point x="58" y="606" type="line"/>
      <point x="279" y="606" type="line" smooth="yes"/>
      <point x="367" y="606"/>
      <point x="434" y="548"/>
      <point x="434" y="459" type="curve" smooth="yes"/>
      <point x="434" y="389"/>
      <point x="393" y="337"/>
      <point x="341" y="318" type="curve"/>
      <point x="341" y="315" type="line"/>
      <point x="401" y="296"/>
      <point x="448" y="239"/>
      <point x="448" y="160" type="curve" smooth="yes"/>
      <point x="448" y="58"/>
      <point x="371" y="0"/>
      <point x="279" y="0" type="curve" smooth="yes"/>
      <point x="58" y="0" type="line"/>
    </contour>
    <contour>
      <point x="126" y="342" type="line"/>
      <point x="259" y="342" type="line" smooth="yes"/>
      <point x="320" y="342"/>
      <point x="362" y="389"/>
      <point x="362" y="442" type="curve" smooth="yes"/>
      <point x="362" y="512"/>
      <point x="323" y="545"/>
      <point x="265" y="545" type="curve" smooth="yes"/>
      <point x="126" y="545" type="line"/>
    </contour>
    <contour>
      <point x="126" y="62" type="line"/>
      <point x="272" y="62" type="line" smooth="yes"/>
      <point x="332" y="62"/>
      <point x="377" y="100"/>
      <point x="377" y="169" type="curve" smooth="yes"/>
      <point x="377" y="227"/>
      <point x="332" y="279"/>
      <point x="266" y="279" type="curve" smooth="yes"/>
      <point x="126" y="279" type="line"/>
    </contour>
  </outline>
</glyph>
<glyph name="C" format="1">
  <advance width="523"/>
  <unicode hex="0043"/>
  <outline>
    <contour>
      <point x="262" y="0" type="move" name="Anchor-1"/>
    </contour>
    <contour>
      <point x="262" y="606" type="move" name="Anchor-0"/>
    </contour>
    <contour>
      <point x="277" y="617" type="curve" smooth="yes"/>
      <point x="401" y="617"/>
      <point x="485" y="541"/>
      <point x="485" y="389" type="curve"/>
      <point x="417" y="389" type="line"/>
      <point x="417" y="498"/>
      <point x="361" y="552"/>
      <point x="277" y="552" type="curve" smooth="yes"/>
      <point x="165" y="552"/>
      <point x="109" y="481"/>
      <point x="109" y="325" type="curve" smooth="yes"/>
      <point x="109" y="281" type="line" smooth="yes"/>
      <point x="109" y="125"/>
      <point x="165" y="53"/>
      <point x="276" y="53" type="curve" smooth="yes"/>
      <point x="362" y="53"/>
      <point x="418" y="106"/>
      <point x="418" y="215" type="curve"/>
      <point x="485" y="215" type="line"/>
      <point x="485" y="60"/>
      <point x="400" y="-11"/>
      <point x="277" y="-11" type="curve" smooth="yes"/>
      <point x="118" y="-11"/>
      <point x="39" y="94"/>
      <point x="39" y="303" type="curve" smooth="yes"/>
      <point x="39" y="513"/>
      <point x="118" y="617"/>
    </contour>
  </outline>
</glyph>
<glyph name="D" format="1">
  <advance width="523"/>
  <unicode hex="0044"/>
  <outline>
    <contour>
      <point x="0" y="0" type="move" name="Anchor-1"/>
    </contour>
    <contour>
      <point x="262" y="606" type="move" name="Anchor-0"/>
    </contour>
    <contour>
      <point x="65" y="606" type="line"/>
      <point x="250" y="606" type="line" smooth="yes"/>
      <point x="391" y="606"/>
      <point x="477" y="507"/>
      <point x="477" y="312" type="curve" smooth="yes"/>
      <point x="477" y="104"/>
      <point x="391" y="0"/>
      <point x="250" y="0" type="curve" smooth="yes"/>
      <point x="65" y="0" type="line"/>
    </contour>
    <contour>
      <point x="132" y="62" type="line"/>
      <point x="244" y="62" type="line" smooth="yes"/>
      <point x="343" y="62"/>
      <point x="405" y="136"/>
      <point x="405" y="290" type="curve" smooth="yes"/>
      <point x="405" y="334" type="line" smooth="yes"/>
      <point x="405" y="475"/>
      <point x="343" y="545"/>
      <point x="244" y="545" type="curve" smooth="yes"/>
      <point x="132" y="545" type="line"/>
    </contour>
  </outline>
</glyph>
<glyph name="E" format="1">
  <advance width="484"/>
  <unicode hex="0045"/>
  <outline>
    <contour>
      <point x="242" y="0" type="move" name="Anchor-1"/>
    </contour>
    <contour>
      <point x="242" y="606" type="move" name="Anchor-0"/>
    </contour>
    <contour>
      <point x="435" y="606" type="line"/>
      <point x="435" y="545" type="line"/>
      <point x="133" y="545" type="line"/>
      <point x="133" y="342" type="line"/>
      <point x="396" y="342" type="line"/>
      <point x="396" y="279" type="line"/>
      <point x="133" y="279" type="line"/>
      <point x="133" y="62" type="line"/>
      <point x="440" y="62" type="line"/>
      <point x="440" y="0" type="line"/>
      <point x="65" y="0" type="line"/>
      <point x="65" y="606" type="line"/>
    </contour>
  </outline>
</glyph>
<glyph name="G" format="1">
  <advance width="564"/>
  <unicode hex="0047"/>
  <outline>
    <contour>
      <point x="282" y="0" type="move" name="Anchor-1"/>
    </contour>
    <contour>
      <point x="282" y="606" type="move" name="Anchor-0"/>
    </contour>
    <contour>
      <point x="271" y="312" type="line"/>
      <point x="504" y="312" type="line"/>
      <point x="504" y="0" type="line"/>
      <point x="458" y="0" type="line"/>
      <point x="442" y="67" type="line"/>
      <point x="405" y="11"/>
      <point x="353" y="-11"/>
      <point x="287" y="-11" type="curve" smooth="yes"/>
      <point x="133" y="-11"/>
      <point x="47" y="94"/>
      <point x="47" y="303" type="curve" smooth="yes"/>
      <point x="47" y="513"/>
      <point x="138" y="617"/>
      <point x="286" y="617" type="curve" smooth="yes"/>
      <point x="414" y="617"/>
      <point x="504" y="548"/>
      <point x="504" y="402" type="curve"/>
      <point x="434" y="402" type="line"/>
      <point x="434" y="507"/>
      <point x="376" y="552"/>
      <point x="287" y="552" type="curve" smooth="yes"/>
      <point x="187" y="552"/>
      <point x="119" y="481"/>
      <point x="119" y="325" type="curve" smooth="yes"/>
      <point x="119" y="281" type="line" smooth="yes"/>
      <point x="119" y="126"/>
      <point x="177" y="53"/>
      <point x="281" y="53" type="curve" smooth="yes"/>
      <point x="392" y="53"/>
      <point x="434" y="111"/>
      <point x="434" y="233" type="curve" smooth="yes"/>
      <point x="434" y="253" type="line"/>
      <point x="271" y="253" type="line"/>
    </contour>
  </outline>
</glyph>
<glyph name="H" format="1">
  <advance width="523"/>
  <unicode hex="0048"/>
  <outline>
    <contour>
      <point x="0" y="0" type="move" name="Anchor-1"/>
    </contour>
    <contour>
      <point x="262" y="606" type="move" name="Anchor-0"/>
    </contour>
    <contour>
      <point x="392" y="0" type="line"/>
      <point x="392" y="279" type="line"/>
      <point x="133" y="279" type="line"/>
      <point x="133" y="0" type="line"/>
      <point x="65" y="0" type="line"/>
      <point x="65" y="606" type="line"/>
      <point x="133" y="606" type="line"/>
      <point x="133" y="342" type="line"/>
      <point x="392" y="342" type="line"/>
      <point x="392" y="606" type="line"/>
      <point x="459" y="606" type="line"/>
      <point x="459" y="0" type="line"/>
    </contour>
  </outline>
</glyph>
<glyph name="J" format="1">
  <advance width="350"/>
  <unicode hex="004A"/>
  <outline>
    <contour>
      <point x="0" y="0" type="move" name="Anchor-1"/>
    </contour>
    <contour>
      <point x="175" y="606" type="move" name="Anchor-0"/>
    </contour>
    <contour>
      <point x="292" y="606" type="line"/>
      <point x="292" y="144" type="line" smooth="yes"/>
      <point x="292" y="43"/>
      <point x="240" y="-11"/>
      <point x="152" y="-11" type="curve" smooth="yes"/>
      <point x="64" y="-11"/>
      <point x="12" y="43"/>
      <point x="12" y="144" type="curve" smooth="yes"/>
      <point x="12" y="182" type="line"/>
      <point x="80" y="182" type="line"/>
      <point x="80" y="136" type="line" smooth="yes"/>
      <point x="80" y="82"/>
      <point x="106" y="53"/>
      <point x="152" y="53" type="curve" smooth="yes"/>
      <point x="198" y="53"/>
      <point x="224" y="82"/>
      <point x="224" y="136" type="curve" smooth="yes"/>
      <point x="224" y="606" type="line"/>
    </contour>
  </outline>
</glyph>
<glyph name="N" format="1">
  <advance width="523"/>
  <unicode hex="004E"/>
  <outline>
    <contour>
      <point x="262" y="0" type="move" name="Anchor-1"/>
    </contour>
    <contour>
      <point x="262" y="606" type="move" name="Anchor-0"/>
    </contour>
    <contour>
      <point x="405" y="0" type="line"/>
      <point x="167" y="401" type="line" smooth="yes"/>
      <point x="149" y="431"/>
      <point x="124" y="491"/>
      <point x="124" y="491" type="curve"/>
      <point x="122" y="490" type="line"/>
      <point x="122" y="490"/>
      <point x="126" y="428"/>
      <point x="126" y="400" type="curve" smooth="yes"/>
      <point x="126" y="0" type="line"/>
      <point x="65" y="0" type="line"/>
      <point x="65" y="606" type="line"/>
      <point x="122" y="606" type="line"/>
      <point x="358" y="211" type="line" smooth="yes"/>
      <point x="374" y="186"/>
      <point x="399" y="123"/>
      <point x="399" y="123" type="curve"/>
      <point x="401" y="124" type="line"/>
      <point x="401" y="124"/>
      <point x="399" y="190"/>
      <point x="399" y="212" type="curve" smooth="yes"/>
      <point x="399" y="606" type="line"/>
      <point x="459" y="606" type="line"/>
      <point x="459" y="0" type="line"/>
    </contour>
  </outline>
</glyph>
<glyph name="P" format="1">
  <advance width="484"/>
  <unicode hex="0050"/>
  <outline>
    <contour>
      <point x="65" y="0" type="line"/>
      <point x="65" y="606" type="line"/>
      <point x="281" y="606" type="line" smooth="yes"/>
      <point x="399" y="606"/>
      <point x="460" y="536"/>
      <point x="460" y="432" type="curve" smooth="yes"/>
      <point x="460" y="327"/>
      <point x="393" y="254"/>
      <point x="281" y="254" type="curve" smooth="yes"/>
      <point x="133" y="254" type="line"/>
      <point x="133" y="0" type="line"/>
    </contour>
    <contour>
      <point x="132" y="317" type="line"/>
      <point x="281" y="317" type="line" smooth="yes"/>
      <point x="345" y="317"/>
      <point x="388" y="363"/>
      <point x="388" y="432" type="curve" smooth="yes"/>
      <point x="388" y="501"/>
      <point x="350" y="545"/>
      <point x="281" y="545" type="curve" smooth="yes"/>
      <point x="132" y="545" type="line"/>
    </contour>
  </outline>
</glyph>
<glyph name="R" format="1">
  <advance width="523"/>
  <unicode hex="0052"/>
  <outline>
    <contour>
      <point x="262" y="0" type="move" name="Anchor-1"/>
    </contour>
    <contour>
      <point x="262" y="606" type="move" name="Anchor-0"/>
    </contour>
    <contour>
      <point x="65" y="606" type="line"/>
      <point x="306" y="606" type="line" smooth="yes"/>
      <point x="424" y="606"/>
      <point x="486" y="539"/>
      <point x="486" y="439" type="curve" smooth="yes"/>
      <point x="486" y="364"/>
      <point x="446" y="306"/>
      <point x="376" y="283" type="curve"/>
      <point x="500" y="0" type="line"/>
      <point x="424" y="0" type="line"/>
      <point x="308" y="272" type="line"/>
      <point x="133" y="272" type="line"/>
      <point x="133" y="0" type="line"/>
      <point x="65" y="0" type="line"/>
    </contour>
    <contour>
      <point x="132" y="335" type="line"/>
      <point x="306" y="335" type="line" smooth="yes"/>
      <point x="370" y="335"/>
      <point x="416" y="377"/>
      <point x="416" y="439" type="curve" smooth="yes"/>
      <point x="416" y="505"/>
      <point x="376" y="545"/>
      <point x="305" y="545" type="curve" smooth="yes"/>
      <point x="132" y="545" type="line"/>
    </contour>
  </outline>
</glyph>
<glyph name="T" format="1">
  <advance width="443"/>
  <unicode hex="0054"/>
  <outline>
    <contour>
      <point x="222" y="0" type="move" name="Anchor-1"/>
    </contour>
    <contour>
      <point x="222" y="606" type="move" name="Anchor-0"/>
    </contour>
    <contour>
      <point x="255" y="545" type="line"/>
      <point x="255" y="0" type="line"/>
      <point x="187" y="0" type="line"/>
      <point x="187" y="545" type="line"/>
      <point x="18" y="545" type="line"/>
      <point x="18" y="606" type="line"/>
      <point x="424" y="606" type="line"/>
      <point x="424" y="545" type="line"/>
    </contour>
  </outline>
</glyph>
<glyph name="U" format="1">
  <advance width="523"/>
  <unicode hex="0055"/>
  <outline>
    <contour>
      <point x="0" y="0" type="move" name="Anchor-1"/>
    </contour>
    <contour>
      <point x="262" y="606" type="move" name="Anchor-0"/>
    </contour>
    <contour>
      <point x="458" y="606" type="line"/>
      <point x="458" y="199" type="line" smooth="yes"/>
      <point x="458" y="62"/>
      <point x="384" y="-11"/>
      <point x="262" y="-11" type="curve" smooth="yes"/>
      <point x="138" y="-11"/>
      <point x="64" y="62"/>
      <point x="64" y="199" type="curve" smooth="yes"/>
      <point x="64" y="606" type="line"/>
      <point x="132" y="606" type="line"/>
      <point x="132" y="193" type="line" smooth="yes"/>
      <point x="132" y="102"/>
      <point x="181" y="53"/>
      <point x="262" y="53" type="curve" smooth="yes"/>
      <point x="342" y="53"/>
      <point x="392" y="102"/>
      <point x="392" y="193" type="curve" smooth="yes"/>
      <point x="392" y="606" type="line"/>
    </contour>
  </outline>
</glyph>
<glyph name="X" format="1">
  <advance width="484"/>
  <unicode hex="0058"/>
  <outline>
    <contour>
      <point x="397" y="0" type="line"/>
      <point x="239" y="251" type="line"/>
      <point x="78" y="0" type="line"/>
      <point x="5" y="0" type="line"/>
      <point x="204" y="314" type="line"/>
      <point x="22" y="606" type="line"/>
      <point x="104" y="606" type="line"/>
      <point x="244" y="385" type="line"/>
      <point x="385" y="606" type="line"/>
      <point x="459" y="606" type="line"/>
      <point x="277" y="323" type="line"/>
      <point x="479" y="0" type="line"/>
    </contour>
  </outline>
</glyph>
<glyph name="Y" format="1">
  <advance width="484"/>
  <unicode hex="0059"/>
  <outline>
    <contour>
      <point x="0" y="0" type="move" name="Anchor-1"/>
    </contour>
    <contour>
      <point x="242" y="606" type="move" name="Anchor-0"/>
    </contour>
    <contour>
      <point x="208" y="0" type="line"/>
      <point x="208" y="257" type="line"/>
      <point x="9" y="606" type="line"/>
      <point x="85" y="606" type="line"/>
      <point x="248" y="321" type="line"/>
      <point x="251" y="321" type="line"/>
      <point x="410" y="606" type="line"/>
      <point x="474" y="606" type="line"/>
      <point x="276" y="257" type="line"/>
      <point x="276" y="0" type="line"/>
    </contour>
  </outline>
</glyph>
<glyph name="bracketright" format="1">
  <advance width="191"/>
  <unicode hex="005D"/>
  <outline>
    <contour>
      <point x="17" y="-93" type="line"/>
      <point x="90" y="-93" type="line"/>
      <point x="90" y="600" type="line"/>
      <point x="17" y="600" type="line"/>
      <point x="17" y="650" type="line"/>
      <point x="146" y="650" type="line"/>
      <point x="146" y="-142" type="line"/>
      <point x="17" y="-142" type="line"/>
    </contour>
  </outline>
</glyph>
<glyph name="asciicircum" format="1">
  <advance width="316"/>
  <unicode hex="005E"/>
  <outline>
    <contour>
      <point x="159" y="549" type="line"/>
      <point x="70" y="260" type="line"/>
      <point x="-3" y="260" type="line"/>
      <point x="112" y="606" type="line"/>
      <point x="205" y="606" type="line"/>
      <point x="321" y="260" type="line"/>
      <point x="248" y="260" type="line"/>
    </contour>
  </outline>
</glyph>
<glyph name="grave" format="1">
  <advance width="241"/>
  <unicode hex="0060"/>
  <outline>
    <contour>
      <point x="25" y="636" type="line"/>
      <point x="26" y="639" type="line"/>
      <point x="97" y="639" type="line"/>
      <point x="173" y="522" type="line"/>
      <point x="120" y="522" type="line"/>
    </contour>
  </outline>
</glyph>
<glyph name="l" format="1">
  <advance width="149"/>
  <unicode hex="006C"/>
  <outline>
    <contour>
      <point x="74" y="0" type="move" name="Anchor-1"/>
    </contour>
    <contour>
      <point x="74" y="465" type="move" name="Anchor-0"/>
    </contour>
    <contour>
      <point x="43" y="639" type="line"/>
      <point x="106" y="639" type="line"/>
      <point x="106" y="0" type="line"/>
      <point x="43" y="0" type="line"/>
    </contour>
  </outline>
</glyph>
<glyph name="m" format="1">
  <advance width="592"/>
  <unicode hex="006D"/>
  <outline>
    <contour>
      <point x="428" y="476" type="curve" smooth="yes"/>
      <point x="494" y="476"/>
      <point x="537" y="438"/>
      <point x="537" y="338" type="curve" smooth="yes"/>
      <point x="537" y="0" type="line"/>
      <point x="474" y="0" type="line"/>
      <point x="474" y="340" type="line" smooth="yes"/>
      <point x="474" y="405"/>
      <point x="446" y="420"/>
      <point x="411" y="420" type="curve" smooth="yes"/>
      <point x="366" y="420"/>
      <point x="328" y="370"/>
      <point x="328" y="281" type="curve" smooth="yes"/>
      <point x="328" y="0" type="line"/>
      <point x="264" y="0" type="line"/>
      <point x="264" y="340" type="line" smooth="yes"/>
      <point x="264" y="405"/>
      <point x="236" y="420"/>
      <point x="202" y="420" type="curve" smooth="yes"/>
      <point x="157" y="420"/>
      <point x="117" y="371"/>
      <point x="117" y="283" type="curve" smooth="yes"/>
      <point x="117" y="0" type="line"/>
      <point x="54" y="0" type="line"/>
      <point x="54" y="465" type="line"/>
      <point x="99" y="465" type="line"/>
      <point x="109" y="412" type="line"/>
      <point x="114" y="412" type="line"/>
      <point x="140" y="461"/>
      <point x="177" y="476"/>
      <point x="219" y="476" type="curve" smooth="yes"/>
      <point x="265" y="476"/>
      <point x="301" y="456"/>
      <point x="318" y="408" type="curve"/>
      <point x="343" y="456"/>
      <point x="388" y="476"/>
    </contour>
  </outline>
</glyph>
<glyph name="x" format="1">
  <advance width="350"/>
  <unicode hex="0078"/>
  <outline>
    <contour>
      <point x="267" y="0" type="line"/>
      <point x="173" y="176" type="line"/>
      <point x="75" y="0" type="line"/>
      <point x="5" y="0" type="line"/>
      <point x="141" y="234" type="line"/>
      <point x="10" y="465" type="line"/>
      <point x="88" y="465" type="line"/>
      <point x="175" y="299" type="line"/>
      <point x="267" y="465" type="line"/>
      <point x="339" y="465" type="line"/>
      <point x="207" y="240" type="line"/>
      <point x="344" y="0" type="line"/>
    </contour>
  </outline>
</glyph>
<glyph name="braceleft" format="1">
  <advance width="230"/>
  <unicode hex="007B"/>
  <outline>
    <contour>
      <point x="214" y="650" type="curve"/>
      <point x="214" y="604" type="line"/>
      <point x="181" y="604"/>
      <point x="143" y="594"/>
      <point x="143" y="540" type="curve" smooth="yes"/>
      <point x="143" y="478"/>
      <point x="140" y="417"/>
      <point x="138" y="354" type="curve" smooth="yes"/>
      <point x="135" y="294"/>
      <point x="117" y="259"/>
      <point x="65" y="259" type="curve"/>
      <point x="65" y="250" type="line"/>
      <point x="117" y="250"/>
      <point x="136" y="215"/>
      <point x="138" y="155" type="curve" smooth="yes"/>
      <point x="140" y="92"/>
      <point x="143" y="32"/>
      <point x="143" y="-29" type="curve" smooth="yes"/>
      <point x="143" y="-85"/>
      <point x="181" y="-95"/>
      <point x="214" y="-95" type="curve"/>
      <point x="214" y="-141" type="line"/>
      <point x="145" y="-141"/>
      <point x="85" y="-121"/>
      <point x="85" y="-10" type="curve" smooth="yes"/>
      <point x="85" y="165" type="line" smooth="yes"/>
      <point x="85" y="205"/>
      <point x="49" y="218"/>
      <point x="17" y="218" type="curve"/>
      <point x="17" y="291" type="line"/>
      <point x="49" y="291"/>
      <point x="85" y="304"/>
      <point x="85" y="344" type="curve" smooth="yes"/>
      <point x="85" y="519" type="line" smooth="yes"/>
      <point x="85" y="630"/>
      <point x="145" y="650"/>
    </contour>
  </outline>
</glyph>
<glyph name="bar" format="1">
  <advance width="184"/>
  <unicode hex="007C"/>
  <outline>
    <contour>
      <point x="58" y="639" type="line"/>
      <point x="125" y="639" type="line"/>
      <point x="125" y="-153" type="line"/>
      <point x="58" y="-153" type="line"/>
    </contour>
  </outline>
</glyph>
<glyph name="asciitilde" format="1">
  <advance width="423"/>
  <unicode hex="007E"/>
  <outline>
    <contour>
      <point x="390" y="339" type="curve"/>
      <point x="390" y="266" type="line"/>
      <point x="390" y="266"/>
      <point x="356" y="201"/>
      <point x="287" y="201" type="curve" smooth="yes"/>
      <point x="233" y="201"/>
      <point x="192" y="255"/>
      <point x="136" y="255" type="curve" smooth="yes"/>
      <point x="75" y="255"/>
      <point x="33" y="191"/>
      <point x="33" y="191" type="curve"/>
      <point x="33" y="264" type="line"/>
      <point x="33" y="264"/>
      <point x="66" y="328"/>
      <point x="136" y="328" type="curve" smooth="yes"/>
      <point x="190" y="328"/>
      <point x="232" y="274"/>
      <point x="287" y="274" type="curve" smooth="yes"/>
      <point x="347" y="274"/>
      <point x="390" y="339"/>
    </contour>
  </outline>
</glyph>
<glyph name="exclamdown" format="1">
  <advance width="241"/>
  <unicode hex="00A1"/>
  <outline>
    <contour>
      <point x="105" y="378" type="line"/>
      <point x="105" y="465" type="line"/>
      <point x="183" y="465" type="line"/>
      <point x="183" y="378" type="line"/>
    </contour>
    <contour>
      <point x="117" y="321" type="curve"/>
      <point x="167" y="321" type="line"/>
      <point x="174" y="156"/>
      <point x="185" y="-119"/>
      <point x="188" y="-141" type="curve"/>
      <point x="98" y="-141" type="line"/>
      <point x="106" y="12"/>
      <point x="112" y="168"/>
    </contour>
  </outline>
</glyph>
<glyph name="sterling" format="1">
  <advance width="403"/>
  <unicode hex="00A3"/>
  <outline>
    <contour>
      <point x="223" y="617" type="curve" smooth="yes"/>
      <point x="306" y="617"/>
      <point x="360" y="576"/>
      <point x="360" y="446" type="curve" smooth="yes"/>
      <point x="360" y="434" type="line"/>
      <point x="298" y="434" type="line"/>
      <point x="298" y="445" type="line" smooth="yes"/>
      <point x="298" y="525"/>
      <point x="272" y="559"/>
      <point x="223" y="559" type="curve" smooth="yes"/>
      <point x="175" y="559"/>
      <point x="150" y="526"/>
      <point x="150" y="452" type="curve" smooth="yes"/>
      <point x="150" y="328" type="line"/>
      <point x="270" y="328" type="line"/>
      <point x="270" y="273" type="line"/>
      <point x="149" y="273" type="line"/>
      <point x="141" y="63" type="line"/>
      <point x="362" y="63" type="line"/>
      <point x="362" y="0" type="line"/>
      <point x="30" y="0" type="line"/>
      <point x="30" y="63" type="line"/>
      <point x="85" y="63" type="line"/>
      <point x="85" y="273" type="line"/>
      <point x="20" y="273" type="line"/>
      <point x="20" y="328" type="line"/>
      <point x="85" y="328" type="line"/>
      <point x="85" y="441" type="line" smooth="yes"/>
      <point x="85" y="559"/>
      <point x="136" y="617"/>
    </contour>
  </outline>
</glyph>
<glyph name="yen" format="1">
  <advance width="403"/>
  <unicode hex="00A5"/>
  <outline>
    <contour>
      <point x="381" y="269" type="line"/>
      <point x="235" y="269" type="line"/>
      <point x="235" y="207" type="line"/>
      <point x="381" y="207" type="line"/>
      <point x="381" y="153" type="line"/>
      <point x="235" y="153" type="line"/>
      <point x="235" y="0" type="line"/>
      <point x="167" y="0" type="line"/>
      <point x="167" y="153" type="line"/>
      <point x="21" y="153" type="line"/>
      <point x="21" y="207" type="line"/>
      <point x="167" y="207" type="line"/>
      <point x="167" y="269" type="line"/>
      <point x="21" y="269" type="line"/>
      <point x="21" y="322" type="line"/>
      <point x="140" y="322" type="line"/>
      <point x="1" y="606" type="line"/>
      <point x="76" y="606" type="line"/>
      <point x="207" y="339" type="line"/>
      <point x="211" y="339" type="line"/>
      <point x="338" y="606" type="line"/>
      <point x="400" y="606" type="line"/>
      <point x="262" y="322" type="line"/>
      <point x="381" y="322" type="line"/>
    </contour>
  </outline>
</glyph>
<glyph name="brokenbar" format="1">
  <advance width="184"/>
  <unicode hex="00A6"/>
  <outline>
    <contour>
      <point x="58" y="639" type="line"/>
      <point x="125" y="639" type="line"/>
      <point x="125" y="301" type="line"/>
      <point x="58" y="301" type="line"/>
    </contour>
    <contour>
      <point x="58" y="185" type="line"/>
      <point x="125" y="185" type="line"/>
      <point x="125" y="-153" type="line"/>
      <point x="58" y="-153" type="line"/>
    </contour>
  </outline>
</glyph>
<glyph name="section" format="1">
  <advance width="403"/>
  <unicode hex="00A7"/>
  <outline>
    <contour>
      <point x="215" y="617" type="curve" smooth="yes"/>
      <point x="301" y="617"/>
      <point x="341" y="556"/>
      <point x="341" y="490" type="curve" smooth="yes"/>
      <point x="341" y="474" type="line"/>
      <point x="274" y="474" type="line"/>
      <point x="274" y="484" type="line"/>
      <point x="275" y="518"/>
      <point x="261" y="560"/>
      <point x="207" y="560" type="curve" smooth="yes"/>
      <point x="150" y="560"/>
      <point x="141" y="516"/>
      <point x="141" y="492" type="curve" smooth="yes"/>
      <point x="141" y="356"/>
      <point x="349" y="388"/>
      <point x="349" y="209" type="curve" smooth="yes"/>
      <point x="349" y="149"/>
      <point x="314" y="111"/>
      <point x="285" y="92" type="curve"/>
      <point x="316" y="65"/>
      <point x="341" y="29"/>
      <point x="341" y="-31" type="curve" smooth="yes"/>
      <point x="341" y="-110"/>
      <point x="293" y="-161"/>
      <point x="202" y="-161" type="curve" smooth="yes"/>
      <point x="117" y="-161"/>
      <point x="76" y="-100"/>
      <point x="76" y="-34" type="curve" smooth="yes"/>
      <point x="76" y="-28"/>
      <point x="77" y="-20"/>
      <point x="77" y="-18" type="curve"/>
      <point x="142" y="-18" type="line"/>
      <point x="142" y="-28" type="line" smooth="yes"/>
      <point x="142" y="-62"/>
      <point x="156" y="-104"/>
      <point x="211" y="-104" type="curve" smooth="yes"/>
      <point x="266" y="-104"/>
      <point x="275" y="-60"/>
      <point x="275" y="-36" type="curve" smooth="yes"/>
      <point x="275" y="100"/>
      <point x="68" y="68"/>
      <point x="68" y="247" type="curve" smooth="yes"/>
      <point x="68" y="307"/>
      <point x="102" y="345"/>
      <point x="131" y="363" type="curve"/>
      <point x="99" y="390"/>
      <point x="76" y="427"/>
      <point x="76" y="486" type="curve" smooth="yes"/>
      <point x="76" y="566"/>
      <point x="124" y="617"/>
    </contour>
    <contour>
      <point x="162" y="340" type="curve"/>
      <point x="141" y="326"/>
      <point x="129" y="299"/>
      <point x="129" y="262" type="curve" smooth="yes"/>
      <point x="129" y="179"/>
      <point x="195" y="153"/>
      <point x="254" y="115" type="curve"/>
      <point x="274" y="130"/>
      <point x="288" y="157"/>
      <point x="288" y="194" type="curve" smooth="yes"/>
      <point x="288" y="277"/>
      <point x="221" y="303"/>
    </contour>
  </outline>
</glyph>
<glyph name="dieresis" format="1">
  <advance width="241"/>
  <unicode hex="00A8"/>
  <outline>
    <contour>
      <point x="21" y="639" type="line"/>
      <point x="94" y="639" type="line"/>
      <point x="94" y="559" type="line"/>
      <point x="21" y="559" type="line"/>
    </contour>
    <contour>
      <point x="148" y="639" type="line"/>
      <point x="220" y="639" type="line"/>
      <point x="220" y="559" type="line"/>
      <point x="148" y="559" type="line"/>
    </contour>
  </outline>
</glyph>
<glyph name="ordfeminine" format="1">
  <advance width="268"/>
  <unicode hex="00AA"/>
  <outline>
    <contour>
      <point x="261" y="362" type="line"/>
      <point x="261" y="331" type="line"/>
      <point x="255" y="326"/>
      <point x="244" y="324"/>
      <point x="231" y="324" type="curve" smooth="yes"/>
      <point x="206" y="324"/>
      <point x="188" y="337"/>
      <point x="181" y="359" type="curve"/>
      <point x="164" y="335"/>
      <point x="135" y="320"/>
      <point x="105" y="320" type="curve" smooth="yes"/>
      <point x="73" y="320"/>
      <point x="20" y="331"/>
      <point x="20" y="409" type="curve" smooth="yes"/>
      <point x="20" y="499"/>
      <point x="88" y="515"/>
      <point x="180" y="515" type="curve"/>
      <point x="180" y="555" type="line" smooth="yes"/>
      <point x="180" y="587"/>
      <point x="168" y="609"/>
      <point x="127" y="609" type="curve" smooth="yes"/>
      <point x="90" y="609"/>
      <point x="76" y="581"/>
      <point x="76" y="554" type="curve" smooth="yes"/>
      <point x="76" y="545" type="line"/>
      <point x="31" y="545" type="line"/>
      <point x="31" y="561" type="line" smooth="yes"/>
      <point x="31" y="622"/>
      <point x="73" y="650"/>
      <point x="132" y="650" type="curve" smooth="yes"/>
      <point x="193" y="650"/>
      <point x="225" y="618"/>
      <point x="225" y="562" type="curve" smooth="yes"/>
      <point x="225" y="380" type="line" smooth="yes"/>
      <point x="225" y="366"/>
      <point x="233" y="362"/>
      <point x="239" y="362" type="curve" smooth="yes"/>
    </contour>
    <contour>
      <point x="111" y="362" type="curve" smooth="yes"/>
      <point x="139" y="362"/>
      <point x="180" y="386"/>
      <point x="180" y="440" type="curve" smooth="yes"/>
      <point x="180" y="470" type="line"/>
      <point x="112" y="470"/>
      <point x="67" y="461"/>
      <point x="67" y="411" type="curve" smooth="yes"/>
      <point x="67" y="373"/>
      <point x="83" y="362"/>
    </contour>
  </outline>
</glyph>
<glyph name="guillemotleft" format="1">
  <advance width="403"/>
  <unicode hex="00AB"/>
  <outline>
    <contour>
      <point x="182" y="111" type="line"/>
      <point x="57" y="288" type="line"/>
      <point x="182" y="465" type="line"/>
      <point x="240" y="465" type="line"/>
      <point x="139" y="288" type="line"/>
      <point x="240" y="111" type="line"/>
    </contour>
    <contour>
      <point x="310" y="111" type="line"/>
      <point x="182" y="288" type="line"/>
      <point x="310" y="465" type="line"/>
      <point x="366" y="465" type="line"/>
      <point x="266" y="288" type="line"/>
      <point x="366" y="111" type="line"/>
    </contour>
  </outline>
</glyph>
<glyph name="logicalnot" format="1">
  <advance width="423"/>
  <unicode hex="00AC"/>
  <outline>
    <contour>
      <point x="312" y="321" type="line"/>
      <point x="36" y="321" type="line"/>
      <point x="36" y="397" type="line"/>
      <point x="382" y="397" type="line"/>
      <point x="382" y="177" type="line"/>
      <point x="312" y="177" type="line"/>
    </contour>
  </outline>
</glyph>
<glyph name="registered" format="1">
  <advance width="534"/>
  <unicode hex="00AE"/>
  <outline>
    <contour>
      <point x="267" y="617" type="curve" smooth="yes"/>
      <point x="421" y="617"/>
      <point x="513" y="494"/>
      <point x="513" y="303" type="curve" smooth="yes"/>
      <point x="513" y="112"/>
      <point x="421" y="-11"/>
      <point x="267" y="-11" type="curve" smooth="yes"/>
      <point x="112" y="-11"/>
      <point x="20" y="112"/>
      <point x="20" y="303" type="curve" smooth="yes"/>
      <point x="20" y="494"/>
      <point x="112" y="617"/>
    </contour>
    <contour>
      <point x="267" y="577" type="curve" smooth="yes"/>
      <point x="138" y="577"/>
      <point x="58" y="470"/>
      <point x="58" y="303" type="curve" smooth="yes"/>
      <point x="58" y="137"/>
      <point x="138" y="29"/>
      <point x="267" y="29" type="curve" smooth="yes"/>
      <point x="397" y="29"/>
      <point x="477" y="137"/>
      <point x="477" y="303" type="curve" smooth="yes"/>
      <point x="477" y="470"/>
      <point x="397" y="577"/>
    </contour>
    <contour>
      <point x="154" y="487" type="line"/>
      <point x="297" y="487" type="line" smooth="yes"/>
      <point x="347" y="487"/>
      <point x="385" y="451"/>
      <point x="385" y="398" type="curve" smooth="yes"/>
      <point x="385" y="356"/>
      <point x="360" y="325"/>
      <point x="329" y="315" type="curve"/>
      <point x="329" y="311" type="line"/>
      <point x="338" y="308"/>
      <point x="384" y="286"/>
      <point x="384" y="218" type="curve" smooth="yes"/>
      <point x="384" y="166"/>
      <point x="391" y="155"/>
      <point x="407" y="149" type="curve"/>
      <point x="407" y="134" type="line"/>
      <point x="404" y="133"/>
      <point x="393" y="130"/>
      <point x="385" y="130" type="curve" smooth="yes"/>
      <point x="360" y="130"/>
      <point x="339" y="146"/>
      <point x="339" y="197" type="curve" smooth="yes"/>
      <point x="339" y="272"/>
      <point x="304" y="291"/>
      <point x="280" y="291" type="curve" smooth="yes"/>
      <point x="196" y="291" type="line"/>
      <point x="196" y="133" type="line"/>
      <point x="154" y="133" type="line"/>
    </contour>
    <contour>
      <point x="196" y="330" type="line"/>
      <point x="281" y="330" type="line" smooth="yes"/>
      <point x="318" y="330"/>
      <point x="340" y="355"/>
      <point x="340" y="390" type="curve" smooth="yes"/>
      <point x="340" y="427"/>
      <point x="317" y="446"/>
      <point x="283" y="446" type="curve" smooth="yes"/>
      <point x="196" y="446" type="line"/>
    </contour>
  </outline>
</glyph>
<glyph name="macron" format="1">
  <advance width="241"/>
  <unicode hex="00AF"/>
  <outline>
    <contour>
      <point x="12" y="589" type="line"/>
      <point x="232" y="589" type="line"/>
      <point x="232" y="530" type="line"/>
      <point x="12" y="530" type="line"/>
    </contour>
  </outline>
</glyph>
<glyph name="twosuperior" format="1">
  <advance width="241"/>
  <unicode hex="00B2"/>
  <outline>
    <contour>
      <point x="23" y="299" type="line" smooth="yes"/>
      <point x="23" y="407"/>
      <point x="168" y="457"/>
      <point x="168" y="553" type="curve" smooth="yes"/>
      <point x="168" y="574"/>
      <point x="160" y="601"/>
      <point x="125" y="601" type="curve" smooth="yes"/>
      <point x="92" y="601"/>
      <point x="80" y="573"/>
      <point x="80" y="539" type="curve" smooth="yes"/>
      <point x="80" y="511" type="line"/>
      <point x="29" y="511" type="line"/>
      <point x="29" y="511"/>
      <point x="27" y="528"/>
      <point x="27" y="538" type="curve" smooth="yes"/>
      <point x="27" y="617"/>
      <point x="73" y="650"/>
      <point x="125" y="650" type="curve" smooth="yes"/>
      <point x="178" y="650"/>
      <point x="222" y="622"/>
      <point x="222" y="553" type="curve" smooth="yes"/>
      <point x="222" y="498"/>
      <point x="178" y="446"/>
      <point x="142" y="407" type="curve" smooth="yes"/>
      <point x="123" y="388"/>
      <point x="97" y="365"/>
      <point x="85" y="338" type="curve"/>
      <point x="222" y="338" type="line"/>
      <point x="222" y="286" type="line"/>
      <point x="23" y="286" type="line"/>
    </contour>
  </outline>
</glyph>
<glyph name="acute" format="1">
  <advance width="241"/>
  <unicode hex="00B4"/>
  <outline>
    <contour>
      <point x="65" y="522" type="line"/>
      <point x="141" y="639" type="line"/>
      <point x="213" y="639" type="line"/>
      <point x="214" y="636" type="line"/>
      <point x="118" y="522" type="line"/>
    </contour>
  </outline>
</glyph>
<glyph name="paragraph" format="1">
  <advance width="385"/>
  <unicode hex="00B6"/>
  <outline>
    <contour>
      <point x="320" y="-153" type="line"/>
      <point x="266" y="-153" type="line"/>
      <point x="266" y="556" type="line"/>
      <point x="219" y="556" type="line"/>
      <point x="219" y="-153" type="line"/>
      <point x="165" y="-153" type="line"/>
      <point x="165" y="221" type="line"/>
      <point x="80" y="232"/>
      <point x="16" y="313"/>
      <point x="16" y="413" type="curve" smooth="yes"/>
      <point x="16" y="520"/>
      <point x="91" y="606"/>
      <point x="186" y="606" type="curve" smooth="yes"/>
      <point x="362" y="606" type="line"/>
      <point x="362" y="556" type="line"/>
      <point x="320" y="556" type="line"/>
    </contour>
  </outline>
</glyph>
<glyph name="periodcentered" format="1">
  <advance width="202"/>
  <unicode hex="00B7"/>
  <outline>
    <contour>
      <point x="59" y="350" type="line"/>
      <point x="143" y="350" type="line"/>
      <point x="143" y="258" type="line"/>
      <point x="59" y="258" type="line"/>
    </contour>
  </outline>
</glyph>
<glyph name="onesuperior" format="1">
  <advance width="241"/>
  <unicode hex="00B9"/>
  <outline>
    <contour>
      <point x="226" y="286" type="line"/>
      <point x="37" y="286" type="line"/>
      <point x="37" y="334" type="line"/>
      <point x="108" y="334" type="line"/>
      <point x="108" y="568" type="line"/>
      <point x="36" y="568" type="line"/>
      <point x="36" y="603" type="line"/>
      <point x="64" y="607"/>
      <point x="109" y="621"/>
      <point x="135" y="640" type="curve"/>
      <point x="159" y="640" type="line"/>
      <point x="159" y="334" type="line"/>
      <point x="226" y="334" type="line"/>
    </contour>
  </outline>
</glyph>
<glyph name="guillemotright" format="1">
  <advance width="403"/>
  <unicode hex="00BB"/>
  <outline>
    <contour>
      <point x="37" y="111" type="line"/>
      <point x="137" y="288" type="line"/>
      <point x="37" y="465" type="line"/>
      <point x="94" y="465" type="line"/>
      <point x="221" y="288" type="line"/>
      <point x="94" y="111" type="line"/>
    </contour>
    <contour>
      <point x="163" y="111" type="line"/>
      <point x="264" y="288" type="line"/>
      <point x="163" y="465" type="line"/>
      <point x="221" y="465" type="line"/>
      <point x="346" y="288" type="line"/>
      <point x="221" y="111" type="line"/>
    </contour>
  </outline>
</glyph>
<glyph name="onehalf" format="1">
  <advance width="605"/>
  <unicode hex="00BD"/>
  <outline>
    <contour>
      <point x="460" y="617" type="line"/>
      <point x="513" y="617" type="line"/>
      <point x="142" y="-11" type="line"/>
      <point x="87" y="-11" type="line"/>
    </contour>
    <contour>
      <point x="215" y="251" type="line"/>
      <point x="28" y="251" type="line"/>
      <point x="28" y="299" type="line"/>
      <point x="99" y="299" type="line"/>
      <point x="99" y="534" type="line"/>
      <point x="27" y="534" type="line"/>
      <point x="27" y="568" type="line"/>
      <point x="55" y="573"/>
      <point x="100" y="588"/>
      <point x="126" y="606" type="curve"/>
      <point x="150" y="606" type="line"/>
      <point x="150" y="299" type="line"/>
      <point x="215" y="299" type="line"/>
    </contour>
    <contour>
      <point x="465" y="365" type="curve" smooth="yes"/>
      <point x="517" y="365"/>
      <point x="561" y="338"/>
      <point x="561" y="268" type="curve" smooth="yes"/>
      <point x="561" y="213"/>
      <point x="518" y="161"/>
      <point x="481" y="124" type="curve" smooth="yes"/>
      <point x="462" y="102"/>
      <point x="436" y="81"/>
      <point x="424" y="53" type="curve"/>
      <point x="562" y="53" type="line"/>
      <point x="562" y="0" type="line"/>
      <point x="362" y="0" type="line"/>
      <point x="362" y="13" type="line" smooth="yes"/>
      <point x="362" y="62"/>
      <point x="390" y="99"/>
      <point x="421" y="132" type="curve" smooth="yes"/>
      <point x="461" y="175"/>
      <point x="506" y="214"/>
      <point x="506" y="268" type="curve" smooth="yes"/>
      <point x="506" y="289"/>
      <point x="497" y="316"/>
      <point x="464" y="316" type="curve" smooth="yes"/>
      <point x="431" y="316"/>
      <point x="419" y="287"/>
      <point x="419" y="255" type="curve" smooth="yes"/>
      <point x="419" y="226" type="line"/>
      <point x="367" y="226" type="line"/>
      <point x="367" y="226"/>
      <point x="366" y="242"/>
      <point x="366" y="254" type="curve" smooth="yes"/>
      <point x="366" y="331"/>
      <point x="411" y="365"/>
    </contour>
  </outline>
</glyph>
<glyph name="Eacute" format="1">
  <advance width="484"/>
  <unicode hex="00C9"/>
  <outline>
    <contour>
      <point x="244" y="664" type="line"/>
      <point x="191" y="664" type="line"/>
      <point x="267" y="781" type="line"/>
      <point x="339" y="781" type="line"/>
      <point x="340" y="778" type="line"/>
    </contour>
    <contour>
      <point x="133" y="545" type="line"/>
      <point x="133" y="342" type="line"/>
      <point x="396" y="342" type="line"/>
      <point x="396" y="279" type="line"/>
      <point x="133" y="279" type="line"/>
      <point x="133" y="62" type="line"/>
      <point x="440" y="62" type="line"/>
      <point x="440" y="0" type="line"/>
      <point x="65" y="0" type="line"/>
      <point x="65" y="606" type="line"/>
      <point x="435" y="606" type="line"/>
      <point x="435" y="545" type="line"/>
    </contour>
  </outline>
</glyph>
<glyph name="Ecircumflex" format="1">
  <advance width="484"/>
  <unicode hex="00CA"/>
  <outline>
    <contour>
      <point x="242" y="732" type="line"/>
      <point x="202" y="660" type="line"/>
      <point x="135" y="660" type="line"/>
      <point x="211" y="780" type="line"/>
      <point x="275" y="780" type="line"/>
      <point x="350" y="660" type="line"/>
      <point x="281" y="660" type="line"/>
    </contour>
    <contour>
      <point x="435" y="606" type="line"/>
      <point x="435" y="545" type="line"/>
      <point x="133" y="545" type="line"/>
      <point x="133" y="342" type="line"/>
      <point x="396" y="342" type="line"/>
      <point x="396" y="279" type="line"/>
      <point x="133" y="279" type="line"/>
      <point x="133" y="62" type="line"/>
      <point x="440" y="62" type="line"/>
      <point x="440" y="0" type="line"/>
      <point x="65" y="0" type="line"/>
      <point x="65" y="606" type="line"/>
    </contour>
  </outline>
</glyph>
<glyph name="Igrave" format="1">
  <advance width="202"/>
  <unicode hex="00CC"/>
  <outline>
    <contour>
      <point x="98" y="664" type="line"/>
      <point x="2" y="778" type="line"/>
      <point x="3" y="781" type="line"/>
      <point x="75" y="781" type="line"/>
      <point x="151" y="664" type="line"/>
    </contour>
    <contour>
      <point x="67" y="0" type="line"/>
      <point x="67" y="606" type="line"/>
      <point x="135" y="606" type="line"/>
      <point x="135" y="0" type="line"/>
    </contour>
  </outline>
</glyph>
<glyph name="Icircumflex" format="1">
  <advance width="202"/>
  <unicode hex="00CE"/>
  <outline>
    <contour>
      <point x="102" y="732" type="line"/>
      <point x="62" y="660" type="line"/>
      <point x="-8" y="660" type="line"/>
      <point x="69" y="780" type="line"/>
      <point x="133" y="780" type="line"/>
      <point x="208" y="660" type="line"/>
      <point x="141" y="660" type="line"/>
    </contour>
    <contour>
      <point x="67" y="606" type="line"/>
      <point x="135" y="606" type="line"/>
      <point x="135" y="0" type="line"/>
      <point x="67" y="0" type="line"/>
    </contour>
  </outline>
</glyph>
<glyph name="Otilde" format="1">
  <advance width="564"/>
  <unicode hex="00D5"/>
  <outline>
    <contour>
      <point x="357" y="781" type="curve"/>
      <point x="405" y="781" type="line"/>
      <point x="405" y="742"/>
      <point x="384" y="694"/>
      <point x="334" y="694" type="curve" smooth="yes"/>
      <point x="297" y="694"/>
      <point x="270" y="719"/>
      <point x="236" y="719" type="curve" smooth="yes"/>
      <point x="221" y="719"/>
      <point x="210" y="713"/>
      <point x="207" y="694" type="curve"/>
      <point x="159" y="694" type="line"/>
      <point x="159" y="731"/>
      <point x="180" y="781"/>
      <point x="230" y="781" type="curve" smooth="yes"/>
      <point x="267" y="781"/>
      <point x="294" y="756"/>
      <point x="327" y="756" type="curve" smooth="yes"/>
      <point x="343" y="756"/>
      <point x="354" y="761"/>
    </contour>
    <contour>
      <point x="282" y="617" type="curve" smooth="yes"/>
      <point x="429" y="617"/>
      <point x="517" y="513"/>
      <point x="517" y="303" type="curve" smooth="yes"/>
      <point x="517" y="94"/>
      <point x="429" y="-11"/>
      <point x="282" y="-11" type="curve" smooth="yes"/>
      <point x="135" y="-11"/>
      <point x="47" y="94"/>
      <point x="47" y="303" type="curve" smooth="yes"/>
      <point x="47" y="513"/>
      <point x="135" y="617"/>
    </contour>
    <contour>
      <point x="282" y="552" type="curve" smooth="yes"/>
      <point x="183" y="552"/>
      <point x="119" y="481"/>
      <point x="119" y="325" type="curve" smooth="yes"/>
      <point x="119" y="281" type="line" smooth="yes"/>
      <point x="119" y="125"/>
      <point x="183" y="53"/>
      <point x="282" y="53" type="curve" smooth="yes"/>
      <point x="382" y="53"/>
      <point x="446" y="125"/>
      <point x="446" y="281" type="curve" smooth="yes"/>
      <point x="446" y="325" type="line" smooth="yes"/>
      <point x="446" y="481"/>
      <point x="382" y="552"/>
    </contour>
  </outline>
</glyph>
<glyph name="Oslash" format="1">
  <advance width="564"/>
  <unicode hex="00D8"/>
  <outline>
    <contour>
      <point x="0" y="0" type="move" name="Anchor-1"/>
    </contour>
    <contour>
      <point x="282" y="606" type="move" name="Anchor-0"/>
    </contour>
    <contour>
      <point x="519" y="639" type="line"/>
      <point x="454" y="538" type="line"/>
      <point x="495" y="485"/>
      <point x="518" y="408"/>
      <point x="518" y="303" type="curve" smooth="yes"/>
      <point x="518" y="94"/>
      <point x="429" y="-11"/>
      <point x="282" y="-11" type="curve" smooth="yes"/>
      <point x="225" y="-11"/>
      <point x="178" y="5"/>
      <point x="140" y="36" type="curve"/>
      <point x="99" y="-33" type="line"/>
      <point x="47" y="-33" type="line"/>
      <point x="110" y="67" type="line"/>
      <point x="69" y="119"/>
      <point x="47" y="199"/>
      <point x="47" y="303" type="curve" smooth="yes"/>
      <point x="47" y="513"/>
      <point x="135" y="617"/>
      <point x="282" y="617" type="curve" smooth="yes"/>
      <point x="339" y="617"/>
      <point x="387" y="601"/>
      <point x="425" y="570" type="curve"/>
      <point x="467" y="639" type="line"/>
    </contour>
    <contour>
      <point x="282" y="552" type="curve" smooth="yes"/>
      <point x="183" y="552"/>
      <point x="119" y="481"/>
      <point x="119" y="325" type="curve" smooth="yes"/>
      <point x="119" y="281" type="line" smooth="yes"/>
      <point x="119" y="217"/>
      <point x="129" y="167"/>
      <point x="149" y="131" type="curve"/>
      <point x="388" y="511" type="line"/>
      <point x="359" y="540"/>
      <point x="325" y="552"/>
    </contour>
    <contour>
      <point x="415" y="476" type="curve"/>
      <point x="176" y="93" type="line"/>
      <point x="204" y="66"/>
      <point x="239" y="53"/>
      <point x="282" y="53" type="curve" smooth="yes"/>
      <point x="381" y="53"/>
      <point x="445" y="125"/>
      <point x="445" y="281" type="curve" smooth="yes"/>
      <point x="445" y="325" type="line" smooth="yes"/>
      <point x="445" y="389"/>
      <point x="435" y="439"/>
    </contour>
  </outline>
</glyph>
<glyph name="Ucircumflex" format="1">
  <advance width="523"/>
  <unicode hex="00DB"/>
  <outline>
    <contour>
      <point x="301" y="660" type="line"/>
      <point x="263" y="732" type="line"/>
      <point x="222" y="660" type="line"/>
      <point x="153" y="660" type="line"/>
      <point x="229" y="780" type="line"/>
      <point x="293" y="780" type="line"/>
      <point x="369" y="660" type="line"/>
    </contour>
    <contour>
      <point x="458" y="606" type="line"/>
      <point x="458" y="199" type="line" smooth="yes"/>
      <point x="458" y="62"/>
      <point x="384" y="-11"/>
      <point x="262" y="-11" type="curve" smooth="yes"/>
      <point x="138" y="-11"/>
      <point x="64" y="62"/>
      <point x="64" y="199" type="curve" smooth="yes"/>
      <point x="64" y="606" type="line"/>
      <point x="132" y="606" type="line"/>
      <point x="132" y="193" type="line" smooth="yes"/>
      <point x="132" y="102"/>
      <point x="181" y="53"/>
      <point x="262" y="53" type="curve" smooth="yes"/>
      <point x="342" y="53"/>
      <point x="392" y="102"/>
      <point x="392" y="193" type="curve" smooth="yes"/>
      <point x="392" y="606" type="line"/>
    </contour>
  </outline>
</glyph>
<glyph name="Thorn" format="1">
  <advance width="484"/>
  <unicode hex="00DE"/>
  <outline>
    <contour>
      <point x="133" y="482" type="line"/>
      <point x="281" y="482" type="line" smooth="yes"/>
      <point x="399" y="482"/>
      <point x="460" y="413"/>
      <point x="460" y="307" type="curve" smooth="yes"/>
      <point x="460" y="202"/>
      <point x="393" y="131"/>
      <point x="281" y="131" type="curve" smooth="yes"/>
      <point x="133" y="131" type="line"/>
      <point x="133" y="0" type="line"/>
      <point x="65" y="0" type="line"/>
      <point x="65" y="606" type="line"/>
      <point x="133" y="606" type="line"/>
    </contour>
    <contour>
      <point x="132" y="193" type="line"/>
      <point x="281" y="193" type="line" smooth="yes"/>
      <point x="345" y="193"/>
      <point x="388" y="239"/>
      <point x="388" y="307" type="curve" smooth="yes"/>
      <point x="388" y="378"/>
      <point x="350" y="420"/>
      <point x="281" y="420" type="curve" smooth="yes"/>
      <point x="132" y="420" type="line"/>
    </contour>
  </outline>
</glyph>
<glyph name="germandbls" format="1">
  <advance width="443"/>
  <unicode hex="00DF"/>
  <outline>
    <contour>
      <point x="225" y="650" type="curve" smooth="yes"/>
      <point x="319" y="650"/>
      <point x="389" y="588"/>
      <point x="389" y="484" type="curve" smooth="yes"/>
      <point x="389" y="426"/>
      <point x="354" y="369"/>
      <point x="305" y="349" type="curve"/>
      <point x="305" y="346" type="line"/>
      <point x="365" y="324"/>
      <point x="407" y="257"/>
      <point x="407" y="189" type="curve" smooth="yes"/>
      <point x="407" y="75"/>
      <point x="329" y="0"/>
      <point x="230" y="0" type="curve" smooth="yes"/>
      <point x="161" y="0" type="line"/>
      <point x="161" y="58" type="line"/>
      <point x="224" y="58" type="line" smooth="yes"/>
      <point x="290" y="58"/>
      <point x="342" y="117"/>
      <point x="342" y="190" type="curve" smooth="yes"/>
      <point x="342" y="259"/>
      <point x="290" y="316"/>
      <point x="224" y="316" type="curve" smooth="yes"/>
      <point x="161" y="316" type="line"/>
      <point x="161" y="370" type="line"/>
      <point x="216" y="370" type="line" smooth="yes"/>
      <point x="275" y="370"/>
      <point x="323" y="421"/>
      <point x="323" y="482" type="curve" smooth="yes"/>
      <point x="323" y="549"/>
      <point x="288" y="592"/>
      <point x="220" y="592" type="curve" smooth="yes"/>
      <point x="153" y="592"/>
      <point x="110" y="546"/>
      <point x="110" y="455" type="curve" smooth="yes"/>
      <point x="110" y="0" type="line"/>
      <point x="47" y="0" type="line"/>
      <point x="47" y="455" type="line" smooth="yes"/>
      <point x="47" y="594"/>
      <point x="126" y="650"/>
    </contour>
  </outline>
</glyph>
<glyph name="edieresis" format="1">
  <advance width="403"/>
  <unicode hex="00EB"/>
  <outline>
    <contour>
      <point x="101" y="559" type="line"/>
      <point x="101" y="639" type="line"/>
      <point x="174" y="639" type="line"/>
      <point x="174" y="559" type="line"/>
    </contour>
    <contour>
      <point x="227" y="559" type="line"/>
      <point x="227" y="639" type="line"/>
      <point x="302" y="639" type="line"/>
      <point x="302" y="559" type="line"/>
    </contour>
    <contour>
      <point x="214" y="476" type="curve" smooth="yes"/>
      <point x="313" y="476"/>
      <point x="362" y="417"/>
      <point x="362" y="264" type="curve" smooth="yes"/>
      <point x="362" y="212" type="line"/>
      <point x="106" y="212" type="line"/>
      <point x="107" y="97"/>
      <point x="143" y="48"/>
      <point x="217" y="48" type="curve" smooth="yes"/>
      <point x="265" y="48"/>
      <point x="300" y="90"/>
      <point x="300" y="156" type="curve"/>
      <point x="362" y="156" type="line"/>
      <point x="362" y="57"/>
      <point x="303" y="-11"/>
      <point x="214" y="-11" type="curve" smooth="yes"/>
      <point x="99" y="-11"/>
      <point x="40" y="59"/>
      <point x="40" y="232" type="curve" smooth="yes"/>
      <point x="40" y="400"/>
      <point x="96" y="476"/>
    </contour>
    <contour>
      <point x="214" y="417" type="curve" smooth="yes"/>
      <point x="145" y="417"/>
      <point x="114" y="369"/>
      <point x="107" y="274" type="curve"/>
      <point x="297" y="274" type="line"/>
      <point x="297" y="368"/>
      <point x="269" y="417"/>
    </contour>
  </outline>
</glyph>
<glyph name="igrave" format="1">
  <advance width="202"/>
  <unicode hex="00EC"/>
  <outline>
    <contour>
      <point x="98" y="522" type="line"/>
      <point x="2" y="636" type="line"/>
      <point x="3" y="639" type="line"/>
      <point x="75" y="639" type="line"/>
      <point x="151" y="522" type="line"/>
    </contour>
    <contour>
      <point x="70" y="0" type="line"/>
      <point x="70" y="465" type="line"/>
      <point x="132" y="465" type="line"/>
      <point x="132" y="0" type="line"/>
    </contour>
  </outline>
</glyph>
<glyph name="iacute" format="1">
  <advance width="202"/>
  <unicode hex="00ED"/>
  <outline>
    <contour>
      <point x="105" y="522" type="line"/>
      <point x="52" y="522" type="line"/>
      <point x="128" y="639" type="line"/>
      <point x="198" y="639" type="line"/>
      <point x="199" y="636" type="line"/>
    </contour>
    <contour>
      <point x="70" y="0" type="line"/>
      <point x="70" y="465" type="line"/>
      <point x="132" y="465" type="line"/>
      <point x="132" y="0" type="line"/>
    </contour>
  </outline>
</glyph>
<glyph name="idieresis" format="1">
  <advance width="202"/>
  <unicode hex="00EF"/>
  <outline>
    <contour>
      <point x="1" y="559" type="line"/>
      <point x="1" y="639" type="line"/>
      <point x="75" y="639" type="line"/>
      <point x="75" y="559" type="line"/>
    </contour>
    <contour>
      <point x="128" y="559" type="line"/>
      <point x="128" y="639" type="line"/>
      <point x="201" y="639" type="line"/>
      <point x="201" y="559" type="line"/>
    </contour>
    <contour>
      <point x="70" y="0" type="line"/>
      <point x="70" y="465" type="line"/>
      <point x="132" y="465" type="line"/>
      <point x="132" y="0" type="line"/>
    </contour>
  </outline>
</glyph>
<glyph name="otilde" format="1">
  <advance width="391"/>
  <unicode hex="00F5"/>
  <outline>
    <contour>
      <point x="270" y="639" type="curve"/>
      <point x="320" y="639" type="line"/>
      <point x="320" y="600"/>
      <point x="298" y="552"/>
      <point x="247" y="552" type="curve" smooth="yes"/>
      <point x="211" y="552"/>
      <point x="183" y="578"/>
      <point x="151" y="578" type="curve" smooth="yes"/>
      <point x="135" y="578"/>
      <point x="124" y="572"/>
      <point x="122" y="552" type="curve"/>
      <point x="72" y="552" type="line"/>
      <point x="72" y="590"/>
      <point x="94" y="639"/>
      <point x="145" y="639" type="curve" smooth="yes"/>
      <point x="181" y="639"/>
      <point x="209" y="614"/>
      <point x="241" y="614" type="curve" smooth="yes"/>
      <point x="256" y="614"/>
      <point x="268" y="620"/>
    </contour>
    <contour>
      <point x="196" y="476" type="curve" smooth="yes"/>
      <point x="300" y="476"/>
      <point x="357" y="400"/>
      <point x="357" y="232" type="curve" smooth="yes"/>
      <point x="357" y="65"/>
      <point x="300" y="-11"/>
      <point x="196" y="-11" type="curve" smooth="yes"/>
      <point x="92" y="-11"/>
      <point x="35" y="65"/>
      <point x="35" y="232" type="curve" smooth="yes"/>
      <point x="35" y="400"/>
      <point x="92" y="476"/>
    </contour>
    <contour>
      <point x="196" y="418" type="curve" smooth="yes"/>
      <point x="133" y="418"/>
      <point x="100" y="361"/>
      <point x="100" y="249" type="curve" smooth="yes"/>
      <point x="100" y="216" type="line" smooth="yes"/>
      <point x="100" y="104"/>
      <point x="133" y="47"/>
      <point x="196" y="47" type="curve" smooth="yes"/>
      <point x="257" y="47"/>
      <point x="290" y="104"/>
      <point x="290" y="216" type="curve" smooth="yes"/>
      <point x="290" y="249" type="line" smooth="yes"/>
      <point x="290" y="361"/>
      <point x="257" y="418"/>
    </contour>
  </outline>
</glyph>
<glyph name="odieresis" format="1">
  <advance width="391"/>
  <unicode hex="00F6"/>
  <outline>
    <contour>
      <point x="95" y="559" type="line"/>
      <point x="95" y="639" type="line"/>
      <point x="169" y="639" type="line"/>
      <point x="169" y="559" type="line"/>
    </contour>
    <contour>
      <point x="221" y="559" type="line"/>
      <point x="221" y="639" type="line"/>
      <point x="296" y="639" type="line"/>
      <point x="296" y="559" type="line"/>
    </contour>
    <contour>
      <point x="196" y="476" type="curve" smooth="yes"/>
      <point x="300" y="476"/>
      <point x="357" y="400"/>
      <point x="357" y="232" type="curve" smooth="yes"/>
      <point x="357" y="65"/>
      <point x="300" y="-11"/>
      <point x="196" y="-11" type="curve" smooth="yes"/>
      <point x="92" y="-11"/>
      <point x="35" y="65"/>
      <point x="35" y="232" type="curve" smooth="yes"/>
      <point x="35" y="400"/>
      <point x="92" y="476"/>
    </contour>
    <contour>
      <point x="196" y="418" type="curve" smooth="yes"/>
      <point x="133" y="418"/>
      <point x="100" y="361"/>
      <point x="100" y="249" type="curve" smooth="yes"/>
      <point x="100" y="216" type="line" smooth="yes"/>
      <point x="100" y="104"/>
      <point x="133" y="47"/>
      <point x="196" y="47" type="curve" smooth="yes"/>
      <point x="257" y="47"/>
      <point x="290" y="104"/>
      <point x="290" y="216" type="curve" smooth="yes"/>
      <point x="290" y="249" type="line" smooth="yes"/>
      <point x="290" y="361"/>
      <point x="257" y="418"/>
    </contour>
  </outline>
</glyph>
<glyph name="Abreve" format="1">
  <advance width="473"/>
  <unicode hex="0102"/>
  <outline>
    <contour>
      <point x="288" y="781" type="curve"/>
      <point x="343" y="781" type="line"/>
      <point x="343" y="742"/>
      <point x="302" y="698"/>
      <point x="235" y="698" type="curve" smooth="yes"/>
      <point x="170" y="698"/>
      <point x="130" y="742"/>
      <point x="130" y="781" type="curve"/>
      <point x="183" y="781" type="line"/>
      <point x="186" y="768"/>
      <point x="206" y="751"/>
      <point x="235" y="751" type="curve" smooth="yes"/>
      <point x="265" y="751"/>
      <point x="287" y="768"/>
    </contour>
    <contour>
      <point x="398" y="0" type="line"/>
      <point x="355" y="140" type="line"/>
      <point x="109" y="140" type="line"/>
      <point x="67" y="0" type="line"/>
      <point x="-2" y="0" type="line"/>
      <point x="191" y="606" type="line"/>
      <point x="281" y="606" type="line"/>
      <point x="473" y="0" type="line"/>
    </contour>
    <contour>
      <point x="234" y="554" type="curve"/>
      <point x="231" y="554" type="line"/>
      <point x="231" y="554"/>
      <point x="223" y="508"/>
      <point x="218" y="492" type="curve" smooth="yes"/>
      <point x="129" y="202" type="line"/>
      <point x="336" y="202" type="line"/>
      <point x="248" y="492" type="line"/>
      <point x="242" y="508"/>
      <point x="234" y="554"/>
    </contour>
  </outline>
</glyph>
<glyph name="abreve" format="1">
  <advance width="403"/>
  <unicode hex="0103"/>
  <outline>
    <contour>
      <point x="259" y="639" type="curve"/>
      <point x="312" y="639" type="line"/>
      <point x="312" y="600"/>
      <point x="272" y="555"/>
      <point x="206" y="555" type="curve" smooth="yes"/>
      <point x="139" y="555"/>
      <point x="98" y="600"/>
      <point x="98" y="639" type="curve"/>
      <point x="152" y="639" type="line"/>
      <point x="155" y="627"/>
      <point x="174" y="610"/>
      <point x="206" y="610" type="curve" smooth="yes"/>
      <point x="236" y="610"/>
      <point x="257" y="627"/>
    </contour>
    <contour>
      <point x="198" y="476" type="curve" smooth="yes"/>
      <point x="288" y="476"/>
      <point x="334" y="429"/>
      <point x="334" y="348" type="curve" smooth="yes"/>
      <point x="334" y="78" type="line" smooth="yes"/>
      <point x="334" y="56"/>
      <point x="346" y="47"/>
      <point x="358" y="47" type="curve" smooth="yes"/>
      <point x="389" y="47" type="line"/>
      <point x="389" y="4" type="line"/>
      <point x="382" y="0"/>
      <point x="366" y="-6"/>
      <point x="346" y="-6" type="curve" smooth="yes"/>
      <point x="309" y="-6"/>
      <point x="282" y="17"/>
      <point x="275" y="50" type="curve"/>
      <point x="270" y="50" type="line"/>
      <point x="247" y="12"/>
      <point x="204" y="-11"/>
      <point x="158" y="-11" type="curve" smooth="yes"/>
      <point x="112" y="-11"/>
      <point x="35" y="7"/>
      <point x="35" y="120" type="curve" smooth="yes"/>
      <point x="35" y="249"/>
      <point x="136" y="274"/>
      <point x="271" y="274" type="curve"/>
      <point x="271" y="337" type="line" smooth="yes"/>
      <point x="271" y="385"/>
      <point x="255" y="417"/>
      <point x="191" y="417" type="curve" smooth="yes"/>
      <point x="133" y="417"/>
      <point x="114" y="376"/>
      <point x="114" y="337" type="curve" smooth="yes"/>
      <point x="114" y="327" type="line"/>
      <point x="53" y="327" type="line"/>
      <point x="52" y="332"/>
      <point x="52" y="339"/>
      <point x="52" y="347" type="curve" smooth="yes"/>
      <point x="52" y="433"/>
      <point x="114" y="476"/>
    </contour>
    <contour>
      <point x="272" y="166" type="curve" smooth="yes"/>
      <point x="272" y="212" type="line"/>
      <point x="168" y="212"/>
      <point x="102" y="199"/>
      <point x="102" y="124" type="curve" smooth="yes"/>
      <point x="102" y="64"/>
      <point x="126" y="47"/>
      <point x="168" y="47" type="curve" smooth="yes"/>
      <point x="213" y="47"/>
      <point x="272" y="82"/>
    </contour>
  </outline>
</glyph>
<glyph name="cdotaccent" format="1">
  <advance width="350"/>
  <unicode hex="010B"/>
  <outline>
    <contour>
      <point x="137" y="639" type="line"/>
      <point x="209" y="639" type="line"/>
      <point x="209" y="560" type="line"/>
      <point x="137" y="560" type="line"/>
    </contour>
    <contour>
      <point x="186" y="476" type="curve" smooth="yes"/>
      <point x="287" y="476"/>
      <point x="322" y="408"/>
      <point x="322" y="294" type="curve"/>
      <point x="257" y="294" type="line"/>
      <point x="257" y="378"/>
      <point x="243" y="418"/>
      <point x="186" y="418" type="curve" smooth="yes"/>
      <point x="124" y="418"/>
      <point x="97" y="361"/>
      <point x="97" y="249" type="curve" smooth="yes"/>
      <point x="97" y="216" type="line" smooth="yes"/>
      <point x="97" y="104"/>
      <point x="124" y="47"/>
      <point x="185" y="47" type="curve" smooth="yes"/>
      <point x="241" y="47"/>
      <point x="261" y="90"/>
      <point x="261" y="171" type="curve"/>
      <point x="322" y="171" type="line"/>
      <point x="322" y="84"/>
      <point x="288" y="-11"/>
      <point x="185" y="-11" type="curve" smooth="yes"/>
      <point x="78" y="-11"/>
      <point x="31" y="65"/>
      <point x="31" y="232" type="curve" smooth="yes"/>
      <point x="31" y="400"/>
      <point x="79" y="476"/>
    </contour>
  </outline>
</glyph>
<glyph name="Dcroat" format="1">
  <advance width="523"/>
  <unicode hex="0110"/>
  <outline>
    <contour>
      <point x="65" y="606" type="line"/>
      <point x="250" y="606" type="line" smooth="yes"/>
      <point x="391" y="606"/>
      <point x="477" y="507"/>
      <point x="477" y="312" type="curve" smooth="yes"/>
      <point x="477" y="104"/>
      <point x="391" y="0"/>
      <point x="250" y="0" type="curve" smooth="yes"/>
      <point x="65" y="0" type="line"/>
      <point x="65" y="289" type="line"/>
      <point x="3" y="289" type="line"/>
      <point x="3" y="339" type="line"/>
      <point x="65" y="339" type="line"/>
    </contour>
    <contour>
      <point x="278" y="339" type="line"/>
      <point x="278" y="289" type="line"/>
      <point x="132" y="289" type="line"/>
      <point x="132" y="62" type="line"/>
      <point x="244" y="62" type="line" smooth="yes"/>
      <point x="343" y="62"/>
      <point x="405" y="136"/>
      <point x="405" y="290" type="curve" smooth="yes"/>
      <point x="405" y="334" type="line" smooth="yes"/>
      <point x="405" y="475"/>
      <point x="343" y="545"/>
      <point x="244" y="545" type="curve" smooth="yes"/>
      <point x="132" y="545" type="line"/>
      <point x="132" y="339" type="line"/>
    </contour>
  </outline>
</glyph>
<glyph name="Ebreve" format="1">
  <advance width="484"/>
  <unicode hex="0114"/>
  <outline>
    <contour>
      <point x="294" y="781" type="curve"/>
      <point x="349" y="781" type="line"/>
      <point x="349" y="742"/>
      <point x="308" y="698"/>
      <point x="241" y="698" type="curve" smooth="yes"/>
      <point x="176" y="698"/>
      <point x="136" y="742"/>
      <point x="136" y="781" type="curve"/>
      <point x="189" y="781" type="line"/>
      <point x="192" y="768"/>
      <point x="212" y="751"/>
      <point x="241" y="751" type="curve" smooth="yes"/>
      <point x="271" y="751"/>
      <point x="293" y="768"/>
    </contour>
    <contour>
      <point x="435" y="606" type="line"/>
      <point x="435" y="545" type="line"/>
      <point x="133" y="545" type="line"/>
      <point x="133" y="342" type="line"/>
      <point x="396" y="342" type="line"/>
      <point x="396" y="279" type="line"/>
      <point x="133" y="279" type="line"/>
      <point x="133" y="62" type="line"/>
      <point x="440" y="62" type="line"/>
      <point x="440" y="0" type="line"/>
      <point x="65" y="0" type="line"/>
      <point x="65" y="606" type="line"/>
    </contour>
  </outline>
</glyph>
<glyph name="ebreve" format="1">
  <advance width="403"/>
  <unicode hex="0115"/>
  <outline>
    <contour>
      <point x="255" y="639" type="curve"/>
      <point x="308" y="639" type="line"/>
      <point x="308" y="600"/>
      <point x="268" y="555"/>
      <point x="202" y="555" type="curve" smooth="yes"/>
      <point x="135" y="555"/>
      <point x="94" y="600"/>
      <point x="94" y="639" type="curve"/>
      <point x="149" y="639" type="line"/>
      <point x="152" y="627"/>
      <point x="170" y="610"/>
      <point x="202" y="610" type="curve" smooth="yes"/>
      <point x="232" y="610"/>
      <point x="253" y="627"/>
    </contour>
    <contour>
      <point x="214" y="476" type="curve" smooth="yes"/>
      <point x="313" y="476"/>
      <point x="362" y="417"/>
      <point x="362" y="264" type="curve" smooth="yes"/>
      <point x="362" y="212" type="line"/>
      <point x="106" y="212" type="line"/>
      <point x="107" y="97"/>
      <point x="143" y="48"/>
      <point x="217" y="48" type="curve" smooth="yes"/>
      <point x="265" y="48"/>
      <point x="300" y="90"/>
      <point x="300" y="156" type="curve"/>
      <point x="362" y="156" type="line"/>
      <point x="362" y="57"/>
      <point x="303" y="-11"/>
      <point x="214" y="-11" type="curve" smooth="yes"/>
      <point x="99" y="-11"/>
      <point x="40" y="59"/>
      <point x="40" y="232" type="curve" smooth="yes"/>
      <point x="40" y="400"/>
      <point x="96" y="476"/>
    </contour>
    <contour>
      <point x="214" y="417" type="curve" smooth="yes"/>
      <point x="145" y="417"/>
      <point x="114" y="369"/>
      <point x="107" y="274" type="curve"/>
      <point x="297" y="274" type="line"/>
      <point x="297" y="368"/>
      <point x="269" y="417"/>
    </contour>
  </outline>
</glyph>
<glyph name="Edotaccent" format="1">
  <advance width="484"/>
  <unicode hex="0116"/>
  <outline>
    <contour>
      <point x="206" y="781" type="line"/>
      <point x="278" y="781" type="line"/>
      <point x="278" y="702" type="line"/>
      <point x="206" y="702" type="line"/>
    </contour>
    <contour>
      <point x="435" y="606" type="line"/>
      <point x="435" y="545" type="line"/>
      <point x="133" y="545" type="line"/>
      <point x="133" y="342" type="line"/>
      <point x="396" y="342" type="line"/>
      <point x="396" y="279" type="line"/>
      <point x="133" y="279" type="line"/>
      <point x="133" y="62" type="line"/>
      <point x="440" y="62" type="line"/>
      <point x="440" y="0" type="line"/>
      <point x="65" y="0" type="line"/>
      <point x="65" y="606" type="line"/>
    </contour>
  </outline>
</glyph>
<glyph name="Eogonek" format="1">
  <advance width="484"/>
  <unicode hex="0118"/>
  <outline>
    <contour>
      <point x="133" y="342" type="line"/>
      <point x="396" y="342" type="line"/>
      <point x="396" y="279" type="line"/>
      <point x="133" y="279" type="line"/>
      <point x="133" y="62" type="line"/>
      <point x="440" y="62" type="line"/>
      <point x="440" y="0" type="line"/>
      <point x="430" y="-13"/>
      <point x="421" y="-33"/>
      <point x="421" y="-53" type="curve" smooth="yes"/>
      <point x="421" y="-79"/>
      <point x="432" y="-102"/>
      <point x="462" y="-102" type="curve" smooth="yes"/>
      <point x="492" y="-102" type="line"/>
      <point x="492" y="-147" type="line"/>
      <point x="473" y="-154"/>
      <point x="456" y="-159"/>
      <point x="439" y="-159" type="curve" smooth="yes"/>
      <point x="402" y="-159"/>
      <point x="357" y="-140"/>
      <point x="357" y="-79" type="curve" smooth="yes"/>
      <point x="357" y="-43"/>
      <point x="370" y="-19"/>
      <point x="388" y="0" type="curve"/>
      <point x="65" y="0" type="line"/>
      <point x="65" y="606" type="line"/>
      <point x="435" y="606" type="line"/>
      <point x="435" y="545" type="line"/>
      <point x="133" y="545" type="line"/>
    </contour>
  </outline>
</glyph>
<glyph name="eogonek" format="1">
  <advance width="403"/>
  <unicode hex="0119"/>
  <outline>
    <contour>
      <point x="362" y="212" type="line"/>
      <point x="106" y="212" type="line"/>
      <point x="107" y="97"/>
      <point x="143" y="48"/>
      <point x="217" y="48" type="curve" smooth="yes"/>
      <point x="265" y="48"/>
      <point x="300" y="90"/>
      <point x="300" y="156" type="curve"/>
      <point x="362" y="156" type="line"/>
      <point x="362" y="86"/>
      <point x="333" y="33"/>
      <point x="286" y="7" type="curve"/>
      <point x="275" y="-5"/>
      <point x="260" y="-29"/>
      <point x="260" y="-54" type="curve" smooth="yes"/>
      <point x="260" y="-80"/>
      <point x="271" y="-103"/>
      <point x="300" y="-103" type="curve" smooth="yes"/>
      <point x="331" y="-103" type="line"/>
      <point x="331" y="-148" type="line"/>
      <point x="312" y="-155"/>
      <point x="296" y="-160"/>
      <point x="278" y="-160" type="curve" smooth="yes"/>
      <point x="240" y="-160"/>
      <point x="196" y="-141"/>
      <point x="196" y="-80" type="curve" smooth="yes"/>
      <point x="196" y="-51"/>
      <point x="206" y="-29"/>
      <point x="219" y="-11" type="curve"/>
      <point x="214" y="-11" type="line" smooth="yes"/>
      <point x="99" y="-11"/>
      <point x="40" y="59"/>
      <point x="40" y="232" type="curve" smooth="yes"/>
      <point x="40" y="400"/>
      <point x="96" y="476"/>
      <point x="214" y="476" type="curve" smooth="yes"/>
      <point x="313" y="476"/>
      <point x="362" y="417"/>
      <point x="362" y="264" type="curve" smooth="yes"/>
    </contour>
    <contour>
      <point x="107" y="274" type="curve"/>
      <point x="297" y="274" type="line"/>
      <point x="297" y="368"/>
      <point x="269" y="417"/>
      <point x="214" y="417" type="curve" smooth="yes"/>
      <point x="145" y="417"/>
      <point x="114" y="369"/>
    </contour>
  </outline>
</glyph>
<glyph name="Ecaron" format="1">
  <advance width="484"/>
  <unicode hex="011A"/>
  <outline>
    <contour>
      <point x="135" y="781" type="line"/>
      <point x="202" y="781" type="line"/>
      <point x="241" y="708" type="line"/>
      <point x="281" y="781" type="line"/>
      <point x="350" y="781" type="line"/>
      <point x="273" y="661" type="line"/>
      <point x="210" y="661" type="line"/>
    </contour>
    <contour>
      <point x="435" y="606" type="line"/>
      <point x="435" y="545" type="line"/>
      <point x="133" y="545" type="line"/>
      <point x="133" y="342" type="line"/>
      <point x="396" y="342" type="line"/>
      <point x="396" y="279" type="line"/>
      <point x="133" y="279" type="line"/>
      <point x="133" y="62" type="line"/>
      <point x="440" y="62" type="line"/>
      <point x="440" y="0" type="line"/>
      <point x="65" y="0" type="line"/>
      <point x="65" y="606" type="line"/>
    </contour>
  </outline>
</glyph>
<glyph name="hcircumflex" format="1">
  <advance width="391"/>
  <unicode hex="0125"/>
  <outline>
    <contour>
      <point x="90" y="732" type="line"/>
      <point x="50" y="660" type="line"/>
      <point x="-19" y="660" type="line"/>
      <point x="57" y="780" type="line"/>
      <point x="121" y="780" type="line"/>
      <point x="197" y="660" type="line"/>
      <point x="129" y="660" type="line"/>
    </contour>
    <contour>
      <point x="117" y="416" type="line"/>
      <point x="123" y="416" type="line"/>
      <point x="148" y="462"/>
      <point x="181" y="476"/>
      <point x="224" y="476" type="curve" smooth="yes"/>
      <point x="294" y="476"/>
      <point x="337" y="439"/>
      <point x="337" y="338" type="curve" smooth="yes"/>
      <point x="337" y="0" type="line"/>
      <point x="275" y="0" type="line"/>
      <point x="275" y="340" type="line" smooth="yes"/>
      <point x="275" y="405"/>
      <point x="247" y="420"/>
      <point x="207" y="420" type="curve" smooth="yes"/>
      <point x="160" y="420"/>
      <point x="117" y="371"/>
      <point x="117" y="283" type="curve" smooth="yes"/>
      <point x="117" y="0" type="line"/>
      <point x="54" y="0" type="line"/>
      <point x="54" y="639" type="line"/>
      <point x="117" y="639" type="line"/>
    </contour>
  </outline>
</glyph>
<glyph name="itilde" format="1">
  <advance width="202"/>
  <unicode hex="0129"/>
  <outline>
    <contour>
      <point x="175" y="639" type="curve"/>
      <point x="224" y="639" type="line"/>
      <point x="224" y="600"/>
      <point x="203" y="552"/>
      <point x="153" y="552" type="curve" smooth="yes"/>
      <point x="116" y="552"/>
      <point x="88" y="578"/>
      <point x="55" y="578" type="curve" smooth="yes"/>
      <point x="40" y="578"/>
      <point x="29" y="572"/>
      <point x="26" y="552" type="curve"/>
      <point x="-22" y="552" type="line"/>
      <point x="-22" y="590"/>
      <point x="-1" y="639"/>
      <point x="49" y="639" type="curve" smooth="yes"/>
      <point x="85" y="639"/>
      <point x="113" y="614"/>
      <point x="147" y="614" type="curve" smooth="yes"/>
      <point x="160" y="614"/>
      <point x="173" y="620"/>
    </contour>
    <contour>
      <point x="70" y="465" type="line"/>
      <point x="132" y="465" type="line"/>
      <point x="132" y="0" type="line"/>
      <point x="70" y="0" type="line"/>
    </contour>
  </outline>
</glyph>
<glyph name="imacron" format="1">
  <advance width="202"/>
  <unicode hex="012B"/>
  <outline>
    <contour>
      <point x="-10" y="589" type="line"/>
      <point x="211" y="589" type="line"/>
      <point x="211" y="530" type="line"/>
      <point x="-10" y="530" type="line"/>
    </contour>
    <contour>
      <point x="70" y="465" type="line"/>
      <point x="132" y="465" type="line"/>
      <point x="132" y="0" type="line"/>
      <point x="70" y="0" type="line"/>
    </contour>
  </outline>
</glyph>
<glyph name="ibreve" format="1">
  <advance width="202"/>
  <unicode hex="012D"/>
  <outline>
    <contour>
      <point x="154" y="639" type="curve"/>
      <point x="207" y="639" type="line"/>
      <point x="207" y="600"/>
      <point x="167" y="555"/>
      <point x="101" y="555" type="curve" smooth="yes"/>
      <point x="35" y="555"/>
      <point x="-7" y="600"/>
      <point x="-7" y="639" type="curve"/>
      <point x="49" y="639" type="line"/>
      <point x="51" y="627"/>
      <point x="72" y="610"/>
      <point x="101" y="610" type="curve" smooth="yes"/>
      <point x="131" y="610"/>
      <point x="152" y="627"/>
    </contour>
    <contour>
      <point x="70" y="465" type="line"/>
      <point x="132" y="465" type="line"/>
      <point x="132" y="0" type="line"/>
      <point x="70" y="0" type="line"/>
    </contour>
  </outline>
</glyph>
<glyph name="Idotaccent" format="1">
  <advance width="202"/>
  <unicode hex="0130"/>
  <outline>
    <contour>
      <point x="66" y="781" type="line"/>
      <point x="138" y="781" type="line"/>
      <point x="138" y="702" type="line"/>
      <point x="66" y="702" type="line"/>
    </contour>
    <contour>
      <point x="67" y="606" type="line"/>
      <point x="135" y="606" type="line"/>
      <point x="135" y="0" type="line"/>
      <point x="67" y="0" type="line"/>
    </contour>
  </outline>
</glyph>
<glyph name="Kcommaaccent" format="1">
  <advance width="473"/>
  <unicode hex="0136"/>
  <outline>
    <contour>
      <point x="453" y="606" type="line"/>
      <point x="270" y="363" type="line"/>
      <point x="459" y="0" type="line"/>
      <point x="383" y="0" type="line"/>
      <point x="230" y="303" type="line"/>
      <point x="132" y="198" type="line"/>
      <point x="132" y="0" type="line"/>
      <point x="65" y="0" type="line"/>
      <point x="65" y="606" type="line"/>
      <point x="132" y="606" type="line"/>
      <point x="132" y="283" type="line"/>
      <point x="378" y="606" type="line"/>
    </contour>
    <contour>
      <point x="214" y="-185" type="line"/>
      <point x="229" y="-126" type="line"/>
      <point x="203" y="-126" type="line"/>
      <point x="203" y="-54" type="line"/>
      <point x="268" y="-54" type="line"/>
      <point x="268" y="-121" type="line"/>
      <point x="247" y="-185" type="line"/>
    </contour>
  </outline>
</glyph>
<glyph name="kcommaaccent" format="1">
  <advance width="350"/>
  <unicode hex="0137"/>
  <outline>
    <contour>
      <point x="343" y="465" type="line"/>
      <point x="207" y="273" type="line"/>
      <point x="350" y="0" type="line"/>
      <point x="279" y="0" type="line"/>
      <point x="169" y="218" type="line"/>
      <point x="117" y="162" type="line"/>
      <point x="117" y="0" type="line"/>
      <point x="54" y="0" type="line"/>
      <point x="54" y="639" type="line"/>
      <point x="117" y="639" type="line"/>
      <point x="117" y="240" type="line"/>
      <point x="273" y="465" type="line"/>
    </contour>
    <contour>
      <point x="153" y="-185" type="line"/>
      <point x="169" y="-126" type="line"/>
      <point x="143" y="-126" type="line"/>
      <point x="143" y="-54" type="line"/>
      <point x="208" y="-54" type="line"/>
      <point x="208" y="-121" type="line"/>
      <point x="187" y="-185" type="line"/>
    </contour>
  </outline>
</glyph>
<glyph name="lacute" format="1">
  <advance width="149"/>
  <unicode hex="013A"/>
  <outline>
    <contour>
      <point x="77" y="664" type="line"/>
      <point x="24" y="664" type="line"/>
      <point x="100" y="781" type="line"/>
      <point x="172" y="781" type="line"/>
      <point x="172" y="778" type="line"/>
    </contour>
    <contour>
      <point x="43" y="0" type="line"/>
      <point x="43" y="639" type="line"/>
      <point x="106" y="639" type="line"/>
      <point x="106" y="0" type="line"/>
    </contour>
  </outline>
</glyph>
<glyph name="Lcommaaccent" format="1">
  <advance width="391"/>
  <unicode hex="013B"/>
  <outline>
    <contour>
      <point x="377" y="61" type="line"/>
      <point x="377" y="0" type="line"/>
      <point x="65" y="0" type="line"/>
      <point x="65" y="606" type="line"/>
      <point x="133" y="606" type="line"/>
      <point x="133" y="61" type="line"/>
    </contour>
    <contour>
      <point x="207" y="-185" type="line"/>
      <point x="172" y="-185" type="line"/>
      <point x="189" y="-126" type="line"/>
      <point x="163" y="-126" type="line"/>
      <point x="163" y="-54" type="line"/>
      <point x="229" y="-54" type="line"/>
      <point x="229" y="-121" type="line"/>
    </contour>
  </outline>
</glyph>
<glyph name="ldot" format="1">
  <advance width="283"/>
  <unicode hex="0140"/>
  <outline>
    <contour>
      <point x="43" y="639" type="line"/>
      <point x="106" y="639" type="line"/>
      <point x="106" y="0" type="line"/>
      <point x="43" y="0" type="line"/>
    </contour>
    <contour>
      <point x="141" y="350" type="line"/>
      <point x="225" y="350" type="line"/>
      <point x="225" y="258" type="line"/>
      <point x="141" y="258" type="line"/>
    </contour>
  </outline>
</glyph>
<glyph name="Lslash" format="1">
  <advance width="391"/>
  <unicode hex="0141"/>
  <outline>
    <contour>
      <point x="259" y="448" type="line"/>
      <point x="259" y="390" type="line"/>
      <point x="132" y="279" type="line"/>
      <point x="132" y="61" type="line"/>
      <point x="376" y="61" type="line"/>
      <point x="376" y="0" type="line"/>
      <point x="65" y="0" type="line"/>
      <point x="65" y="219" type="line"/>
      <point x="0" y="163" type="line"/>
      <point x="0" y="219" type="line"/>
      <point x="65" y="276" type="line"/>
      <point x="65" y="606" type="line"/>
      <point x="132" y="606" type="line"/>
      <point x="132" y="336" type="line"/>
    </contour>
  </outline>
</glyph>
<glyph name="nacute" format="1">
  <advance width="391"/>
  <unicode hex="0144"/>
  <outline>
    <contour>
      <point x="198" y="522" type="line"/>
      <point x="145" y="522" type="line"/>
      <point x="221" y="639" type="line"/>
      <point x="292" y="639" type="line"/>
      <point x="293" y="636" type="line"/>
    </contour>
    <contour>
      <point x="224" y="476" type="curve" smooth="yes"/>
      <point x="294" y="476"/>
      <point x="337" y="439"/>
      <point x="337" y="338" type="curve" smooth="yes"/>
      <point x="337" y="0" type="line"/>
      <point x="275" y="0" type="line"/>
      <point x="275" y="340" type="line" smooth="yes"/>
      <point x="275" y="405"/>
      <point x="247" y="420"/>
      <point x="207" y="420" type="curve" smooth="yes"/>
      <point x="160" y="420"/>
      <point x="117" y="371"/>
      <point x="117" y="283" type="curve" smooth="yes"/>
      <point x="117" y="0" type="line"/>
      <point x="54" y="0" type="line"/>
      <point x="54" y="465" type="line"/>
      <point x="99" y="465" type="line"/>
      <point x="109" y="412" type="line"/>
      <point x="114" y="412" type="line"/>
      <point x="141" y="461"/>
      <point x="181" y="476"/>
    </contour>
  </outline>
</glyph>
<glyph name="napostrophe" format="1">
  <advance width="480"/>
  <unicode hex="0149"/>
  <outline>
    <contour>
      <point x="81" y="473" type="line"/>
      <point x="46" y="473" type="line"/>
      <point x="63" y="533" type="line"/>
      <point x="37" y="533" type="line"/>
      <point x="37" y="606" type="line"/>
      <point x="103" y="606" type="line"/>
      <point x="103" y="538" type="line"/>
    </contour>
    <contour>
      <point x="314" y="476" type="curve" smooth="yes"/>
      <point x="382" y="476"/>
      <point x="425" y="439"/>
      <point x="425" y="338" type="curve" smooth="yes"/>
      <point x="425" y="0" type="line"/>
      <point x="363" y="0" type="line"/>
      <point x="363" y="340" type="line" smooth="yes"/>
      <point x="363" y="405"/>
      <point x="334" y="420"/>
      <point x="295" y="420" type="curve" smooth="yes"/>
      <point x="249" y="420"/>
      <point x="205" y="371"/>
      <point x="205" y="283" type="curve" smooth="yes"/>
      <point x="205" y="0" type="line"/>
      <point x="142" y="0" type="line"/>
      <point x="142" y="465" type="line"/>
      <point x="187" y="465" type="line"/>
      <point x="197" y="412" type="line"/>
      <point x="202" y="412" type="line"/>
      <point x="229" y="461"/>
      <point x="270" y="476"/>
    </contour>
  </outline>
</glyph>
<glyph name="Eng" format="1">
  <advance width="523"/>
  <unicode hex="014A"/>
  <outline>
    <contour>
      <point x="459" y="606" type="line"/>
      <point x="459" y="-59" type="line" smooth="yes"/>
      <point x="459" y="-110"/>
      <point x="438" y="-161"/>
      <point x="373" y="-161" type="curve" smooth="yes"/>
      <point x="352" y="-161"/>
      <point x="330" y="-156"/>
      <point x="316" y="-150" type="curve"/>
      <point x="316" y="-108" type="line"/>
      <point x="354" y="-108" type="line" smooth="yes"/>
      <point x="382" y="-108"/>
      <point x="396" y="-93"/>
      <point x="396" y="-65" type="curve" smooth="yes"/>
      <point x="396" y="17" type="line"/>
      <point x="167" y="401" type="line" smooth="yes"/>
      <point x="149" y="431"/>
      <point x="124" y="491"/>
      <point x="124" y="491" type="curve"/>
      <point x="122" y="490" type="line"/>
      <point x="122" y="490"/>
      <point x="126" y="428"/>
      <point x="126" y="400" type="curve" smooth="yes"/>
      <point x="126" y="0" type="line"/>
      <point x="65" y="0" type="line"/>
      <point x="65" y="606" type="line"/>
      <point x="122" y="606" type="line"/>
      <point x="358" y="211" type="line" smooth="yes"/>
      <point x="374" y="186"/>
      <point x="399" y="123"/>
      <point x="399" y="123" type="curve"/>
      <point x="401" y="124" type="line"/>
      <point x="401" y="124"/>
      <point x="399" y="190"/>
      <point x="399" y="212" type="curve" smooth="yes"/>
      <point x="395" y="606" type="line"/>
    </contour>
  </outline>
</glyph>
<glyph name="eng" format="1">
  <advance width="391"/>
  <unicode hex="014B"/>
  <outline>
    <contour>
      <point x="224" y="476" type="curve" smooth="yes"/>
      <point x="294" y="476"/>
      <point x="337" y="439"/>
      <point x="337" y="338" type="curve" smooth="yes"/>
      <point x="337" y="-59" type="line" smooth="yes"/>
      <point x="337" y="-110"/>
      <point x="316" y="-161"/>
      <point x="250" y="-161" type="curve" smooth="yes"/>
      <point x="230" y="-161"/>
      <point x="208" y="-156"/>
      <point x="194" y="-150" type="curve"/>
      <point x="194" y="-108" type="line"/>
      <point x="233" y="-108" type="line" smooth="yes"/>
      <point x="260" y="-108"/>
      <point x="275" y="-93"/>
      <point x="275" y="-65" type="curve" smooth="yes"/>
      <point x="275" y="340" type="line" smooth="yes"/>
      <point x="275" y="405"/>
      <point x="247" y="420"/>
      <point x="207" y="420" type="curve" smooth="yes"/>
      <point x="160" y="420"/>
      <point x="117" y="371"/>
      <point x="117" y="283" type="curve" smooth="yes"/>
      <point x="117" y="0" type="line"/>
      <point x="54" y="0" type="line"/>
      <point x="54" y="465" type="line"/>
      <point x="99" y="465" type="line"/>
      <point x="109" y="412" type="line"/>
      <point x="114" y="412" type="line"/>
      <point x="141" y="461"/>
      <point x="181" y="476"/>
    </contour>
  </outline>
</glyph>
<glyph name="Omacron" format="1">
  <advance width="564"/>
  <unicode hex="014C"/>
  <outline>
    <contour>
      <point x="171" y="731" type="line"/>
      <point x="392" y="731" type="line"/>
      <point x="392" y="671" type="line"/>
      <point x="171" y="671" type="line"/>
    </contour>
    <contour>
      <point x="282" y="617" type="curve" smooth="yes"/>
      <point x="429" y="617"/>
      <point x="517" y="513"/>
      <point x="517" y="303" type="curve" smooth="yes"/>
      <point x="517" y="94"/>
      <point x="429" y="-11"/>
      <point x="282" y="-11" type="curve" smooth="yes"/>
      <point x="135" y="-11"/>
      <point x="47" y="94"/>
      <point x="47" y="303" type="curve" smooth="yes"/>
      <point x="47" y="513"/>
      <point x="135" y="617"/>
    </contour>
    <contour>
      <point x="282" y="552" type="curve" smooth="yes"/>
      <point x="183" y="552"/>
      <point x="119" y="481"/>
      <point x="119" y="325" type="curve" smooth="yes"/>
      <point x="119" y="281" type="line" smooth="yes"/>
      <point x="119" y="125"/>
      <point x="183" y="53"/>
      <point x="282" y="53" type="curve" smooth="yes"/>
      <point x="382" y="53"/>
      <point x="446" y="125"/>
      <point x="446" y="281" type="curve" smooth="yes"/>
      <point x="446" y="325" type="line" smooth="yes"/>
      <point x="446" y="481"/>
      <point x="382" y="552"/>
    </contour>
  </outline>
</glyph>
<glyph name="obreve" format="1">
  <advance width="391"/>
  <unicode hex="014F"/>
  <outline>
    <contour>
      <point x="250" y="639" type="curve"/>
      <point x="303" y="639" type="line"/>
      <point x="303" y="600"/>
      <point x="263" y="555"/>
      <point x="197" y="555" type="curve" smooth="yes"/>
      <point x="130" y="555"/>
      <point x="89" y="600"/>
      <point x="89" y="639" type="curve"/>
      <point x="143" y="639" type="line"/>
      <point x="147" y="627"/>
      <point x="165" y="610"/>
      <point x="197" y="610" type="curve" smooth="yes"/>
      <point x="227" y="610"/>
      <point x="248" y="627"/>
    </contour>
    <contour>
      <point x="196" y="476" type="curve" smooth="yes"/>
      <point x="300" y="476"/>
      <point x="357" y="400"/>
      <point x="357" y="232" type="curve" smooth="yes"/>
      <point x="357" y="65"/>
      <point x="300" y="-11"/>
      <point x="196" y="-11" type="curve" smooth="yes"/>
      <point x="92" y="-11"/>
      <point x="35" y="65"/>
      <point x="35" y="232" type="curve" smooth="yes"/>
      <point x="35" y="400"/>
      <point x="92" y="476"/>
    </contour>
    <contour>
      <point x="196" y="418" type="curve" smooth="yes"/>
      <point x="133" y="418"/>
      <point x="100" y="361"/>
      <point x="100" y="249" type="curve" smooth="yes"/>
      <point x="100" y="216" type="line" smooth="yes"/>
      <point x="100" y="104"/>
      <point x="133" y="47"/>
      <point x="196" y="47" type="curve" smooth="yes"/>
      <point x="257" y="47"/>
      <point x="290" y="104"/>
      <point x="290" y="216" type="curve" smooth="yes"/>
      <point x="290" y="249" type="line" smooth="yes"/>
      <point x="290" y="361"/>
      <point x="257" y="418"/>
    </contour>
  </outline>
</glyph>
<glyph name="OE" format="1">
  <advance width="725"/>
  <unicode hex="0152"/>
  <outline>
    <contour>
      <point x="0" y="0" type="move" name="Anchor-1"/>
    </contour>
    <contour>
      <point x="362" y="606" type="move" name="Anchor-0"/>
    </contour>
    <contour>
      <point x="245" y="617" type="curve" smooth="yes"/>
      <point x="303" y="617"/>
      <point x="348" y="592"/>
      <point x="381" y="544" type="curve"/>
      <point x="381" y="606" type="line"/>
      <point x="687" y="606" type="line"/>
      <point x="687" y="545" type="line"/>
      <point x="447" y="545" type="line"/>
      <point x="447" y="342" type="line"/>
      <point x="646" y="342" type="line"/>
      <point x="646" y="279" type="line"/>
      <point x="447" y="279" type="line"/>
      <point x="447" y="62" type="line"/>
      <point x="691" y="62" type="line"/>
      <point x="691" y="0" type="line"/>
      <point x="381" y="0" type="line"/>
      <point x="381" y="62" type="line"/>
      <point x="348" y="13"/>
      <point x="303" y="-11"/>
      <point x="245" y="-11" type="curve" smooth="yes"/>
      <point x="121" y="-11"/>
      <point x="48" y="94"/>
      <point x="48" y="303" type="curve" smooth="yes"/>
      <point x="48" y="513"/>
      <point x="121" y="617"/>
    </contour>
    <contour>
      <point x="250" y="552" type="curve" smooth="yes"/>
      <point x="170" y="552"/>
      <point x="120" y="476"/>
      <point x="120" y="325" type="curve" smooth="yes"/>
      <point x="120" y="281" type="line" smooth="yes"/>
      <point x="120" y="130"/>
      <point x="170" y="53"/>
      <point x="250" y="53" type="curve" smooth="yes"/>
      <point x="329" y="53"/>
      <point x="381" y="130"/>
      <point x="381" y="281" type="curve" smooth="yes"/>
      <point x="381" y="325" type="line" smooth="yes"/>
      <point x="381" y="476"/>
      <point x="329" y="552"/>
    </contour>
  </outline>
</glyph>
<glyph name="rcaron" format="1">
  <advance width="229"/>
  <unicode hex="0159"/>
  <outline>
    <contour>
      <point x="2" y="639" type="line"/>
      <point x="72" y="639" type="line"/>
      <point x="111" y="566" type="line"/>
      <point x="151" y="639" type="line"/>
      <point x="218" y="639" type="line"/>
      <point x="142" y="520" type="line"/>
      <point x="78" y="520" type="line"/>
    </contour>
    <contour>
      <point x="192" y="476" type="curve" smooth="yes"/>
      <point x="208" y="476"/>
      <point x="223" y="469"/>
      <point x="223" y="469" type="curve"/>
      <point x="223" y="401" type="line"/>
      <point x="203" y="401" type="line" smooth="yes"/>
      <point x="157" y="401"/>
      <point x="117" y="373"/>
      <point x="117" y="291" type="curve" smooth="yes"/>
      <point x="117" y="0" type="line"/>
      <point x="54" y="0" type="line"/>
      <point x="54" y="465" type="line"/>
      <point x="99" y="465" type="line"/>
      <point x="109" y="406" type="line"/>
      <point x="113" y="406" type="line"/>
      <point x="124" y="440"/>
      <point x="148" y="476"/>
    </contour>
  </outline>
</glyph>
<glyph name="Sacute" format="1">
  <advance width="484"/>
  <unicode hex="015A"/>
  <outline>
    <contour>
      <point x="244" y="664" type="line"/>
      <point x="191" y="664" type="line"/>
      <point x="267" y="781" type="line"/>
      <point x="339" y="781" type="line"/>
      <point x="340" y="778" type="line"/>
    </contour>
    <contour>
      <point x="241" y="617" type="curve" smooth="yes"/>
      <point x="347" y="617"/>
      <point x="429" y="569"/>
      <point x="429" y="448" type="curve" smooth="yes"/>
      <point x="429" y="438" type="line"/>
      <point x="360" y="438" type="line"/>
      <point x="360" y="453" type="line" smooth="yes"/>
      <point x="360" y="518"/>
      <point x="308" y="552"/>
      <point x="244" y="552" type="curve" smooth="yes"/>
      <point x="177" y="552"/>
      <point x="124" y="527"/>
      <point x="124" y="463" type="curve" smooth="yes"/>
      <point x="124" y="311"/>
      <point x="445" y="383"/>
      <point x="445" y="173" type="curve" smooth="yes"/>
      <point x="445" y="38"/>
      <point x="357" y="-11"/>
      <point x="242" y="-11" type="curve" smooth="yes"/>
      <point x="132" y="-11"/>
      <point x="39" y="34"/>
      <point x="39" y="169" type="curve" smooth="yes"/>
      <point x="39" y="176"/>
      <point x="40" y="185"/>
      <point x="40" y="187" type="curve"/>
      <point x="110" y="187" type="line"/>
      <point x="109" y="167" type="line"/>
      <point x="109" y="87"/>
      <point x="165" y="53"/>
      <point x="236" y="53" type="curve" smooth="yes"/>
      <point x="321" y="53"/>
      <point x="373" y="88"/>
      <point x="373" y="163" type="curve" smooth="yes"/>
      <point x="373" y="319"/>
      <point x="52" y="240"/>
      <point x="52" y="456" type="curve" smooth="yes"/>
      <point x="52" y="567"/>
      <point x="136" y="617"/>
    </contour>
  </outline>
</glyph>
<glyph name="Scedilla" format="1">
  <advance width="484"/>
  <unicode hex="015E"/>
  <outline>
    <contour>
      <point x="241" y="617" type="curve" smooth="yes"/>
      <point x="347" y="617"/>
      <point x="429" y="569"/>
      <point x="429" y="448" type="curve" smooth="yes"/>
      <point x="429" y="438" type="line"/>
      <point x="360" y="438" type="line"/>
      <point x="360" y="453" type="line" smooth="yes"/>
      <point x="360" y="518"/>
      <point x="308" y="552"/>
      <point x="244" y="552" type="curve" smooth="yes"/>
      <point x="177" y="552"/>
      <point x="124" y="527"/>
      <point x="124" y="463" type="curve" smooth="yes"/>
      <point x="124" y="311"/>
      <point x="445" y="383"/>
      <point x="445" y="173" type="curve" smooth="yes"/>
      <point x="445" y="43"/>
      <point x="365" y="-6"/>
      <point x="255" y="-10" type="curve"/>
      <point x="253" y="-33" type="line"/>
      <point x="291" y="-35"/>
      <point x="325" y="-49"/>
      <point x="325" y="-89" type="curve" smooth="yes"/>
      <point x="325" y="-149"/>
      <point x="269" y="-161"/>
      <point x="234" y="-161" type="curve" smooth="yes"/>
      <point x="209" y="-161"/>
      <point x="181" y="-158"/>
      <point x="160" y="-154" type="curve"/>
      <point x="160" y="-111" type="line"/>
      <point x="228" y="-111" type="line" smooth="yes"/>
      <point x="248" y="-111"/>
      <point x="260" y="-106"/>
      <point x="260" y="-89" type="curve" smooth="yes"/>
      <point x="260" y="-75"/>
      <point x="253" y="-68"/>
      <point x="230" y="-68" type="curve" smooth="yes"/>
      <point x="201" y="-68" type="line"/>
      <point x="211" y="-9" type="line"/>
      <point x="114" y="-1"/>
      <point x="39" y="47"/>
      <point x="39" y="169" type="curve" smooth="yes"/>
      <point x="39" y="176"/>
      <point x="40" y="185"/>
      <point x="40" y="187" type="curve"/>
      <point x="110" y="187" type="line"/>
      <point x="109" y="167" type="line"/>
      <point x="109" y="87"/>
      <point x="165" y="53"/>
      <point x="236" y="53" type="curve" smooth="yes"/>
      <point x="321" y="53"/>
      <point x="373" y="88"/>
      <point x="373" y="163" type="curve" smooth="yes"/>
      <point x="373" y="319"/>
      <point x="52" y="240"/>
      <point x="52" y="456" type="curve" smooth="yes"/>
      <point x="52" y="567"/>
      <point x="136" y="617"/>
    </contour>
  </outline>
</glyph>
<glyph name="scedilla" format="1">
  <advance width="350"/>
  <unicode hex="015F"/>
  <outline>
    <contour>
      <point x="180" y="476" type="curve" smooth="yes"/>
      <point x="265" y="476"/>
      <point x="306" y="413"/>
      <point x="306" y="348" type="curve" smooth="yes"/>
      <point x="306" y="343"/>
      <point x="305" y="334"/>
      <point x="305" y="332" type="curve"/>
      <point x="239" y="332" type="line"/>
      <point x="239" y="341" type="line"/>
      <point x="240" y="378"/>
      <point x="226" y="419"/>
      <point x="172" y="419" type="curve" smooth="yes"/>
      <point x="114" y="419"/>
      <point x="106" y="375"/>
      <point x="106" y="349" type="curve" smooth="yes"/>
      <point x="106" y="245"/>
      <point x="314" y="301"/>
      <point x="314" y="131" type="curve" smooth="yes"/>
      <point x="314" y="40"/>
      <point x="262" y="-4"/>
      <point x="188" y="-10" type="curve"/>
      <point x="186" y="-33" type="line"/>
      <point x="224" y="-35"/>
      <point x="257" y="-49"/>
      <point x="257" y="-89" type="curve" smooth="yes"/>
      <point x="257" y="-149"/>
      <point x="203" y="-161"/>
      <point x="166" y="-161" type="curve" smooth="yes"/>
      <point x="143" y="-161"/>
      <point x="113" y="-158"/>
      <point x="92" y="-154" type="curve"/>
      <point x="92" y="-111" type="line"/>
      <point x="161" y="-111" type="line" smooth="yes"/>
      <point x="181" y="-111"/>
      <point x="193" y="-106"/>
      <point x="193" y="-89" type="curve" smooth="yes"/>
      <point x="193" y="-75"/>
      <point x="186" y="-68"/>
      <point x="163" y="-68" type="curve" smooth="yes"/>
      <point x="134" y="-68" type="line"/>
      <point x="143" y="-9" type="line"/>
      <point x="59" y="3"/>
      <point x="29" y="65"/>
      <point x="29" y="123" type="curve" smooth="yes"/>
      <point x="29" y="137"/>
      <point x="30" y="142"/>
      <point x="30" y="144" type="curve"/>
      <point x="97" y="144" type="line"/>
      <point x="97" y="135" type="line"/>
      <point x="96" y="74"/>
      <point x="131" y="46"/>
      <point x="176" y="46" type="curve" smooth="yes"/>
      <point x="217" y="46"/>
      <point x="249" y="74"/>
      <point x="249" y="121" type="curve" smooth="yes"/>
      <point x="249" y="243"/>
      <point x="41" y="182"/>
      <point x="41" y="346" type="curve" smooth="yes"/>
      <point x="41" y="424"/>
      <point x="92" y="476"/>
    </contour>
  </outline>
</glyph>
<glyph name="Umacron" format="1">
  <advance width="523"/>
  <unicode hex="016A"/>
  <outline>
    <contour>
      <point x="152" y="671" type="line"/>
      <point x="152" y="731" type="line"/>
      <point x="372" y="731" type="line"/>
      <point x="372" y="671" type="line"/>
    </contour>
    <contour>
      <point x="458" y="606" type="line"/>
      <point x="458" y="199" type="line" smooth="yes"/>
      <point x="458" y="62"/>
      <point x="384" y="-11"/>
      <point x="262" y="-11" type="curve" smooth="yes"/>
      <point x="138" y="-11"/>
      <point x="64" y="62"/>
      <point x="64" y="199" type="curve" smooth="yes"/>
      <point x="64" y="606" type="line"/>
      <point x="132" y="606" type="line"/>
      <point x="132" y="193" type="line" smooth="yes"/>
      <point x="132" y="102"/>
      <point x="181" y="53"/>
      <point x="262" y="53" type="curve" smooth="yes"/>
      <point x="342" y="53"/>
      <point x="392" y="102"/>
      <point x="392" y="193" type="curve" smooth="yes"/>
      <point x="392" y="606" type="line"/>
    </contour>
  </outline>
</glyph>
<glyph name="ubreve" format="1">
  <advance width="391"/>
  <unicode hex="016D"/>
  <outline>
    <contour>
      <point x="250" y="639" type="curve"/>
      <point x="303" y="639" type="line"/>
      <point x="303" y="600"/>
      <point x="263" y="555"/>
      <point x="197" y="555" type="curve" smooth="yes"/>
      <point x="130" y="555"/>
      <point x="89" y="600"/>
      <point x="89" y="639" type="curve"/>
      <point x="143" y="639" type="line"/>
      <point x="147" y="627"/>
      <point x="165" y="610"/>
      <point x="197" y="610" type="curve" smooth="yes"/>
      <point x="227" y="610"/>
      <point x="248" y="627"/>
    </contour>
    <contour>
      <point x="283" y="53" type="line"/>
      <point x="277" y="53" type="line"/>
      <point x="252" y="4"/>
      <point x="210" y="-11"/>
      <point x="167" y="-11" type="curve" smooth="yes"/>
      <point x="97" y="-11"/>
      <point x="54" y="26"/>
      <point x="54" y="127" type="curve" smooth="yes"/>
      <point x="54" y="465" type="line"/>
      <point x="117" y="465" type="line"/>
      <point x="117" y="125" type="line" smooth="yes"/>
      <point x="117" y="60"/>
      <point x="145" y="45"/>
      <point x="183" y="45" type="curve" smooth="yes"/>
      <point x="231" y="45"/>
      <point x="275" y="94"/>
      <point x="275" y="182" type="curve" smooth="yes"/>
      <point x="275" y="465" type="line"/>
      <point x="337" y="465" type="line"/>
      <point x="337" y="0" type="line"/>
      <point x="292" y="0" type="line"/>
    </contour>
  </outline>
</glyph>
<glyph name="Uring" format="1">
  <advance width="523"/>
  <unicode hex="016E"/>
  <outline>
    <contour>
      <point x="262" y="810" type="curve" smooth="yes"/>
      <point x="309" y="810"/>
      <point x="347" y="771"/>
      <point x="347" y="725" type="curve" smooth="yes"/>
      <point x="347" y="678"/>
      <point x="309" y="640"/>
      <point x="262" y="640" type="curve" smooth="yes"/>
      <point x="216" y="640"/>
      <point x="177" y="677"/>
      <point x="177" y="725" type="curve" smooth="yes"/>
      <point x="177" y="772"/>
      <point x="215" y="810"/>
    </contour>
    <contour>
      <point x="262" y="771" type="curve" smooth="yes"/>
      <point x="237" y="771"/>
      <point x="216" y="750"/>
      <point x="216" y="725" type="curve" smooth="yes"/>
      <point x="216" y="699"/>
      <point x="237" y="678"/>
      <point x="262" y="678" type="curve" smooth="yes"/>
      <point x="287" y="678"/>
      <point x="309" y="699"/>
      <point x="309" y="725" type="curve" smooth="yes"/>
      <point x="309" y="750"/>
      <point x="287" y="771"/>
    </contour>
    <contour>
      <point x="458" y="606" type="line"/>
      <point x="458" y="199" type="line" smooth="yes"/>
      <point x="458" y="62"/>
      <point x="384" y="-11"/>
      <point x="262" y="-11" type="curve" smooth="yes"/>
      <point x="138" y="-11"/>
      <point x="64" y="62"/>
      <point x="64" y="199" type="curve" smooth="yes"/>
      <point x="64" y="606" type="line"/>
      <point x="132" y="606" type="line"/>
      <point x="132" y="193" type="line" smooth="yes"/>
      <point x="132" y="102"/>
      <point x="181" y="53"/>
      <point x="262" y="53" type="curve" smooth="yes"/>
      <point x="342" y="53"/>
      <point x="392" y="102"/>
      <point x="392" y="193" type="curve" smooth="yes"/>
      <point x="392" y="606" type="line"/>
    </contour>
  </outline>
</glyph>
<glyph name="uring" format="1">
  <advance width="391"/>
  <unicode hex="016F"/>
  <outline>
    <contour>
      <point x="196" y="667" type="curve" smooth="yes"/>
      <point x="243" y="667"/>
      <point x="280" y="628"/>
      <point x="280" y="584" type="curve" smooth="yes"/>
      <point x="280" y="535"/>
      <point x="242" y="497"/>
      <point x="196" y="497" type="curve" smooth="yes"/>
      <point x="150" y="497"/>
      <point x="111" y="534"/>
      <point x="111" y="584" type="curve" smooth="yes"/>
      <point x="111" y="629"/>
      <point x="149" y="667"/>
    </contour>
    <contour>
      <point x="196" y="629" type="curve" smooth="yes"/>
      <point x="171" y="629"/>
      <point x="149" y="608"/>
      <point x="149" y="584" type="curve" smooth="yes"/>
      <point x="149" y="558"/>
      <point x="171" y="536"/>
      <point x="196" y="536" type="curve" smooth="yes"/>
      <point x="220" y="536"/>
      <point x="243" y="558"/>
      <point x="243" y="584" type="curve" smooth="yes"/>
      <point x="243" y="608"/>
      <point x="220" y="629"/>
    </contour>
    <contour>
      <point x="283" y="53" type="line"/>
      <point x="277" y="53" type="line"/>
      <point x="252" y="4"/>
      <point x="210" y="-11"/>
      <point x="167" y="-11" type="curve" smooth="yes"/>
      <point x="97" y="-11"/>
      <point x="54" y="26"/>
      <point x="54" y="127" type="curve" smooth="yes"/>
      <point x="54" y="465" type="line"/>
      <point x="117" y="465" type="line"/>
      <point x="117" y="125" type="line" smooth="yes"/>
      <point x="117" y="60"/>
      <point x="145" y="45"/>
      <point x="183" y="45" type="curve" smooth="yes"/>
      <point x="231" y="45"/>
      <point x="275" y="94"/>
      <point x="275" y="182" type="curve" smooth="yes"/>
      <point x="275" y="465" type="line"/>
      <point x="337" y="465" type="line"/>
      <point x="337" y="0" type="line"/>
      <point x="292" y="0" type="line"/>
    </contour>
  </outline>
</glyph>
<glyph name="uogonek" format="1">
  <advance width="391"/>
  <unicode hex="0173"/>
  <outline>
    <contour>
      <point x="388" y="-102" type="line"/>
      <point x="388" y="-147" type="line"/>
      <point x="369" y="-154"/>
      <point x="353" y="-159"/>
      <point x="335" y="-159" type="curve" smooth="yes"/>
      <point x="298" y="-159"/>
      <point x="254" y="-140"/>
      <point x="254" y="-79" type="curve" smooth="yes"/>
      <point x="254" y="-41"/>
      <point x="268" y="-16"/>
      <point x="286" y="4" type="curve"/>
      <point x="292" y="1" type="line"/>
      <point x="283" y="53" type="line"/>
      <point x="277" y="53" type="line"/>
      <point x="252" y="4"/>
      <point x="210" y="-11"/>
      <point x="167" y="-11" type="curve" smooth="yes"/>
      <point x="97" y="-11"/>
      <point x="54" y="26"/>
      <point x="54" y="127" type="curve" smooth="yes"/>
      <point x="54" y="465" type="line"/>
      <point x="117" y="465" type="line"/>
      <point x="117" y="125" type="line" smooth="yes"/>
      <point x="117" y="60"/>
      <point x="145" y="45"/>
      <point x="183" y="45" type="curve" smooth="yes"/>
      <point x="231" y="45"/>
      <point x="275" y="94"/>
      <point x="275" y="182" type="curve" smooth="yes"/>
      <point x="275" y="465" type="line"/>
      <point x="337" y="465" type="line"/>
      <point x="337" y="0" type="line"/>
      <point x="327" y="-13"/>
      <point x="317" y="-33"/>
      <point x="317" y="-53" type="curve" smooth="yes"/>
      <point x="317" y="-79"/>
      <point x="327" y="-102"/>
      <point x="357" y="-102" type="curve" smooth="yes"/>
    </contour>
  </outline>
</glyph>
<glyph name="Wcircumflex" format="1">
  <advance width="684"/>
  <unicode hex="0174"/>
  <outline>
    <contour>
      <point x="343" y="732" type="line"/>
      <point x="303" y="660" type="line"/>
      <point x="234" y="660" type="line"/>
      <point x="311" y="780" type="line"/>
      <point x="374" y="780" type="line"/>
      <point x="450" y="660" type="line"/>
      <point x="382" y="660" type="line"/>
    </contour>
    <contour>
      <point x="433" y="0" type="line"/>
      <point x="362" y="418" type="line" smooth="yes"/>
      <point x="355" y="462"/>
      <point x="343" y="551"/>
      <point x="343" y="551" type="curve"/>
      <point x="339" y="551" type="line"/>
      <point x="339" y="551"/>
      <point x="330" y="464"/>
      <point x="322" y="418" type="curve" smooth="yes"/>
      <point x="252" y="0" type="line"/>
      <point x="154" y="0" type="line"/>
      <point x="12" y="606" type="line"/>
      <point x="85" y="606" type="line"/>
      <point x="184" y="173" type="line" smooth="yes"/>
      <point x="193" y="136"/>
      <point x="204" y="60"/>
      <point x="204" y="60" type="curve"/>
      <point x="208" y="60" type="line"/>
      <point x="208" y="60"/>
      <point x="214" y="112"/>
      <point x="224" y="173" type="curve" smooth="yes"/>
      <point x="293" y="606" type="line"/>
      <point x="395" y="606" type="line"/>
      <point x="471" y="173" type="line" smooth="yes"/>
      <point x="480" y="123"/>
      <point x="488" y="60"/>
      <point x="488" y="60" type="curve"/>
      <point x="491" y="60" type="line"/>
      <point x="491" y="60"/>
      <point x="502" y="132"/>
      <point x="512" y="173" type="curve" smooth="yes"/>
      <point x="611" y="606" type="line"/>
      <point x="673" y="606" type="line"/>
      <point x="530" y="0" type="line"/>
    </contour>
  </outline>
</glyph>
<glyph name="Ycircumflex" format="1">
  <advance width="484"/>
  <unicode hex="0176"/>
  <outline>
    <contour>
      <point x="242" y="732" type="line"/>
      <point x="202" y="660" type="line"/>
      <point x="135" y="660" type="line"/>
      <point x="211" y="780" type="line"/>
      <point x="275" y="780" type="line"/>
      <point x="350" y="660" type="line"/>
      <point x="281" y="660" type="line"/>
    </contour>
    <contour>
      <point x="208" y="0" type="line"/>
      <point x="208" y="257" type="line"/>
      <point x="9" y="606" type="line"/>
      <point x="85" y="606" type="line"/>
      <point x="248" y="321" type="line"/>
      <point x="251" y="321" type="line"/>
      <point x="410" y="606" type="line"/>
      <point x="474" y="606" type="line"/>
      <point x="276" y="257" type="line"/>
      <point x="276" y="0" type="line"/>
    </contour>
  </outline>
</glyph>
<glyph name="ycircumflex" format="1">
  <advance width="350"/>
  <unicode hex="0177"/>
  <outline>
    <contour>
      <point x="176" y="591" type="line"/>
      <point x="136" y="519" type="line"/>
      <point x="69" y="519" type="line"/>
      <point x="145" y="638" type="line"/>
      <point x="209" y="638" type="line"/>
      <point x="284" y="519" type="line"/>
      <point x="215" y="519" type="line"/>
    </contour>
    <contour>
      <point x="340" y="465" type="line"/>
      <point x="225" y="24" type="line" smooth="yes"/>
      <point x="199" y="-78"/>
      <point x="158" y="-161"/>
      <point x="79" y="-161" type="curve" smooth="yes"/>
      <point x="65" y="-161"/>
      <point x="51" y="-160"/>
      <point x="32" y="-154" type="curve"/>
      <point x="32" y="-112" type="line"/>
      <point x="50" y="-112" type="line" smooth="yes"/>
      <point x="92" y="-112"/>
      <point x="130" y="-89"/>
      <point x="148" y="0" type="curve"/>
      <point x="10" y="465" type="line"/>
      <point x="79" y="465" type="line"/>
      <point x="147" y="220" type="line" smooth="yes"/>
      <point x="159" y="180"/>
      <point x="172" y="139"/>
      <point x="185" y="98" type="curve"/>
      <point x="188" y="98" type="line"/>
      <point x="199" y="139"/>
      <point x="210" y="179"/>
      <point x="220" y="219" type="curve" smooth="yes"/>
      <point x="277" y="465" type="line"/>
    </contour>
  </outline>
</glyph>
<glyph name="Ydieresis" format="1">
  <advance width="484"/>
  <unicode hex="0178"/>
  <outline>
    <contour>
      <point x="142" y="701" type="line"/>
      <point x="142" y="781" type="line"/>
      <point x="215" y="781" type="line"/>
      <point x="215" y="701" type="line"/>
    </contour>
    <contour>
      <point x="269" y="701" type="line"/>
      <point x="269" y="781" type="line"/>
      <point x="343" y="781" type="line"/>
      <point x="343" y="701" type="line"/>
    </contour>
    <contour>
      <point x="276" y="0" type="line"/>
      <point x="208" y="0" type="line"/>
      <point x="208" y="257" type="line"/>
      <point x="9" y="606" type="line"/>
      <point x="85" y="606" type="line"/>
      <point x="248" y="321" type="line"/>
      <point x="251" y="321" type="line"/>
      <point x="410" y="606" type="line"/>
      <point x="474" y="606" type="line"/>
      <point x="276" y="257" type="line"/>
    </contour>
  </outline>
</glyph>
<glyph name="zacute" format="1">
  <advance width="362"/>
  <unicode hex="017A"/>
  <outline>
    <contour>
      <point x="185" y="522" type="line"/>
      <point x="132" y="522" type="line"/>
      <point x="207" y="639" type="line"/>
      <point x="279" y="639" type="line"/>
      <point x="280" y="636" type="line"/>
    </contour>
    <contour>
      <point x="111" y="58" type="line"/>
      <point x="337" y="58" type="line"/>
      <point x="337" y="0" type="line"/>
      <point x="25" y="0" type="line"/>
      <point x="25" y="31" type="line"/>
      <point x="236" y="407" type="line"/>
      <point x="40" y="407" type="line"/>
      <point x="40" y="465" type="line"/>
      <point x="323" y="465" type="line"/>
      <point x="323" y="434" type="line"/>
    </contour>
  </outline>
</glyph>
<glyph name="Zdotaccent" format="1">
  <advance width="443"/>
  <unicode hex="017B"/>
  <outline>
    <contour>
      <point x="186" y="702" type="line"/>
      <point x="186" y="781" type="line"/>
      <point x="258" y="781" type="line"/>
      <point x="258" y="702" type="line"/>
    </contour>
    <contour>
      <point x="116" y="62" type="line"/>
      <point x="423" y="62" type="line"/>
      <point x="423" y="0" type="line"/>
      <point x="19" y="0" type="line"/>
      <point x="19" y="31" type="line"/>
      <point x="318" y="545" type="line"/>
      <point x="37" y="545" type="line"/>
      <point x="37" y="606" type="line"/>
      <point x="417" y="606" type="line"/>
      <point x="417" y="576" type="line"/>
    </contour>
  </outline>
</glyph>
<glyph name="Aringacute" format="1">
  <advance width="473"/>
  <unicode hex="01FA"/>
  <outline>
    <contour>
      <point x="212" y="750" type="line"/>
      <point x="275" y="846" type="line"/>
      <point x="346" y="846" type="line"/>
      <point x="348" y="842" type="line"/>
      <point x="265" y="750" type="line"/>
    </contour>
    <contour>
      <point x="236" y="726" type="curve" smooth="yes"/>
      <point x="284" y="726"/>
      <point x="321" y="689"/>
      <point x="321" y="644" type="curve" smooth="yes"/>
      <point x="321" y="618"/>
      <point x="309" y="595"/>
      <point x="289" y="579" type="curve"/>
      <point x="473" y="0" type="line"/>
      <point x="398" y="0" type="line"/>
      <point x="355" y="140" type="line"/>
      <point x="109" y="140" type="line"/>
      <point x="67" y="0" type="line"/>
      <point x="-2" y="0" type="line"/>
      <point x="183" y="580" type="line"/>
      <point x="164" y="595"/>
      <point x="151" y="618"/>
      <point x="151" y="644" type="curve" smooth="yes"/>
      <point x="151" y="690"/>
      <point x="189" y="726"/>
    </contour>
    <contour>
      <point x="236" y="690" type="curve" smooth="yes"/>
      <point x="211" y="690"/>
      <point x="190" y="669"/>
      <point x="190" y="644" type="curve" smooth="yes"/>
      <point x="190" y="621"/>
      <point x="211" y="600"/>
      <point x="236" y="600" type="curve" smooth="yes"/>
      <point x="261" y="600"/>
      <point x="283" y="621"/>
      <point x="283" y="644" type="curve" smooth="yes"/>
      <point x="283" y="669"/>
      <point x="261" y="690"/>
    </contour>
    <contour>
      <point x="234" y="554" type="curve"/>
      <point x="231" y="554" type="line"/>
      <point x="231" y="554"/>
      <point x="223" y="508"/>
      <point x="218" y="492" type="curve" smooth="yes"/>
      <point x="129" y="202" type="line"/>
      <point x="336" y="202" type="line"/>
      <point x="248" y="492" type="line"/>
      <point x="242" y="508"/>
      <point x="234" y="554"/>
    </contour>
  </outline>
</glyph>
<glyph name="Tcommaaccent" format="1">
  <advance width="443"/>
  <unicode hex="021A"/>
  <outline>
    <contour>
      <point x="255" y="545" type="line"/>
      <point x="255" y="0" type="line"/>
      <point x="187" y="0" type="line"/>
      <point x="187" y="545" type="line"/>
      <point x="18" y="545" type="line"/>
      <point x="18" y="606" type="line"/>
      <point x="424" y="606" type="line"/>
      <point x="424" y="545" type="line"/>
    </contour>
    <contour>
      <point x="232" y="-185" type="line"/>
      <point x="198" y="-185" type="line"/>
      <point x="215" y="-126" type="line"/>
      <point x="189" y="-126" type="line"/>
      <point x="189" y="-54" type="line"/>
      <point x="254" y="-54" type="line"/>
      <point x="254" y="-121" type="line"/>
    </contour>
  </outline>
</glyph>
<glyph name="circumflex" format="1">
  <advance width="241"/>
  <unicode hex="02C6"/>
  <outline>
    <contour>
      <point x="119" y="591" type="line"/>
      <point x="80" y="519" type="line"/>
      <point x="12" y="519" type="line"/>
      <point x="88" y="638" type="line"/>
      <point x="152" y="638" type="line"/>
      <point x="227" y="519" type="line"/>
      <point x="158" y="519" type="line"/>
    </contour>
  </outline>
</glyph>
<glyph name="breve" format="1">
  <advance width="241"/>
  <unicode hex="02D8"/>
  <outline>
    <contour>
      <point x="171" y="639" type="curve"/>
      <point x="226" y="639" type="line"/>
      <point x="226" y="600"/>
      <point x="186" y="555"/>
      <point x="118" y="555" type="curve" smooth="yes"/>
      <point x="53" y="555"/>
      <point x="13" y="600"/>
      <point x="13" y="639" type="curve"/>
      <point x="66" y="639" type="line"/>
      <point x="69" y="627"/>
      <point x="89" y="610"/>
      <point x="118" y="610" type="curve" smooth="yes"/>
      <point x="149" y="610"/>
      <point x="170" y="627"/>
    </contour>
  </outline>
</glyph>
<glyph name="ring" format="1">
  <advance width="241"/>
  <unicode hex="02DA"/>
  <outline>
    <contour>
      <point x="123" y="667" type="curve" smooth="yes"/>
      <point x="171" y="667"/>
      <point x="208" y="628"/>
      <point x="208" y="584" type="curve" smooth="yes"/>
      <point x="208" y="535"/>
      <point x="170" y="497"/>
      <point x="123" y="497" type="curve" smooth="yes"/>
      <point x="77" y="497"/>
      <point x="38" y="534"/>
      <point x="38" y="584" type="curve" smooth="yes"/>
      <point x="38" y="629"/>
      <point x="76" y="667"/>
    </contour>
    <contour>
      <point x="123" y="629" type="curve" smooth="yes"/>
      <point x="98" y="629"/>
      <point x="77" y="608"/>
      <point x="77" y="584" type="curve" smooth="yes"/>
      <point x="77" y="558"/>
      <point x="98" y="536"/>
      <point x="123" y="536" type="curve" smooth="yes"/>
      <point x="148" y="536"/>
      <point x="169" y="558"/>
      <point x="169" y="584" type="curve" smooth="yes"/>
      <point x="169" y="608"/>
      <point x="148" y="629"/>
    </contour>
  </outline>
</glyph>
<glyph name="ogonek" format="1">
  <advance width="241"/>
  <unicode hex="02DB"/>
  <outline>
    <contour>
      <point x="157" y="11" type="line"/>
      <point x="157" y="7" type="line"/>
      <point x="147" y="-5"/>
      <point x="131" y="-30"/>
      <point x="131" y="-55" type="curve" smooth="yes"/>
      <point x="131" y="-81"/>
      <point x="141" y="-104"/>
      <point x="170" y="-104" type="curve" smooth="yes"/>
      <point x="201" y="-104" type="line"/>
      <point x="201" y="-149" type="line"/>
      <point x="183" y="-156"/>
      <point x="165" y="-161"/>
      <point x="149" y="-161" type="curve" smooth="yes"/>
      <point x="111" y="-161"/>
      <point x="67" y="-142"/>
      <point x="67" y="-81" type="curve" smooth="yes"/>
      <point x="67" y="-38"/>
      <point x="87" y="-12"/>
      <point x="109" y="11" type="curve"/>
    </contour>
  </outline>
</glyph>
<glyph name="tilde" format="1">
  <advance width="241"/>
  <unicode hex="02DC"/>
  <outline>
    <contour>
      <point x="194" y="639" type="curve"/>
      <point x="243" y="639" type="line"/>
      <point x="243" y="600"/>
      <point x="222" y="552"/>
      <point x="172" y="552" type="curve" smooth="yes"/>
      <point x="135" y="552"/>
      <point x="107" y="578"/>
      <point x="74" y="578" type="curve" smooth="yes"/>
      <point x="60" y="578"/>
      <point x="48" y="572"/>
      <point x="45" y="552" type="curve"/>
      <point x="-4" y="552" type="line"/>
      <point x="-4" y="590"/>
      <point x="18" y="639"/>
      <point x="68" y="639" type="curve" smooth="yes"/>
      <point x="104" y="639"/>
      <point x="132" y="614"/>
      <point x="165" y="614" type="curve" smooth="yes"/>
      <point x="181" y="614"/>
      <point x="191" y="620"/>
    </contour>
  </outline>
</glyph>
<glyph name="hungarumlaut" format="1">
  <advance width="241"/>
  <unicode hex="02DD"/>
  <outline>
    <contour>
      <point x="4" y="522" type="line"/>
      <point x="58" y="639" type="line"/>
      <point x="135" y="639" type="line"/>
      <point x="136" y="636" type="line"/>
      <point x="63" y="522" type="line"/>
    </contour>
    <contour>
      <point x="115" y="522" type="line"/>
      <point x="170" y="639" type="line"/>
      <point x="247" y="639" type="line"/>
      <point x="249" y="636" type="line"/>
      <point x="173" y="522" type="line"/>
    </contour>
  </outline>
</glyph>
<glyph name="commaaccent" format="1">
  <advance width="0"/>
  <unicode hex="0326"/>
  <outline>
    <contour>
      <point x="-117" y="0" type="move" name="_Anchor-4"/>
    </contour>
    <contour>
      <point x="-117" y="0" type="move" name="_Anchor-3"/>
    </contour>
    <contour>
      <point x="-117" y="0" type="move" name="_Anchor-1"/>
    </contour>
    <contour>
      <point x="-142" y="-185" type="line"/>
      <point x="-124" y="-126" type="line"/>
      <point x="-150" y="-126" type="line"/>
      <point x="-150" y="-54" type="line"/>
      <point x="-85" y="-54" type="line"/>
      <point x="-85" y="-121" type="line"/>
      <point x="-107" y="-185" type="line"/>
    </contour>
  </outline>
</glyph>
<glyph name="anusvaradeva" format="1">
  <advance width="0"/>
  <unicode hex="0902"/>
  <outline>
    <contour>
      <point x="-99" y="606" type="move" name="_Anchor-5"/>
    </contour>
    <contour>
      <point x="-99" y="606" type="move" name="_Anchor-2"/>
    </contour>
    <contour>
      <point x="-99" y="606" type="move" name="_Anchor-0"/>
    </contour>
    <contour>
      <point x="-131" y="742" type="line"/>
      <point x="-67" y="742" type="line"/>
      <point x="-67" y="678" type="line"/>
      <point x="-131" y="678" type="line"/>
    </contour>
  </outline>
</glyph>
<glyph name="ideva" format="1">
  <advance width="367"/>
  <unicode hex="0907"/>
  <outline>
    <contour>
      <point x="199" y="0" type="move" name="Anchor-3"/>
    </contour>
    <contour>
      <point x="271" y="606" type="move" name="Anchor-2"/>
    </contour>
    <contour>
      <point x="303" y="375" type="line"/>
      <point x="203" y="375" type="line" smooth="yes"/>
      <point x="166" y="375"/>
      <point x="135" y="352"/>
      <point x="135" y="317" type="curve" smooth="yes"/>
      <point x="135" y="268"/>
      <point x="180" y="264"/>
      <point x="207" y="256" type="curve" smooth="yes"/>
      <point x="267" y="243"/>
      <point x="328" y="229"/>
      <point x="328" y="130" type="curve" smooth="yes"/>
      <point x="328" y="35"/>
      <point x="269" y="-11"/>
      <point x="189" y="-11" type="curve" smooth="yes"/>
      <point x="149" y="-11"/>
      <point x="119" y="0"/>
      <point x="98" y="17" type="curve"/>
      <point x="98" y="-84" type="line"/>
      <point x="36" y="-84" type="line"/>
      <point x="36" y="144" type="line"/>
      <point x="98" y="144" type="line"/>
      <point x="98" y="135" type="line" smooth="yes"/>
      <point x="98" y="74"/>
      <point x="134" y="46"/>
      <point x="184" y="46" type="curve" smooth="yes"/>
      <point x="228" y="46"/>
      <point x="262" y="70"/>
      <point x="262" y="123" type="curve" smooth="yes"/>
      <point x="262" y="186"/>
      <point x="221" y="193"/>
      <point x="181" y="201" type="curve" smooth="yes"/>
      <point x="137" y="210"/>
      <point x="68" y="225"/>
      <point x="68" y="315" type="curve" smooth="yes"/>
      <point x="68" y="393"/>
      <point x="126" y="430"/>
      <point x="207" y="430" type="curve" smooth="yes"/>
      <point x="240" y="430" type="line"/>
      <point x="240" y="549" type="line"/>
      <point x="-10" y="549" type="line"/>
      <point x="-10" y="606" type="line"/>
      <point x="377" y="606" type="line"/>
      <point x="377" y="549" type="line"/>
      <point x="303" y="549" type="line"/>
    </contour>
  </outline>
</glyph>
<glyph name="iideva" format="1">
  <advance width="367"/>
  <unicode hex="0908"/>
  <outline>
    <contour>
      <point x="249" y="0" type="move" name="Anchor-3"/>
    </contour>
    <contour>
      <point x="249" y="606" type="move" name="Anchor-2"/>
    </contour>
    <contour>
      <point x="303" y="375" type="line"/>
      <point x="203" y="375" type="line" smooth="yes"/>
      <point x="166" y="375"/>
      <point x="135" y="352"/>
      <point x="135" y="317" type="curve" smooth="yes"/>
      <point x="135" y="268"/>
      <point x="180" y="264"/>
      <point x="207" y="256" type="curve" smooth="yes"/>
      <point x="267" y="243"/>
      <point x="328" y="229"/>
      <point x="328" y="130" type="curve" smooth="yes"/>
      <point x="328" y="35"/>
      <point x="269" y="-11"/>
      <point x="189" y="-11" type="curve" smooth="yes"/>
      <point x="149" y="-11"/>
      <point x="119" y="0"/>
      <point x="98" y="17" type="curve"/>
      <point x="98" y="-84" type="line"/>
      <point x="36" y="-84" type="line"/>
      <point x="36" y="144" type="line"/>
      <point x="98" y="144" type="line"/>
      <point x="98" y="135" type="line" smooth="yes"/>
      <point x="98" y="74"/>
      <point x="134" y="46"/>
      <point x="184" y="46" type="curve" smooth="yes"/>
      <point x="228" y="46"/>
      <point x="262" y="70"/>
      <point x="262" y="123" type="curve" smooth="yes"/>
      <point x="262" y="186"/>
      <point x="221" y="193"/>
      <point x="181" y="201" type="curve" smooth="yes"/>
      <point x="137" y="210"/>
      <point x="68" y="225"/>
      <point x="68" y="315" type="curve" smooth="yes"/>
      <point x="68" y="393"/>
      <point x="126" y="430"/>
      <point x="207" y="430" type="curve" smooth="yes"/>
      <point x="240" y="430" type="line"/>
      <point x="240" y="549" type="line"/>
      <point x="-10" y="549" type="line"/>
      <point x="-10" y="606" type="line"/>
      <point x="229" y="606" type="line"/>
      <point x="206" y="641"/>
      <point x="196" y="675"/>
      <point x="196" y="707" type="curve" smooth="yes"/>
      <point x="196" y="777"/>
      <point x="253" y="827"/>
      <point x="328" y="827" type="curve" smooth="yes"/>
      <point x="334" y="827"/>
      <point x="344" y="827"/>
      <point x="346" y="826" type="curve"/>
      <point x="346" y="770" type="line"/>
      <point x="344" y="770" type="line"/>
      <point x="290" y="769"/>
      <point x="259" y="741"/>
      <point x="259" y="695" type="curve" smooth="yes"/>
      <point x="259" y="668"/>
      <point x="268" y="640"/>
      <point x="287" y="606" type="curve"/>
      <point x="377" y="606" type="line"/>
      <point x="377" y="549" type="line"/>
      <point x="303" y="549" type="line"/>
    </contour>
  </outline>
</glyph>
<glyph name="gadeva" format="1">
  <advance width="483"/>
  <unicode hex="0917"/>
  <outline>
    <contour>
      <point x="384" y="0" type="move" name="Anchor-3"/>
    </contour>
    <contour>
      <point x="384" y="606" type="move" name="Anchor-2"/>
    </contour>
    <contour>
      <point x="492" y="549" type="line"/>
      <point x="416" y="549" type="line"/>
      <point x="416" y="0" type="line"/>
      <point x="353" y="0" type="line"/>
      <point x="353" y="549" type="line"/>
      <point x="234" y="549" type="line"/>
      <point x="234" y="227" type="line" smooth="yes"/>
      <point x="234" y="162"/>
      <point x="190" y="119"/>
      <point x="125" y="119" type="curve" smooth="yes"/>
      <point x="63" y="119"/>
      <point x="15" y="166"/>
      <point x="15" y="227" type="curve" smooth="yes"/>
      <point x="15" y="291"/>
      <point x="58" y="334"/>
      <point x="124" y="334" type="curve" smooth="yes"/>
      <point x="171" y="334" type="line"/>
      <point x="171" y="549" type="line"/>
      <point x="-10" y="549" type="line"/>
      <point x="-10" y="606" type="line"/>
      <point x="492" y="606" type="line"/>
    </contour>
    <contour>
      <point x="125" y="175" type="curve" smooth="yes"/>
      <point x="155" y="175"/>
      <point x="171" y="196"/>
      <point x="171" y="227" type="curve" smooth="yes"/>
      <point x="171" y="277" type="line"/>
      <point x="124" y="277" type="line" smooth="yes"/>
      <point x="98" y="277"/>
      <point x="79" y="257"/>
      <point x="79" y="227" type="curve" smooth="yes"/>
      <point x="79" y="198"/>
      <point x="99" y="175"/>
    </contour>
  </outline>
</glyph>
<glyph name="chadeva" format="1">
  <advance width="463"/>
  <unicode hex="091B"/>
  <outline>
    <contour>
      <point x="247" y="0" type="move" name="Anchor-3"/>
    </contour>
    <contour>
      <point x="345" y="606" type="move" name="Anchor-2"/>
    </contour>
    <contour>
      <point x="377" y="549" type="line"/>
      <point x="377" y="457" type="line"/>
      <point x="420" y="442"/>
      <point x="440" y="391"/>
      <point x="440" y="307" type="curve" smooth="yes"/>
      <point x="440" y="159"/>
      <point x="355" y="55"/>
      <point x="217" y="55" type="curve" smooth="yes"/>
      <point x="109" y="55"/>
      <point x="39" y="113"/>
      <point x="39" y="210" type="curve" smooth="yes"/>
      <point x="39" y="274"/>
      <point x="67" y="329"/>
      <point x="115" y="352" type="curve"/>
      <point x="77" y="359"/>
      <point x="40" y="386"/>
      <point x="40" y="471" type="curve" smooth="yes"/>
      <point x="40" y="507"/>
      <point x="47" y="532"/>
      <point x="60" y="549" type="curve"/>
      <point x="-7" y="549" type="line"/>
      <point x="-7" y="606" type="line"/>
      <point x="473" y="606" type="line"/>
      <point x="473" y="549" type="line"/>
    </contour>
    <contour>
      <point x="314" y="549" type="line"/>
      <point x="142" y="549" type="line" smooth="yes"/>
      <point x="114" y="549"/>
      <point x="103" y="514"/>
      <point x="103" y="473" type="curve" smooth="yes"/>
      <point x="103" y="403"/>
      <point x="133" y="374"/>
      <point x="166" y="374" type="curve" smooth="yes"/>
      <point x="195" y="374" type="line"/>
      <point x="195" y="321" type="line"/>
      <point x="167" y="321" type="line" smooth="yes"/>
      <point x="135" y="321"/>
      <point x="103" y="286"/>
      <point x="103" y="223" type="curve" smooth="yes"/>
      <point x="103" y="143"/>
      <point x="150" y="110"/>
      <point x="217" y="110" type="curve" smooth="yes"/>
      <point x="321" y="110"/>
      <point x="381" y="195"/>
      <point x="381" y="298" type="curve" smooth="yes"/>
      <point x="381" y="322" type="line" smooth="yes"/>
      <point x="381" y="360"/>
      <point x="373" y="406"/>
      <point x="346" y="406" type="curve" smooth="yes"/>
      <point x="324" y="406"/>
      <point x="316" y="385"/>
      <point x="316" y="365" type="curve" smooth="yes"/>
      <point x="316" y="354" type="line"/>
      <point x="260" y="354" type="line"/>
      <point x="257" y="359"/>
      <point x="256" y="369"/>
      <point x="256" y="380" type="curve" smooth="yes"/>
      <point x="256" y="420"/>
      <point x="284" y="444"/>
      <point x="314" y="455" type="curve"/>
    </contour>
  </outline>
</glyph>
<glyph name="jhadeva" format="1">
  <advance width="552"/>
  <unicode hex="091D"/>
  <outline>
    <contour>
      <point x="454" y="0" type="move" name="Anchor-3"/>
    </contour>
    <contour>
      <point x="454" y="606" type="move" name="Anchor-2"/>
    </contour>
    <contour>
      <point x="561" y="549" type="line"/>
      <point x="485" y="549" type="line"/>
      <point x="485" y="0" type="line"/>
      <point x="422" y="0" type="line"/>
      <point x="422" y="201" type="line"/>
      <point x="298" y="201" type="line"/>
      <point x="318" y="184"/>
      <point x="328" y="157"/>
      <point x="328" y="118" type="curve" smooth="yes"/>
      <point x="328" y="33"/>
      <point x="264" y="-11"/>
      <point x="189" y="-11" type="curve" smooth="yes"/>
      <point x="151" y="-11"/>
      <point x="121" y="-1"/>
      <point x="98" y="14" type="curve"/>
      <point x="98" y="-84" type="line"/>
      <point x="36" y="-84" type="line"/>
      <point x="36" y="144" type="line"/>
      <point x="98" y="144" type="line"/>
      <point x="98" y="135" type="line" smooth="yes"/>
      <point x="98" y="74"/>
      <point x="134" y="46"/>
      <point x="184" y="46" type="curve" smooth="yes"/>
      <point x="228" y="46"/>
      <point x="262" y="70"/>
      <point x="262" y="123" type="curve" smooth="yes"/>
      <point x="262" y="183"/>
      <point x="224" y="188"/>
      <point x="187" y="192" type="curve" smooth="yes"/>
      <point x="106" y="199"/>
      <point x="68" y="238"/>
      <point x="68" y="306" type="curve" smooth="yes"/>
      <point x="68" y="388"/>
      <point x="128" y="430"/>
      <point x="213" y="430" type="curve" smooth="yes"/>
      <point x="240" y="430" type="line"/>
      <point x="240" y="549" type="line"/>
      <point x="-10" y="549" type="line"/>
      <point x="-10" y="606" type="line"/>
      <point x="561" y="606" type="line"/>
    </contour>
    <contour>
      <point x="422" y="549" type="line"/>
      <point x="303" y="549" type="line"/>
      <point x="303" y="375" type="line"/>
      <point x="210" y="375" type="line" smooth="yes"/>
      <point x="168" y="375"/>
      <point x="135" y="348"/>
      <point x="135" y="308" type="curve" smooth="yes"/>
      <point x="135" y="259"/>
      <point x="179" y="250"/>
      <point x="212" y="250" type="curve" smooth="yes"/>
      <point x="422" y="250" type="line"/>
    </contour>
  </outline>
</glyph>
<glyph name="nyadeva" format="1">
  <advance width="463"/>
  <unicode hex="091E"/>
  <outline>
    <contour>
      <point x="365" y="0" type="move" name="Anchor-3"/>
    </contour>
    <contour>
      <point x="365" y="606" type="move" name="Anchor-2"/>
    </contour>
    <contour>
      <point x="473" y="549" type="line"/>
      <point x="397" y="549" type="line"/>
      <point x="397" y="0" type="line"/>
      <point x="334" y="0" type="line"/>
      <point x="334" y="250" type="line"/>
      <point x="265" y="250" type="line"/>
      <point x="259" y="160"/>
      <point x="220" y="115"/>
      <point x="143" y="115" type="curve" smooth="yes"/>
      <point x="70" y="115"/>
      <point x="27" y="153"/>
      <point x="27" y="217" type="curve" smooth="yes"/>
      <point x="27" y="223"/>
      <point x="28" y="229"/>
      <point x="29" y="234" type="curve"/>
      <point x="85" y="234" type="line"/>
      <point x="85" y="231" type="line" smooth="yes"/>
      <point x="85" y="194"/>
      <point x="101" y="173"/>
      <point x="143" y="173" type="curve" smooth="yes"/>
      <point x="185" y="173"/>
      <point x="203" y="206"/>
      <point x="203" y="266" type="curve" smooth="yes"/>
      <point x="203" y="288" type="line" smooth="yes"/>
      <point x="203" y="348"/>
      <point x="185" y="381"/>
      <point x="142" y="381" type="curve" smooth="yes"/>
      <point x="102" y="381"/>
      <point x="90" y="361"/>
      <point x="90" y="323" type="curve" smooth="yes"/>
      <point x="90" y="319" type="line"/>
      <point x="29" y="319" type="line"/>
      <point x="28" y="324"/>
      <point x="27" y="331"/>
      <point x="27" y="337" type="curve" smooth="yes"/>
      <point x="27" y="401"/>
      <point x="69" y="439"/>
      <point x="142" y="439" type="curve" smooth="yes"/>
      <point x="218" y="439"/>
      <point x="257" y="395"/>
      <point x="265" y="308" type="curve"/>
      <point x="334" y="308" type="line"/>
      <point x="334" y="549" type="line"/>
      <point x="-10" y="549" type="line"/>
      <point x="-10" y="606" type="line"/>
      <point x="473" y="606" type="line"/>
    </contour>
  </outline>
</glyph>
<glyph name="tthadeva" format="1">
  <advance width="377"/>
  <unicode hex="0920"/>
  <outline>
    <contour>
      <point x="197" y="0" type="move" name="Anchor-3"/>
    </contour>
    <contour>
      <point x="251" y="606" type="move" name="Anchor-2"/>
    </contour>
    <contour>
      <point x="282" y="549" type="line"/>
      <point x="282" y="412" type="line"/>
      <point x="327" y="374"/>
      <point x="351" y="315"/>
      <point x="351" y="241" type="curve" smooth="yes"/>
      <point x="351" y="118"/>
      <point x="289" y="54"/>
      <point x="187" y="54" type="curve" smooth="yes"/>
      <point x="86" y="54"/>
      <point x="26" y="118"/>
      <point x="26" y="241" type="curve" smooth="yes"/>
      <point x="26" y="363"/>
      <point x="87" y="434"/>
      <point x="196" y="434" type="curve" smooth="yes"/>
      <point x="220" y="434" type="line"/>
      <point x="220" y="549" type="line"/>
      <point x="-10" y="549" type="line"/>
      <point x="-10" y="606" type="line"/>
      <point x="387" y="606" type="line"/>
      <point x="387" y="549" type="line"/>
    </contour>
    <contour>
      <point x="187" y="111" type="curve" smooth="yes"/>
      <point x="249" y="111"/>
      <point x="284" y="155"/>
      <point x="284" y="240" type="curve" smooth="yes"/>
      <point x="284" y="305"/>
      <point x="262" y="353"/>
      <point x="229" y="379" type="curve"/>
      <point x="195" y="379" type="line" smooth="yes"/>
      <point x="133" y="379"/>
      <point x="92" y="331"/>
      <point x="92" y="241" type="curve" smooth="yes"/>
      <point x="92" y="155"/>
      <point x="127" y="111"/>
    </contour>
  </outline>
</glyph>
<glyph name="dadeva" format="1">
  <advance width="370"/>
  <unicode hex="0926"/>
  <outline>
    <contour>
      <point x="300" y="0" type="move" name="Anchor-3"/>
    </contour>
    <contour>
      <point x="260" y="606" type="move" name="Anchor-2"/>
    </contour>
    <contour>
      <point x="291" y="379" type="line"/>
      <point x="185" y="379" type="line" smooth="yes"/>
      <point x="133" y="379"/>
      <point x="93" y="336"/>
      <point x="93" y="252" type="curve" smooth="yes"/>
      <point x="93" y="175"/>
      <point x="125" y="137"/>
      <point x="168" y="137" type="curve" smooth="yes"/>
      <point x="192" y="137"/>
      <point x="212" y="149"/>
      <point x="228" y="169" type="curve"/>
      <point x="218" y="209" type="line"/>
      <point x="281" y="209" type="line"/>
      <point x="331" y="0" type="line"/>
      <point x="268" y="0" type="line"/>
      <point x="242" y="110" type="line"/>
      <point x="226" y="94"/>
      <point x="200" y="77"/>
      <point x="159" y="77" type="curve" smooth="yes"/>
      <point x="87" y="77"/>
      <point x="27" y="132"/>
      <point x="27" y="249" type="curve" smooth="yes"/>
      <point x="27" y="367"/>
      <point x="87" y="434"/>
      <point x="186" y="434" type="curve" smooth="yes"/>
      <point x="229" y="434" type="line"/>
      <point x="229" y="549" type="line"/>
      <point x="-10" y="549" type="line"/>
      <point x="-10" y="606" type="line"/>
      <point x="380" y="606" type="line"/>
      <point x="380" y="549" type="line"/>
      <point x="291" y="549" type="line"/>
    </contour>
  </outline>
</glyph>
<glyph name="nnnadeva" format="1">
  <advance width="432"/>
  <unicode hex="0929"/>
  <outline>
    <contour>
      <point x="334" y="0" type="move" name="Anchor-3"/>
    </contour>
    <contour>
      <point x="334" y="606" type="move" name="Anchor-2"/>
    </contour>
    <contour>
      <point x="442" y="549" type="line"/>
      <point x="366" y="549" type="line"/>
      <point x="366" y="0" type="line"/>
      <point x="303" y="0" type="line"/>
      <point x="303" y="329" type="line"/>
      <point x="212" y="329" type="line"/>
      <point x="212" y="284" type="line" smooth="yes"/>
      <point x="212" y="222"/>
      <point x="169" y="180"/>
      <point x="107" y="180" type="curve" smooth="yes"/>
      <point x="46" y="180"/>
      <point x="-2" y="226"/>
      <point x="-2" y="284" type="curve" smooth="yes"/>
      <point x="-2" y="346"/>
      <point x="42" y="387"/>
      <point x="105" y="387" type="curve" smooth="yes"/>
      <point x="303" y="387" type="line"/>
      <point x="303" y="549" type="line"/>
      <point x="-10" y="549" type="line"/>
      <point x="-10" y="606" type="line"/>
      <point x="442" y="606" type="line"/>
    </contour>
    <contour>
      <point x="149" y="329" type="line"/>
      <point x="105" y="329" type="line" smooth="yes"/>
      <point x="81" y="329"/>
      <point x="62" y="311"/>
      <point x="62" y="284" type="curve" smooth="yes"/>
      <point x="62" y="257"/>
      <point x="82" y="237"/>
      <point x="107" y="237" type="curve" smooth="yes"/>
      <point x="133" y="237"/>
      <point x="149" y="255"/>
      <point x="149" y="284" type="curve" smooth="yes"/>
    </contour>
    <contour>
      <point x="145" y="103" type="line"/>
      <point x="209" y="103" type="line"/>
      <point x="209" y="39" type="line"/>
      <point x="145" y="39" type="line"/>
    </contour>
  </outline>
</glyph>
<glyph name="sadeva" format="1">
  <advance width="465"/>
  <unicode hex="0938"/>
  <outline>
    <contour>
      <point x="367" y="0" type="move" name="Anchor-3"/>
    </contour>
    <contour>
      <point x="367" y="606" type="move" name="Anchor-2"/>
    </contour>
    <contour>
      <point x="475" y="549" type="line"/>
      <point x="399" y="549" type="line"/>
      <point x="399" y="0" type="line"/>
      <point x="336" y="0" type="line"/>
      <point x="336" y="204" type="line"/>
      <point x="138" y="204" type="line"/>
      <point x="236" y="0" type="line"/>
      <point x="168" y="0" type="line"/>
      <point x="49" y="259" type="line"/>
      <point x="49" y="298" type="line"/>
      <point x="82" y="298" type="line" smooth="yes"/>
      <point x="132" y="298"/>
      <point x="158" y="332"/>
      <point x="158" y="394" type="curve" smooth="yes"/>
      <point x="158" y="549" type="line"/>
      <point x="-10" y="549" type="line"/>
      <point x="-10" y="606" type="line"/>
      <point x="475" y="606" type="line"/>
    </contour>
    <contour>
      <point x="336" y="549" type="line"/>
      <point x="221" y="549" type="line"/>
      <point x="221" y="398" type="line" smooth="yes"/>
      <point x="221" y="321"/>
      <point x="193" y="272"/>
      <point x="142" y="256" type="curve"/>
      <point x="336" y="256" type="line"/>
    </contour>
  </outline>
</glyph>
<glyph name="hadeva" format="1">
  <advance width="342"/>
  <unicode hex="0939"/>
  <outline>
    <contour>
      <point x="208" y="-30" type="move" name="Anchor-3"/>
    </contour>
    <contour>
      <point x="256" y="606" type="move" name="Anchor-2"/>
    </contour>
    <contour>
      <point x="287" y="375" type="line"/>
      <point x="157" y="375" type="line" smooth="yes"/>
      <point x="119" y="375"/>
      <point x="105" y="359"/>
      <point x="105" y="331" type="curve" smooth="yes"/>
      <point x="105" y="298"/>
      <point x="128" y="289"/>
      <point x="164" y="285" type="curve"/>
      <point x="172" y="285" type="line" smooth="yes"/>
      <point x="247" y="285"/>
      <point x="302" y="249"/>
      <point x="302" y="168" type="curve" smooth="yes"/>
      <point x="302" y="157"/>
      <point x="301" y="149"/>
      <point x="300" y="142" type="curve"/>
      <point x="239" y="142" type="line"/>
      <point x="239" y="157" type="line" smooth="yes"/>
      <point x="239" y="204"/>
      <point x="214" y="227"/>
      <point x="174" y="227" type="curve" smooth="yes"/>
      <point x="131" y="227"/>
      <point x="100" y="200"/>
      <point x="100" y="140" type="curve" smooth="yes"/>
      <point x="100" y="63"/>
      <point x="151" y="25"/>
      <point x="234" y="25" type="curve" smooth="yes"/>
      <point x="280" y="25" type="line"/>
      <point x="280" y="-26" type="line"/>
      <point x="271" y="-29"/>
      <point x="250" y="-31"/>
      <point x="232" y="-31" type="curve" smooth="yes"/>
      <point x="108" y="-31"/>
      <point x="36" y="29"/>
      <point x="36" y="143" type="curve" smooth="yes"/>
      <point x="36" y="195"/>
      <point x="51" y="233"/>
      <point x="80" y="257" type="curve"/>
      <point x="44" y="276"/>
      <point x="38" y="306"/>
      <point x="38" y="332" type="curve" smooth="yes"/>
      <point x="38" y="390"/>
      <point x="76" y="430"/>
      <point x="158" y="430" type="curve" smooth="yes"/>
      <point x="227" y="430" type="line"/>
      <point x="227" y="549" type="line"/>
      <point x="-10" y="549" type="line"/>
      <point x="-10" y="606" type="line"/>
      <point x="362" y="606" type="line"/>
      <point x="362" y="549" type="line"/>
      <point x="287" y="549" type="line"/>
    </contour>
  </outline>
</glyph>
<glyph name="ooeMatradeva" format="1">
  <advance width="195"/>
  <unicode hex="093B"/>
  <outline>
    <contour>
      <point x="97" y="0" type="move" name="Anchor-3"/>
    </contour>
    <contour>
      <point x="97" y="606" type="move" name="Anchor-2"/>
    </contour>
    <contour>
      <point x="205" y="549" type="line"/>
      <point x="129" y="549" type="line"/>
      <point x="129" y="0" type="line"/>
      <point x="66" y="0" type="line"/>
      <point x="66" y="549" type="line"/>
      <point x="-10" y="549" type="line"/>
      <point x="-10" y="606" type="line"/>
      <point x="66" y="606" type="line"/>
      <point x="66" y="792" type="line"/>
      <point x="129" y="792" type="line"/>
      <point x="129" y="606" type="line"/>
      <point x="205" y="606" type="line"/>
    </contour>
  </outline>
</glyph>
<glyph name="avagrahadeva" format="1">
  <advance width="361"/>
  <unicode hex="093D"/>
  <outline>
    <contour>
      <point x="347" y="549" type="line"/>
      <point x="171" y="549" type="line" smooth="yes"/>
      <point x="134" y="549"/>
      <point x="103" y="523"/>
      <point x="103" y="477" type="curve" smooth="yes"/>
      <point x="103" y="415"/>
      <point x="161" y="369"/>
      <point x="207" y="328" type="curve" smooth="yes"/>
      <point x="283" y="263"/>
      <point x="325" y="222"/>
      <point x="325" y="140" type="curve" smooth="yes"/>
      <point x="325" y="42"/>
      <point x="264" y="-11"/>
      <point x="174" y="-11" type="curve" smooth="yes"/>
      <point x="71" y="-11"/>
      <point x="29" y="58"/>
      <point x="29" y="130" type="curve" smooth="yes"/>
      <point x="29" y="138"/>
      <point x="29" y="143"/>
      <point x="30" y="157" type="curve"/>
      <point x="97" y="157" type="line"/>
      <point x="97" y="135" type="line" smooth="yes"/>
      <point x="97" y="74"/>
      <point x="136" y="46"/>
      <point x="178" y="46" type="curve" smooth="yes"/>
      <point x="224" y="46"/>
      <point x="258" y="80"/>
      <point x="258" y="141" type="curve" smooth="yes"/>
      <point x="258" y="202"/>
      <point x="225" y="238"/>
      <point x="154" y="297" type="curve" smooth="yes"/>
      <point x="90" y="351"/>
      <point x="37" y="398"/>
      <point x="37" y="480" type="curve" smooth="yes"/>
      <point x="37" y="564"/>
      <point x="93" y="606"/>
      <point x="176" y="606" type="curve" smooth="yes"/>
      <point x="347" y="606" type="line"/>
    </contour>
  </outline>
</glyph>
<glyph name="rVocalicMatradeva" format="1">
  <advance width="0"/>
  <unicode hex="0943"/>
  <outline>
    <contour>
      <point x="-97" y="0" type="move" name="_Anchor-4"/>
    </contour>
    <contour>
      <point x="-97" y="0" type="move" name="_Anchor-3"/>
    </contour>
    <contour>
      <point x="-97" y="0" type="move" name="_Anchor-1"/>
    </contour>
    <contour>
      <point x="-103" y="57" type="curve" smooth="yes"/>
      <point x="-91" y="57"/>
      <point x="-78" y="56"/>
      <point x="-66" y="52" type="curve"/>
      <point x="-66" y="0" type="line"/>
      <point x="-101" y="0" type="line" smooth="yes"/>
      <point x="-139" y="0"/>
      <point x="-166" y="-28"/>
      <point x="-166" y="-61" type="curve" smooth="yes"/>
      <point x="-166" y="-95"/>
      <point x="-139" y="-123"/>
      <point x="-101" y="-123" type="curve" smooth="yes"/>
      <point x="-71" y="-123"/>
      <point x="-49" y="-118"/>
      <point x="-26" y="-111" type="curve"/>
      <point x="-26" y="-164" type="line"/>
      <point x="-48" y="-172"/>
      <point x="-75" y="-180"/>
      <point x="-103" y="-180" type="curve" smooth="yes"/>
      <point x="-167" y="-180"/>
      <point x="-230" y="-134"/>
      <point x="-230" y="-60" type="curve" smooth="yes"/>
      <point x="-230" y="14"/>
      <point x="-167" y="57"/>
    </contour>
  </outline>
</glyph>
<glyph name="rrVocalicMatradeva" format="1">
  <advance width="0"/>
  <unicode hex="0944"/>
  <outline>
    <contour>
      <point x="-97" y="0" type="move" name="_Anchor-4"/>
    </contour>
    <contour>
      <point x="-97" y="0" type="move" name="_Anchor-3"/>
    </contour>
    <contour>
      <point x="-97" y="0" type="move" name="_Anchor-1"/>
    </contour>
    <contour>
      <point x="-101" y="-260" type="curve" smooth="yes"/>
      <point x="-71" y="-260"/>
      <point x="-49" y="-256"/>
      <point x="-26" y="-249" type="curve"/>
      <point x="-26" y="-301" type="line"/>
      <point x="-48" y="-309"/>
      <point x="-75" y="-317"/>
      <point x="-103" y="-317" type="curve" smooth="yes"/>
      <point x="-167" y="-317"/>
      <point x="-230" y="-276"/>
      <point x="-230" y="-210" type="curve" smooth="yes"/>
      <point x="-230" y="-171"/>
      <point x="-211" y="-143"/>
      <point x="-185" y="-126" type="curve"/>
      <point x="-212" y="-109"/>
      <point x="-230" y="-82"/>
      <point x="-230" y="-47" type="curve" smooth="yes"/>
      <point x="-230" y="17"/>
      <point x="-174" y="57"/>
      <point x="-116" y="57" type="curve" smooth="yes"/>
      <point x="-100" y="57"/>
      <point x="-82" y="56"/>
      <point x="-66" y="52" type="curve"/>
      <point x="-66" y="0" type="line"/>
      <point x="-112" y="0" type="line" smooth="yes"/>
      <point x="-148" y="0"/>
      <point x="-166" y="-24"/>
      <point x="-166" y="-52" type="curve" smooth="yes"/>
      <point x="-166" y="-80"/>
      <point x="-139" y="-104"/>
      <point x="-101" y="-104" type="curve" smooth="yes"/>
      <point x="-66" y="-104" type="line"/>
      <point x="-66" y="-156" type="line"/>
      <point x="-112" y="-156" type="line" smooth="yes"/>
      <point x="-148" y="-156"/>
      <point x="-166" y="-180"/>
      <point x="-166" y="-208" type="curve" smooth="yes"/>
      <point x="-166" y="-236"/>
      <point x="-139" y="-260"/>
    </contour>
  </outline>
</glyph>
<glyph name="eCandraMatradeva" format="1">
  <advance width="0"/>
  <unicode hex="0945"/>
  <outline>
    <contour>
      <point x="-97" y="606" type="move" name="_Anchor-5"/>
    </contour>
    <contour>
      <point x="-97" y="606" type="move" name="_Anchor-2"/>
    </contour>
    <contour>
      <point x="-97" y="606" type="move" name="_Anchor-0"/>
    </contour>
    <contour>
      <point x="-23" y="801" type="curve"/>
      <point x="40" y="801" type="line"/>
      <point x="39" y="725"/>
      <point x="-11" y="672"/>
      <point x="-98" y="672" type="curve" smooth="yes"/>
      <point x="-183" y="672"/>
      <point x="-234" y="725"/>
      <point x="-234" y="801" type="curve"/>
      <point x="-170" y="801" type="line"/>
      <point x="-170" y="748"/>
      <point x="-134" y="723"/>
      <point x="-98" y="723" type="curve" smooth="yes"/>
      <point x="-55" y="723"/>
      <point x="-23" y="748"/>
    </contour>
  </outline>
</glyph>
<glyph name="eShortMatradeva" format="1">
  <advance width="0"/>
  <unicode hex="0946"/>
  <outline>
    <contour>
      <point x="-98" y="606" type="move" name="_Anchor-5"/>
    </contour>
    <contour>
      <point x="-98" y="606" type="move" name="_Anchor-2"/>
    </contour>
    <contour>
      <point x="-98" y="606" type="move" name="_Anchor-0"/>
    </contour>
    <contour>
      <point x="-128" y="573" type="line"/>
      <point x="-128" y="662" type="line" smooth="yes"/>
      <point x="-128" y="692"/>
      <point x="-144" y="705"/>
      <point x="-179" y="705" type="curve" smooth="yes"/>
      <point x="-316" y="705" type="line" smooth="yes"/>
      <point x="-395" y="705"/>
      <point x="-428" y="735"/>
      <point x="-428" y="805" type="curve" smooth="yes"/>
      <point x="-428" y="827" type="line"/>
      <point x="-366" y="827" type="line"/>
      <point x="-366" y="805" type="line" smooth="yes"/>
      <point x="-366" y="774"/>
      <point x="-352" y="761"/>
      <point x="-316" y="761" type="curve" smooth="yes"/>
      <point x="-179" y="761" type="line" smooth="yes"/>
      <point x="-100" y="761"/>
      <point x="-66" y="731"/>
      <point x="-66" y="662" type="curve" smooth="yes"/>
      <point x="-66" y="573" type="line"/>
    </contour>
  </outline>
</glyph>
<glyph name="eMatradeva" format="1">
  <advance width="0"/>
  <unicode hex="0947"/>
  <outline>
    <contour>
      <point x="-97" y="606" type="move" name="_Anchor-5"/>
    </contour>
    <contour>
      <point x="-97" y="606" type="move" name="_Anchor-2"/>
    </contour>
    <contour>
      <point x="-97" y="606" type="move" name="_Anchor-0"/>
    </contour>
    <contour>
      <point x="-64" y="606" type="line"/>
      <point x="-64" y="549" type="line"/>
      <point x="-136" y="549" type="line"/>
      <point x="-136" y="606" type="line"/>
      <point x="-128" y="606" type="line"/>
      <point x="-196" y="821" type="line"/>
      <point x="-133" y="821" type="line"/>
      <point x="-74" y="606" type="line"/>
    </contour>
  </outline>
</glyph>
<glyph name="aiMatradeva" format="1">
  <advance width="0"/>
  <unicode hex="0948"/>
  <outline>
    <contour>
      <point x="-95" y="606" type="move" name="_Anchor-5"/>
    </contour>
    <contour>
      <point x="-95" y="606" type="move" name="_Anchor-2"/>
    </contour>
    <contour>
      <point x="-95" y="606" type="move" name="_Anchor-0"/>
    </contour>
    <contour>
      <point x="-59" y="606" type="line"/>
      <point x="-59" y="549" type="line"/>
      <point x="-202" y="549" type="line"/>
      <point x="-202" y="606" type="line"/>
      <point x="-194" y="606" type="line"/>
      <point x="-262" y="821" type="line"/>
      <point x="-199" y="821" type="line"/>
      <point x="-140" y="606" type="line"/>
      <point x="-123" y="606" type="line"/>
      <point x="-128" y="652"/>
      <point x="-131" y="697"/>
      <point x="-131" y="743" type="curve" smooth="yes"/>
      <point x="-131" y="821" type="line"/>
      <point x="-69" y="821" type="line"/>
      <point x="-69" y="606" type="line"/>
    </contour>
  </outline>
</glyph>
<glyph name="oCandraMatradeva" format="1">
  <advance width="195"/>
  <unicode hex="0949"/>
  <outline>
    <contour>
      <point x="97" y="0" type="move" name="Anchor-3"/>
    </contour>
    <contour>
      <point x="97" y="606" type="move" name="Anchor-2"/>
    </contour>
    <contour>
      <point x="96" y="672" type="curve" smooth="yes"/>
      <point x="11" y="672"/>
      <point x="-40" y="725"/>
      <point x="-40" y="801" type="curve"/>
      <point x="24" y="801" type="line"/>
      <point x="24" y="748"/>
      <point x="60" y="723"/>
      <point x="96" y="723" type="curve" smooth="yes"/>
      <point x="139" y="723"/>
      <point x="171" y="748"/>
      <point x="171" y="801" type="curve"/>
      <point x="234" y="801" type="line"/>
      <point x="233" y="725"/>
      <point x="183" y="672"/>
    </contour>
    <contour>
      <point x="205" y="606" type="line"/>
      <point x="205" y="549" type="line"/>
      <point x="129" y="549" type="line"/>
      <point x="129" y="0" type="line"/>
      <point x="66" y="0" type="line"/>
      <point x="66" y="549" type="line"/>
      <point x="-10" y="549" type="line"/>
      <point x="-10" y="606" type="line"/>
    </contour>
  </outline>
</glyph>
<glyph name="oMatradeva" format="1">
  <advance width="195"/>
  <unicode hex="094B"/>
  <outline>
    <contour>
      <point x="97" y="0" type="move" name="Anchor-3"/>
    </contour>
    <contour>
      <point x="97" y="606" type="move" name="Anchor-2"/>
    </contour>
    <contour>
      <point x="205" y="606" type="line"/>
      <point x="205" y="549" type="line"/>
      <point x="129" y="549" type="line"/>
      <point x="129" y="0" type="line"/>
      <point x="66" y="0" type="line"/>
      <point x="66" y="549" type="line"/>
      <point x="-10" y="549" type="line"/>
      <point x="-10" y="606" type="line"/>
      <point x="66" y="606" type="line"/>
      <point x="-2" y="821" type="line"/>
      <point x="61" y="821" type="line"/>
      <point x="120" y="606" type="line"/>
    </contour>
  </outline>
</glyph>
<glyph name="auMatradeva" format="1">
  <advance width="195"/>
  <unicode hex="094C"/>
  <outline>
    <contour>
      <point x="97" y="0" type="move" name="Anchor-3"/>
    </contour>
    <contour>
      <point x="97" y="606" type="move" name="Anchor-2"/>
    </contour>
    <contour>
      <point x="205" y="606" type="line"/>
      <point x="205" y="549" type="line"/>
      <point x="129" y="549" type="line"/>
      <point x="129" y="0" type="line"/>
      <point x="66" y="0" type="line"/>
      <point x="66" y="549" type="line"/>
      <point x="-10" y="549" type="line"/>
      <point x="-10" y="606" type="line"/>
      <point x="-2" y="606" type="line"/>
      <point x="-70" y="821" type="line"/>
      <point x="-7" y="821" type="line"/>
      <point x="52" y="606" type="line"/>
      <point x="69" y="606" type="line"/>
      <point x="64" y="652"/>
      <point x="61" y="697"/>
      <point x="61" y="743" type="curve" smooth="yes"/>
      <point x="61" y="821" type="line"/>
      <point x="123" y="821" type="line"/>
      <point x="123" y="606" type="line"/>
    </contour>
  </outline>
</glyph>
<glyph name="prishthaMatraEdeva" format="1">
  <advance width="195"/>
  <unicode hex="094E"/>
  <outline>
    <contour>
      <point x="98" y="0" type="move" name="Anchor-3"/>
    </contour>
    <contour>
      <point x="100" y="606" type="move" name="Anchor-2"/>
    </contour>
    <contour>
      <point x="205" y="549" type="line"/>
      <point x="129" y="549" type="line"/>
      <point x="129" y="0" type="line"/>
      <point x="66" y="0" type="line"/>
      <point x="66" y="606" type="line"/>
      <point x="205" y="606" type="line"/>
    </contour>
  </outline>
</glyph>
<glyph name="gravedeva" format="1">
  <advance width="0"/>
  <unicode hex="0953"/>
  <outline>
    <contour>
      <point x="-98" y="606" type="move" name="_Anchor-5"/>
    </contour>
    <contour>
      <point x="-98" y="606" type="move" name="_Anchor-2"/>
    </contour>
    <contour>
      <point x="-98" y="606" type="move" name="_Anchor-0"/>
    </contour>
    <contour>
      <point x="-218" y="792" type="line"/>
      <point x="-217" y="795" type="line"/>
      <point x="-146" y="795" type="line"/>
      <point x="-70" y="678" type="line"/>
      <point x="-123" y="678" type="line"/>
    </contour>
  </outline>
</glyph>
<glyph name="eLongCandradeva" format="1">
  <advance width="0"/>
  <unicode hex="0955"/>
  <outline>
    <contour>
      <point x="-97" y="606" type="move" name="_Anchor-5"/>
    </contour>
    <contour>
      <point x="-97" y="606" type="move" name="_Anchor-2"/>
    </contour>
    <contour>
      <point x="-97" y="606" type="move" name="_Anchor-0"/>
    </contour>
    <contour>
      <point x="-23" y="827" type="curve"/>
      <point x="40" y="827" type="line"/>
      <point x="37" y="758"/>
      <point x="-11" y="711"/>
      <point x="-98" y="711" type="curve" smooth="yes"/>
      <point x="-183" y="711"/>
      <point x="-234" y="758"/>
      <point x="-234" y="827" type="curve"/>
      <point x="-170" y="827" type="line"/>
      <point x="-170" y="781"/>
      <point x="-134" y="760"/>
      <point x="-98" y="760" type="curve" smooth="yes"/>
      <point x="-55" y="760"/>
      <point x="-23" y="781"/>
    </contour>
    <contour>
      <point x="-224" y="690" type="line"/>
      <point x="29" y="690" type="line"/>
      <point x="29" y="637" type="line"/>
      <point x="-224" y="637" type="line"/>
    </contour>
  </outline>
</glyph>
<glyph name="uueMatradeva" format="1">
  <advance width="0"/>
  <unicode hex="0957"/>
  <outline>
    <contour>
      <point x="-108" y="-30" type="curve"/>
      <point x="-56" y="-30" type="line"/>
      <point x="-60" y="-84"/>
      <point x="-107" y="-144"/>
      <point x="-206" y="-144" type="curve" smooth="yes"/>
      <point x="-307" y="-144"/>
      <point x="-353" y="-84"/>
      <point x="-357" y="-30" type="curve"/>
      <point x="-305" y="-30" type="line"/>
      <point x="-295" y="-54"/>
      <point x="-270" y="-92"/>
      <point x="-206" y="-92" type="curve" smooth="yes"/>
      <point x="-143" y="-92"/>
      <point x="-118" y="-54"/>
    </contour>
    <contour>
      <point x="-108" y="-160" type="curve"/>
      <point x="-56" y="-160" type="line"/>
      <point x="-60" y="-214"/>
      <point x="-107" y="-274"/>
      <point x="-206" y="-274" type="curve" smooth="yes"/>
      <point x="-307" y="-274"/>
      <point x="-353" y="-214"/>
      <point x="-357" y="-160" type="curve"/>
      <point x="-305" y="-160" type="line"/>
      <point x="-295" y="-184"/>
      <point x="-270" y="-222"/>
      <point x="-206" y="-222" type="curve" smooth="yes"/>
      <point x="-143" y="-222"/>
      <point x="-118" y="-184"/>
    </contour>
  </outline>
</glyph>
<glyph name="zadeva" format="1">
  <advance width="457"/>
  <unicode hex="095B"/>
  <outline>
    <contour>
      <point x="365" y="0" type="move" name="Anchor-3"/>
    </contour>
    <contour>
      <point x="365" y="606" type="move" name="Anchor-2"/>
    </contour>
    <contour>
      <point x="468" y="549" type="line"/>
      <point x="392" y="549" type="line"/>
      <point x="392" y="0" type="line"/>
      <point x="329" y="0" type="line"/>
      <point x="329" y="361" type="line"/>
      <point x="263" y="361" type="line"/>
      <point x="263" y="240" type="line" smooth="yes"/>
      <point x="263" y="157"/>
      <point x="219" y="112"/>
      <point x="146" y="112" type="curve" smooth="yes"/>
      <point x="68" y="112"/>
      <point x="29" y="157"/>
      <point x="29" y="240" type="curve" smooth="yes"/>
      <point x="29" y="419" type="line"/>
      <point x="91" y="419" type="line"/>
      <point x="91" y="234" type="line" smooth="yes"/>
      <point x="91" y="193"/>
      <point x="110" y="171"/>
      <point x="146" y="171" type="curve" smooth="yes"/>
      <point x="178" y="171"/>
      <point x="200" y="193"/>
      <point x="200" y="234" type="curve" smooth="yes"/>
      <point x="200" y="361" type="line"/>
      <point x="199" y="361" type="line"/>
      <point x="199" y="419" type="line"/>
      <point x="329" y="419" type="line"/>
      <point x="329" y="549" type="line"/>
      <point x="-10" y="549" type="line"/>
      <point x="-10" y="606" type="line"/>
      <point x="468" y="606" type="line"/>
    </contour>
    <contour>
      <point x="79" y="20" type="line"/>
      <point x="143" y="20" type="line"/>
      <point x="143" y="-44" type="line"/>
      <point x="79" y="-44" type="line"/>
    </contour>
  </outline>
</glyph>
<glyph name="yyadeva" format="1">
  <advance width="417"/>
  <unicode hex="095F"/>
  <outline>
    <contour>
      <point x="319" y="0" type="move" name="Anchor-3"/>
    </contour>
    <contour>
      <point x="319" y="606" type="move" name="Anchor-2"/>
    </contour>
    <contour>
      <point x="427" y="549" type="line"/>
      <point x="351" y="549" type="line"/>
      <point x="351" y="0" type="line"/>
      <point x="288" y="0" type="line"/>
      <point x="288" y="173" type="line"/>
      <point x="264" y="141"/>
      <point x="224" y="130"/>
      <point x="183" y="130" type="curve" smooth="yes"/>
      <point x="88" y="130"/>
      <point x="29" y="207"/>
      <point x="29" y="353" type="curve"/>
      <point x="99" y="353"/>
      <point x="129" y="401"/>
      <point x="129" y="446" type="curve" smooth="yes"/>
      <point x="129" y="505"/>
      <point x="91" y="549"/>
      <point x="46" y="549" type="curve" smooth="yes"/>
      <point x="-10" y="549" type="line"/>
      <point x="-10" y="606" type="line"/>
      <point x="427" y="606" type="line"/>
    </contour>
    <contour>
      <point x="194" y="185" type="curve" smooth="yes"/>
      <point x="253" y="185"/>
      <point x="288" y="220"/>
      <point x="288" y="316" type="curve" smooth="yes"/>
      <point x="288" y="549" type="line"/>
      <point x="149" y="549" type="line"/>
      <point x="178" y="525"/>
      <point x="194" y="485"/>
      <point x="194" y="447" type="curve" smooth="yes"/>
      <point x="194" y="373"/>
      <point x="152" y="328"/>
      <point x="97" y="308" type="curve"/>
      <point x="107" y="218"/>
      <point x="147" y="185"/>
    </contour>
    <contour>
      <point x="41" y="70" type="line"/>
      <point x="105" y="70" type="line"/>
      <point x="105" y="6" type="line"/>
      <point x="41" y="6" type="line"/>
    </contour>
  </outline>
</glyph>
<glyph name="lVocalicMatradeva" format="1">
  <advance width="0"/>
  <unicode hex="0962"/>
  <outline>
    <contour>
      <point x="-98" y="0" type="move" name="_Anchor-4"/>
    </contour>
    <contour>
      <point x="-98" y="0" type="move" name="_Anchor-3"/>
    </contour>
    <contour>
      <point x="-98" y="0" type="move" name="_Anchor-1"/>
    </contour>
    <contour>
      <point x="-58" y="-187" type="curve" smooth="yes"/>
      <point x="-58" y="-132"/>
      <point x="-10" y="-83"/>
      <point x="-10" y="-29" type="curve" smooth="yes"/>
      <point x="-10" y="-4"/>
      <point x="-21" y="3"/>
      <point x="-37" y="3" type="curve" smooth="yes"/>
      <point x="-60" y="3"/>
      <point x="-66" y="-13"/>
      <point x="-66" y="-38" type="curve" smooth="yes"/>
      <point x="-66" y="-66" type="line"/>
      <point x="-130" y="-66" type="line"/>
      <point x="-130" y="-38" type="line" smooth="yes"/>
      <point x="-130" y="-14"/>
      <point x="-137" y="3"/>
      <point x="-155" y="3" type="curve" smooth="yes"/>
      <point x="-174" y="3"/>
      <point x="-181" y="-15"/>
      <point x="-181" y="-51" type="curve" smooth="yes"/>
      <point x="-181" y="-99"/>
      <point x="-169" y="-122"/>
      <point x="-140" y="-122" type="curve" smooth="yes"/>
      <point x="-133" y="-122" type="line"/>
      <point x="-133" y="-171" type="line"/>
      <point x="-142" y="-171" type="line" smooth="yes"/>
      <point x="-211" y="-171"/>
      <point x="-243" y="-131"/>
      <point x="-243" y="-53" type="curve" smooth="yes"/>
      <point x="-243" y="24"/>
      <point x="-211" y="56"/>
      <point x="-165" y="56" type="curve" smooth="yes"/>
      <point x="-127" y="56"/>
      <point x="-108" y="34"/>
      <point x="-98" y="2" type="curve"/>
      <point x="-89" y="29"/>
      <point x="-72" y="56"/>
      <point x="-24" y="56" type="curve" smooth="yes"/>
      <point x="15" y="56"/>
      <point x="51" y="38"/>
      <point x="51" y="-19" type="curve" smooth="yes"/>
      <point x="51" y="-85"/>
      <point x="4" y="-132"/>
      <point x="4" y="-178" type="curve" smooth="yes"/>
      <point x="4" y="-199"/>
      <point x="14" y="-209"/>
      <point x="36" y="-209" type="curve" smooth="yes"/>
      <point x="51" y="-209"/>
      <point x="70" y="-204"/>
      <point x="83" y="-197" type="curve"/>
      <point x="83" y="-248" type="line"/>
      <point x="69" y="-257"/>
      <point x="46" y="-264"/>
      <point x="25" y="-264" type="curve" smooth="yes"/>
      <point x="-16" y="-264"/>
      <point x="-58" y="-240"/>
    </contour>
  </outline>
</glyph>
<glyph name="zerodeva" format="1">
  <advance width="393"/>
  <unicode hex="0966"/>
  <outline>
    <contour>
      <point x="197" y="516" type="curve" smooth="yes"/>
      <point x="295" y="516"/>
      <point x="348" y="451"/>
      <point x="348" y="318" type="curve" smooth="yes"/>
      <point x="348" y="185"/>
      <point x="295" y="120"/>
      <point x="197" y="120" type="curve" smooth="yes"/>
      <point x="98" y="120"/>
      <point x="46" y="185"/>
      <point x="46" y="318" type="curve" smooth="yes"/>
      <point x="46" y="451"/>
      <point x="98" y="516"/>
    </contour>
    <contour>
      <point x="197" y="458" type="curve" smooth="yes"/>
      <point x="136" y="458"/>
      <point x="109" y="416"/>
      <point x="109" y="331" type="curve" smooth="yes"/>
      <point x="109" y="306" type="line" smooth="yes"/>
      <point x="109" y="221"/>
      <point x="136" y="178"/>
      <point x="197" y="178" type="curve" smooth="yes"/>
      <point x="257" y="178"/>
      <point x="284" y="221"/>
      <point x="284" y="306" type="curve" smooth="yes"/>
      <point x="284" y="331" type="line" smooth="yes"/>
      <point x="284" y="416"/>
      <point x="257" y="458"/>
    </contour>
  </outline>
</glyph>
<glyph name="onedeva" format="1">
  <advance width="320"/>
  <unicode hex="0967"/>
  <outline>
    <contour>
      <point x="127" y="235" type="curve"/>
      <point x="225" y="132" type="line"/>
      <point x="246" y="107"/>
      <point x="260" y="84"/>
      <point x="260" y="56" type="curve" smooth="yes"/>
      <point x="260" y="39"/>
      <point x="256" y="20"/>
      <point x="244" y="0" type="curve"/>
      <point x="193" y="0" type="line"/>
      <point x="199" y="26"/>
      <point x="200" y="46"/>
      <point x="200" y="51" type="curve" smooth="yes"/>
      <point x="200" y="62"/>
      <point x="196" y="75"/>
      <point x="183" y="89" type="curve" smooth="yes"/>
      <point x="62" y="217" type="line"/>
      <point x="64" y="264" type="line"/>
      <point x="110" y="290"/>
      <point x="159" y="328"/>
      <point x="189" y="383" type="curve"/>
      <point x="181" y="383" type="line" smooth="yes"/>
      <point x="96" y="383"/>
      <point x="39" y="437"/>
      <point x="39" y="517" type="curve" smooth="yes"/>
      <point x="39" y="592"/>
      <point x="90" y="637"/>
      <point x="161" y="637" type="curve" smooth="yes"/>
      <point x="228" y="637"/>
      <point x="279" y="596"/>
      <point x="279" y="498" type="curve" smooth="yes"/>
      <point x="279" y="374"/>
      <point x="197" y="287"/>
    </contour>
    <contour>
      <point x="178" y="437" type="curve" smooth="yes"/>
      <point x="209" y="437" type="line"/>
      <point x="214" y="455"/>
      <point x="216" y="475"/>
      <point x="216" y="496" type="curve" smooth="yes"/>
      <point x="216" y="559"/>
      <point x="194" y="580"/>
      <point x="161" y="580" type="curve" smooth="yes"/>
      <point x="124" y="580"/>
      <point x="102" y="556"/>
      <point x="102" y="512" type="curve" smooth="yes"/>
      <point x="102" y="463"/>
      <point x="130" y="437"/>
    </contour>
  </outline>
</glyph>
<glyph name="twodeva" format="1">
  <advance width="370"/>
  <unicode hex="0968"/>
  <outline>
    <contour>
      <point x="180" y="637" type="curve" smooth="yes"/>
      <point x="283" y="637"/>
      <point x="331" y="561"/>
      <point x="331" y="393" type="curve" smooth="yes"/>
      <point x="331" y="226"/>
      <point x="287" y="150"/>
      <point x="185" y="150" type="curve" smooth="yes"/>
      <point x="153" y="150"/>
      <point x="128" y="160"/>
      <point x="109" y="176" type="curve"/>
      <point x="109" y="0" type="line"/>
      <point x="44" y="0" type="line"/>
      <point x="44" y="335" type="line"/>
      <point x="109" y="335" type="line"/>
      <point x="109" y="285" type="line"/>
      <point x="116" y="234"/>
      <point x="136" y="208"/>
      <point x="179" y="208" type="curve" smooth="yes"/>
      <point x="239" y="208"/>
      <point x="265" y="265"/>
      <point x="265" y="377" type="curve" smooth="yes"/>
      <point x="265" y="410" type="line" smooth="yes"/>
      <point x="265" y="522"/>
      <point x="239" y="580"/>
      <point x="180" y="580" type="curve" smooth="yes"/>
      <point x="126" y="580"/>
      <point x="112" y="540"/>
      <point x="112" y="455" type="curve"/>
      <point x="49" y="455" type="line"/>
      <point x="48" y="463"/>
      <point x="47" y="471"/>
      <point x="47" y="481" type="curve" smooth="yes"/>
      <point x="47" y="582"/>
      <point x="87" y="637"/>
    </contour>
  </outline>
</glyph>
<glyph name="threedeva" format="1">
  <advance width="385"/>
  <unicode hex="0969"/>
  <outline>
    <contour>
      <point x="254" y="380" type="curve"/>
      <point x="254" y="377" type="line"/>
      <point x="308" y="369"/>
      <point x="344" y="320"/>
      <point x="344" y="248" type="curve" smooth="yes"/>
      <point x="344" y="157"/>
      <point x="286" y="101"/>
      <point x="201" y="101" type="curve" smooth="yes"/>
      <point x="164" y="101"/>
      <point x="133" y="112"/>
      <point x="110" y="132" type="curve"/>
      <point x="109" y="0" type="line"/>
      <point x="44" y="0" type="line"/>
      <point x="47" y="270" type="line"/>
      <point x="111" y="270" type="line"/>
      <point x="111" y="262" type="line" smooth="yes"/>
      <point x="111" y="193"/>
      <point x="139" y="157"/>
      <point x="194" y="157" type="curve" smooth="yes"/>
      <point x="243" y="157"/>
      <point x="280" y="187"/>
      <point x="280" y="252" type="curve" smooth="yes"/>
      <point x="280" y="307"/>
      <point x="246" y="347"/>
      <point x="192" y="347" type="curve" smooth="yes"/>
      <point x="141" y="347" type="line"/>
      <point x="141" y="401" type="line"/>
      <point x="193" y="401" type="line" smooth="yes"/>
      <point x="239" y="401"/>
      <point x="270" y="438"/>
      <point x="270" y="494" type="curve" smooth="yes"/>
      <point x="270" y="555"/>
      <point x="235" y="581"/>
      <point x="196" y="581" type="curve" smooth="yes"/>
      <point x="154" y="581"/>
      <point x="122" y="550"/>
      <point x="122" y="482" type="curve" smooth="yes"/>
      <point x="122" y="476" type="line"/>
      <point x="59" y="476" type="line"/>
      <point x="59" y="489" type="line" smooth="yes"/>
      <point x="59" y="580"/>
      <point x="115" y="637"/>
      <point x="199" y="637" type="curve" smooth="yes"/>
      <point x="276" y="637"/>
      <point x="333" y="587"/>
      <point x="333" y="499" type="curve" smooth="yes"/>
      <point x="333" y="435"/>
      <point x="303" y="395"/>
    </contour>
  </outline>
</glyph>
<glyph name="fourdeva" format="1">
  <advance width="410"/>
  <unicode hex="096A"/>
  <outline>
    <contour>
      <point x="111" y="627" type="line"/>
      <point x="111" y="441" type="line" smooth="yes"/>
      <point x="111" y="370"/>
      <point x="143" y="324"/>
      <point x="206" y="324" type="curve" smooth="yes"/>
      <point x="267" y="324"/>
      <point x="299" y="370"/>
      <point x="299" y="441" type="curve" smooth="yes"/>
      <point x="299" y="627" type="line"/>
      <point x="364" y="627" type="line"/>
      <point x="364" y="440" type="line" smooth="yes"/>
      <point x="364" y="374"/>
      <point x="341" y="322"/>
      <point x="285" y="295" type="curve"/>
      <point x="332" y="266"/>
      <point x="354" y="215"/>
      <point x="354" y="156" type="curve" smooth="yes"/>
      <point x="354" y="66"/>
      <point x="304" y="-11"/>
      <point x="206" y="-11" type="curve" smooth="yes"/>
      <point x="106" y="-11"/>
      <point x="57" y="66"/>
      <point x="57" y="156" type="curve" smooth="yes"/>
      <point x="57" y="215"/>
      <point x="79" y="266"/>
      <point x="124" y="295" type="curve"/>
      <point x="69" y="322"/>
      <point x="46" y="374"/>
      <point x="46" y="440" type="curve" smooth="yes"/>
      <point x="46" y="627" type="line"/>
    </contour>
    <contour>
      <point x="206" y="47" type="curve" smooth="yes"/>
      <point x="258" y="47"/>
      <point x="293" y="89"/>
      <point x="293" y="157" type="curve" smooth="yes"/>
      <point x="293" y="224"/>
      <point x="258" y="268"/>
      <point x="206" y="268" type="curve" smooth="yes"/>
      <point x="152" y="268"/>
      <point x="118" y="224"/>
      <point x="118" y="157" type="curve" smooth="yes"/>
      <point x="118" y="89"/>
      <point x="152" y="47"/>
    </contour>
  </outline>
</glyph>
<glyph name="fivedeva" format="1">
  <advance width="387"/>
  <unicode hex="096B"/>
  <outline>
    <contour>
      <point x="338" y="364" type="line"/>
      <point x="338" y="0" type="line"/>
      <point x="273" y="0" type="line"/>
      <point x="273" y="148" type="line"/>
      <point x="252" y="130"/>
      <point x="225" y="120"/>
      <point x="190" y="120" type="curve" smooth="yes"/>
      <point x="81" y="120"/>
      <point x="47" y="229"/>
      <point x="47" y="349" type="curve" smooth="yes"/>
      <point x="47" y="386"/>
      <point x="50" y="483"/>
      <point x="104" y="627" type="curve"/>
      <point x="170" y="627" type="line"/>
      <point x="117" y="494"/>
      <point x="110" y="402"/>
      <point x="110" y="362" type="curve" smooth="yes"/>
      <point x="110" y="335" type="line" smooth="yes"/>
      <point x="110" y="248"/>
      <point x="128" y="176"/>
      <point x="191" y="176" type="curve" smooth="yes"/>
      <point x="250" y="176"/>
      <point x="273" y="235"/>
      <point x="273" y="328" type="curve" smooth="yes"/>
      <point x="273" y="364" type="line"/>
    </contour>
  </outline>
</glyph>
<glyph name="eightdeva" format="1">
  <advance width="407"/>
  <unicode hex="096E"/>
  <outline>
    <contour>
      <point x="277" y="628" type="curve"/>
      <point x="363" y="628" type="line"/>
      <point x="220" y="464"/>
      <point x="106" y="303"/>
      <point x="106" y="173" type="curve" smooth="yes"/>
      <point x="106" y="97"/>
      <point x="147" y="46"/>
      <point x="204" y="46" type="curve" smooth="yes"/>
      <point x="248" y="46"/>
      <point x="301" y="77"/>
      <point x="301" y="158" type="curve" smooth="yes"/>
      <point x="301" y="188" type="line"/>
      <point x="365" y="188" type="line"/>
      <point x="368" y="178"/>
      <point x="369" y="162"/>
      <point x="369" y="150" type="curve" smooth="yes"/>
      <point x="369" y="66"/>
      <point x="320" y="-11"/>
      <point x="207" y="-11" type="curve" smooth="yes"/>
      <point x="107" y="-11"/>
      <point x="39" y="51"/>
      <point x="39" y="169" type="curve" smooth="yes"/>
      <point x="39" y="312"/>
      <point x="139" y="471"/>
    </contour>
  </outline>
</glyph>
<glyph name="abbreviationdeva" format="1">
  <advance width="392"/>
  <unicode hex="0970"/>
  <outline>
    <contour>
      <point x="196" y="616" type="curve" smooth="yes"/>
      <point x="274" y="616"/>
      <point x="336" y="554"/>
      <point x="336" y="476" type="curve" smooth="yes"/>
      <point x="336" y="397"/>
      <point x="274" y="334"/>
      <point x="196" y="334" type="curve" smooth="yes"/>
      <point x="118" y="334"/>
      <point x="56" y="397"/>
      <point x="56" y="476" type="curve" smooth="yes"/>
      <point x="56" y="554"/>
      <point x="118" y="616"/>
    </contour>
    <contour>
      <point x="196" y="564" type="curve" smooth="yes"/>
      <point x="147" y="564"/>
      <point x="107" y="524"/>
      <point x="107" y="476" type="curve" smooth="yes"/>
      <point x="107" y="427"/>
      <point x="147" y="386"/>
      <point x="196" y="386" type="curve" smooth="yes"/>
      <point x="245" y="386"/>
      <point x="285" y="427"/>
      <point x="285" y="476" type="curve" smooth="yes"/>
      <point x="285" y="524"/>
      <point x="245" y="564"/>
    </contour>
  </outline>
</glyph>
<glyph name="jjyadeva" format="1">
  <advance width="417"/>
  <unicode hex="097A"/>
  <outline>
    <contour>
      <point x="319" y="0" type="move" name="Anchor-3"/>
    </contour>
    <contour>
      <point x="319" y="606" type="move" name="Anchor-2"/>
    </contour>
    <contour>
      <point x="427" y="549" type="line"/>
      <point x="351" y="549" type="line"/>
      <point x="351" y="0" type="line"/>
      <point x="288" y="0" type="line"/>
      <point x="288" y="173" type="line"/>
      <point x="264" y="141"/>
      <point x="224" y="130"/>
      <point x="183" y="130" type="curve" smooth="yes"/>
      <point x="88" y="130"/>
      <point x="29" y="207"/>
      <point x="29" y="353" type="curve"/>
      <point x="99" y="353"/>
      <point x="129" y="401"/>
      <point x="129" y="446" type="curve" smooth="yes"/>
      <point x="129" y="505"/>
      <point x="91" y="549"/>
      <point x="46" y="549" type="curve" smooth="yes"/>
      <point x="-10" y="549" type="line"/>
      <point x="-10" y="606" type="line"/>
      <point x="427" y="606" type="line"/>
    </contour>
    <contour>
      <point x="149" y="549" type="line"/>
      <point x="154" y="545" type="line"/>
      <point x="158" y="549" type="line"/>
      <point x="165" y="536"/>
      <point x="172" y="523"/>
      <point x="179" y="509" type="curve" smooth="yes"/>
      <point x="288" y="311" type="line"/>
      <point x="288" y="549" type="line"/>
    </contour>
    <contour>
      <point x="194" y="185" type="curve" smooth="yes"/>
      <point x="235" y="185"/>
      <point x="265" y="202"/>
      <point x="279" y="246" type="curve"/>
      <point x="190" y="409" type="line"/>
      <point x="178" y="357"/>
      <point x="142" y="324"/>
      <point x="97" y="308" type="curve"/>
      <point x="107" y="218"/>
      <point x="147" y="185"/>
    </contour>
  </outline>
</glyph>
